<svg xmlns="http://www.w3.org/2000/svg" width="326" height="90" viewBox="0 0 326 90" fill="none">
<g clip-path="url(#clip0_2009_11146)">
<path d="M99.0851 18.5326C100.195 18.4728 101.056 18.4771 102.168 18.5078C102.028 26.3489 102.259 34.1117 102.32 41.9546C102.466 41.7025 102.618 41.454 102.776 41.2093C103.57 39.9768 109.235 32.0447 110.165 31.897C112.822 31.4745 117.561 31.83 120.379 32.0051L113.797 40.4182C112.976 41.4602 111.22 43.4105 110.662 44.4607C110.837 45.7274 119.035 57.83 120.399 59.7082C120.636 60.0606 120.871 60.4397 121.101 60.7989C118.004 61.0978 114.876 61.0982 111.769 61.0274C109.371 60.9729 108.748 58.7799 107.642 56.9432C106.211 54.6147 104.804 52.2713 103.422 49.9138L102.336 51.3119C102.051 54.1869 102.142 57.996 102.191 60.9314C99.6935 61.2169 95.3673 61.0142 92.6174 61.1287C92.5838 46.9581 92.6378 32.7874 92.7794 18.6174C94.2469 18.4561 97.4698 18.5317 99.0851 18.5326Z" fill="white"/>
<path d="M211.21 18.3516C214.234 18.3621 217.256 18.3948 220.277 18.4494C220.462 26.5047 220.263 34.729 220.456 42.773C220.721 41.7698 220.874 41.0667 221.471 40.2018C223.361 37.465 225.279 34.6347 227.319 32.0091C229.894 31.6607 234.878 31.7503 237.51 31.998C234.58 36.4575 231.316 40.3818 228.095 44.5565C228.196 44.7724 228.298 44.9939 228.431 45.1924C230.78 48.7064 232.99 52.3046 235.237 55.8836C236.268 57.5276 237.351 59.1122 238.364 60.7711C236.765 60.9788 228.267 61.6036 227.491 60.4299C225.319 57.1468 223.344 53.2507 221.355 49.828C221.154 50.1225 220.651 50.874 220.589 51.189C220.037 53.9679 220.263 58.0934 220.386 60.9122C218.201 61.0721 212.768 60.9071 211.172 61.2248L211.151 34.1412C211.15 29.025 211.042 23.435 211.21 18.3516Z" fill="white"/>
<path d="M151.121 31.2185C157.252 30.7949 163.141 31.7698 165.318 38.5359C166.017 40.7072 165.863 43.3095 165.895 45.5955C165.938 48.8924 166.016 52.1889 166.132 55.4841C166.181 57.0553 166.183 59.5485 166.445 61.0437C164.977 61.0561 158.908 61.292 158.073 60.7517C157.677 60.1941 157.553 59.1345 157.421 58.4295C155.716 59.7807 153.966 61.2274 151.746 61.6091C149.582 61.9814 146.015 61.4502 144.217 60.1902C142.261 58.6481 141.248 57.262 140.857 54.7839C139.565 46.6052 146.013 43.0288 153.229 43.3045C154.096 43.3375 155.879 43.5748 156.653 43.4519L156.845 43.0906C156.935 42.0485 156.351 40.8229 155.934 39.8679C152.59 38.0915 150.572 38.4691 147.06 39.8142C146.375 40.0765 145.345 40.616 144.663 40.6746C143.837 40.072 143.03 34.5017 143.469 33.6248C144.764 32.4099 149.355 31.4867 151.121 31.2185ZM154.644 48.5652C153.436 48.6377 152.251 48.6552 151.188 49.2683C148.192 50.9957 148.648 54.6745 152.186 55.2781C157.004 55.1887 157.417 52.5627 156.874 48.4724L154.644 48.5652Z" fill="white"/>
<path d="M184.557 31.2146C187.283 30.9502 190.488 31.5352 192.496 33.5092C196.425 37.3722 195.7 43.8002 195.709 48.9089L195.751 60.9972C192.983 61.0614 189.347 60.9194 186.682 61.1484L186.661 49.0896C186.663 47.0424 186.749 44.7448 186.553 42.7316C186.378 40.9318 184.927 39.3299 183.052 39.2671C181.135 39.2027 180.165 40.0074 178.805 41.193C177.677 43.1369 178.09 57.8181 178.06 61.1096C175.431 60.9533 171.953 61.0256 169.259 61.0024C169.06 54.1545 169.308 47.2043 169.209 40.3455C169.17 37.5598 169.198 34.696 169.294 31.9144C170.802 31.8483 176.642 31.3242 177.603 31.9844C177.828 32.667 177.643 34.7436 177.599 35.5846C179.919 32.952 181.069 31.9173 184.557 31.2146Z" fill="white"/>
<path d="M265.392 32.9587C265.497 32.9346 265.588 32.9196 265.696 32.9179C267.619 32.8978 269.473 33.6409 270.847 34.9841C273.632 37.7065 273.202 44.9838 273.238 48.8194L273.328 61.0953C271.038 61.0893 268.163 61.0217 265.916 60.7951C265.672 54.2967 266.093 47.9355 265.652 41.22C264.037 38.8498 260.957 39.1291 260.372 41.9664C260.062 43.7109 260.019 48.4917 260.019 50.3337C260.042 53.9251 260.034 57.5165 259.995 61.1078C257.605 60.9618 254.715 61.0335 252.304 61.0449C252.197 58.5038 252.318 55.4295 252.298 52.8378C252.247 46.3867 252.385 39.8856 252.296 33.4345C254.33 33.3644 257.06 33.3978 259.091 33.4744C259.221 34.1855 259.282 35.266 259.345 36.0117C261.917 34.1302 262.146 33.5803 265.392 32.9587Z" fill="#FC7802"/>
<path d="M284.55 33.1014C295.697 31.9916 296.146 41.875 296.201 49.9363C292.168 49.8176 286.846 49.8125 282.806 50.0047C284.245 57.0449 289.179 55.4944 294.571 53.6834C294.577 54.3386 294.627 55.072 294.658 55.7332C294.701 56.9389 295.161 58.3471 294.459 59.3738C293.808 60.3281 292.371 60.545 291.326 60.7918C287.368 61.7247 283.81 61.6892 280.261 59.4393C277.698 57.8142 276.986 55.4211 276.259 52.5486C275.072 47.8648 275.695 41.3145 277.972 37.0574C279.091 34.9652 282.198 33.5868 284.55 33.1014ZM285.567 39.1121C283.077 39.9869 283.006 42.0343 282.799 44.3904L286.553 44.3758L289.432 44.3602C289.174 41.4519 289.27 38.9679 285.567 39.1121Z" fill="#FC7802"/>
<path d="M137.574 31.2185C140.493 30.9925 140.058 31.4828 140.199 34.2352C140.313 36.4533 140.274 38.7117 140.227 40.9328C137.501 40.5548 135.37 40.42 133.201 42.5164C131.536 44.1257 131.515 45.5603 131.4 47.7061C131.163 52.1133 131.332 56.4966 131.278 60.905C130.22 61.0222 122.61 61.2581 122.195 60.9695L122.135 60.4122C122.121 53.8853 122.141 47.3585 122.196 40.8319C122.201 39.2695 122.072 33.0045 122.397 31.967C123.429 31.4338 129.425 31.664 130.971 31.6952C130.962 33.1769 130.967 34.6585 130.985 36.14C132.421 32.9945 134.117 31.7133 137.574 31.2185Z" fill="white"/>
<path d="M300.369 26.5504C301.852 26.5767 306.395 26.2222 307.252 26.889C307.877 27.7642 307.665 32.0552 307.689 33.5307L307.74 33.5264C309.273 33.4097 310.663 33.4859 312.194 33.5366L312.193 39.6963C310.784 39.7757 309.05 39.7521 307.614 39.7717C307.506 43.1499 307.441 50.1578 307.754 53.4442C309.045 55.2245 310.145 54.5869 312.197 54.5282C312.207 56.3368 312.256 58.2751 312.115 60.0681L311.962 60.4448C310.757 61.3377 307.901 61.3106 306.446 61.2181C303.56 61.034 300.923 58.8595 300.541 55.9135C300.191 53.1968 300.242 50.0002 300.247 47.2066C300.25 45.0381 299.952 41.842 300.224 39.7469C299.18 39.7618 298.052 39.7289 297.002 39.7176C296.926 37.7456 297.067 35.65 297.23 33.6814C298.248 33.4749 299.12 33.4478 300.153 33.5118C300.116 31.7722 299.947 28.1084 300.369 26.5504Z" fill="#FC7802"/>
<path d="M199.116 31.6679C200.953 31.5269 206.102 31.6245 207.967 31.7001C207.719 35.3347 207.929 38.9347 207.95 42.577L207.981 61.0526C205.026 61.061 202.073 61.0459 199.118 61.0071C199.196 51.3326 198.933 41.2679 199.116 31.6679Z" fill="white"/>
<path d="M202.442 18.4726C207.278 18.128 209.999 22.0926 207.393 26.5174C207.028 27.1363 205.44 28.3172 204.691 28.4254C199.392 29.2233 196.605 23.5325 199.91 19.5829C200.463 18.924 201.605 18.6685 202.442 18.4726Z" fill="white"/>
<path d="M215.451 70.9229C215.845 71.8335 215.467 75.2198 215.57 76.5137C215.771 78.9829 217.177 80.2374 216.485 82.6846L216.167 82.8398C215.475 82.8016 215.682 82.8993 215.142 82.5361C214.869 82.0434 214.989 81.3119 215.029 80.7256C214.204 80.7117 209.705 80.6583 209.178 80.8213C209.177 81.4 209.209 81.971 209.046 82.5244C208.734 82.8115 208.739 82.8469 208.281 82.8701C206.706 82.9498 207.216 80.2599 207.24 79.2012L208.562 78.3027C209.422 76.4231 209.577 73.0233 209.76 70.9004C211.551 70.9075 213.339 70.886 215.13 70.8369L215.451 70.9229ZM211.201 72.5039C211.091 74.9673 210.969 76.6864 210.114 79.0293C211.085 79.0462 212.154 79.0888 213.115 79.0303C213.376 78.9535 213.683 78.9286 213.732 78.6904C214.052 77.1018 213.845 74.0792 213.798 72.5L211.201 72.5039Z" fill="#FEFEFE"/>
<path d="M243.826 51.856C250.052 51.4673 252.1 58.4269 246.563 60.9797C245.441 61.1009 244.188 61.1873 243.124 60.8003C242.139 60.4484 241.337 59.714 240.901 58.7634C239.523 55.7851 240.966 53.1122 243.826 51.856Z" fill="#FC7802"/>
<path d="M245.844 70.9C248.721 70.8984 254.91 70.5862 252.126 75.4645C252.441 77.1787 254.397 76.7876 252.715 79.6676C251.255 81.0648 248.135 80.6354 245.94 80.7389C245.832 77.5594 245.638 74.0567 245.844 70.9ZM247.58 79.1852C248.822 79.082 249.86 79.0381 251.052 78.65C251.475 78.0115 251.389 78.2906 251.402 77.527C250.864 76.312 248.754 76.3784 247.593 76.2965L247.58 79.1852ZM247.606 75.0153C248.527 74.9402 249.877 74.8756 250.741 74.65C250.94 74.1378 250.994 74.0093 250.918 73.4488C250.423 72.3851 248.617 72.52 247.588 72.4889L247.606 75.0153Z" fill="#FEFEFE"/>
<path d="M230.15 74.338C230.524 70.0872 233.856 70.9129 236.965 70.8361L237.234 70.8566C237.568 71.3354 237.422 79.2965 237.428 80.6535C234.305 80.625 235.733 80.2698 235.388 77.7179C235.35 77.4279 235.297 77.251 235.125 77.0099C233.868 76.6651 232.728 79.5629 232.301 80.4533C231.708 80.7601 230.422 80.9047 230.117 80.1486C230.263 79.3348 231.506 77.9093 232.063 77.1828C231.937 77.0847 231.813 76.9819 231.694 76.8751C231.043 76.2965 230.064 75.3158 230.15 74.338ZM233.497 72.4132C232.948 72.6139 232.569 72.7735 232.276 73.3878C232.099 73.7556 232.087 74.1821 232.243 74.5597C232.693 75.6789 233.314 75.6674 234.361 75.7052C235.121 75.6899 235.07 75.818 235.525 75.4005C235.862 74.6042 235.611 73.3116 235.635 72.3507L233.497 72.4132Z" fill="#FEFEFE"/>
<path d="M117.813 70.8135C118.216 72.0325 121.185 80.0194 121.082 80.3652C121.056 80.4504 120.959 80.4981 120.882 80.5381C120.414 80.7839 119.75 80.6067 119.276 80.4609C118.737 79.9139 118.835 79.7473 118.658 78.8975C118.196 78.4896 118.343 78.6029 117.637 78.5586H114.658C114.502 79.4243 114.204 80.1863 113.91 81.0107C113.688 80.9842 113.467 80.9549 113.247 80.9219C112.704 80.8378 112.524 80.8078 112.235 80.4121C112.435 79.6989 115.493 70.9918 115.509 70.9521L117.813 70.8135ZM116.151 73.2402C115.838 74.6624 115.597 75.589 115.139 76.9688L117.319 76.9443L117.727 76.8438C117.954 76.1998 116.622 73.6767 116.151 73.2402Z" fill="#FEFEFE"/>
<path d="M194.424 70.9001C194.892 70.8862 196.597 70.7771 196.781 71.2028C197.583 73.0478 200.165 78.6169 199.864 80.4001C199.56 80.8321 199.726 80.7229 199.204 80.8346C197.627 80.4804 198.386 79.6223 197.399 78.7848C196.029 78.5742 195.389 78.6026 194.056 78.7438C193.632 79.4541 193.447 80.4947 192.692 80.778C192.193 80.7222 192.059 80.7267 191.69 80.4001C191.593 80.0747 191.683 79.5911 191.801 79.2819C192.886 76.4473 193.727 73.8621 194.424 70.9001ZM195.704 73.57C195.279 74.4417 194.044 76.2212 195.036 76.8757L196.086 76.8952L196.647 76.8122C197.019 76.2167 196.189 73.8584 195.704 73.57Z" fill="#FEFEFE"/>
<path d="M258.852 70.8359C259.53 70.8599 260.294 70.8379 260.903 71.1182C261.519 71.7816 264.635 80.2487 264.227 80.9717C261.939 81.271 263.196 79.3951 261.136 78.7871C258.685 78.4209 258.034 78.2184 257.538 80.2979C257.42 80.7952 256.184 80.8204 255.657 80.4902C255.52 79.9084 256.682 77.5201 256.954 76.8154C257.724 74.8327 258.279 72.8752 258.852 70.8359ZM260.086 73.5791C259.666 74.3715 258.577 75.9777 259.077 76.7754C259.519 76.9006 259.658 76.8976 260.121 76.9043L260.825 76.8838C261.277 76.1996 260.52 73.9762 260.086 73.5791Z" fill="#FEFEFE"/>
<path d="M124.057 70.7797C124.491 70.7529 124.869 70.6915 125.266 70.8712C125.877 71.5897 125.701 73.7896 125.753 74.9299C127.178 74.7889 128.233 74.7531 129.668 74.7404L129.663 70.9073L131.454 70.9074C131.413 72.3201 131.693 80.1704 131.192 80.8936L130.526 80.9085C130.032 80.8656 130.166 80.943 129.828 80.6622C129.54 79.6967 129.59 77.5827 129.574 76.4982C128.291 76.4159 127.006 76.3605 125.721 76.3324C125.693 77.5409 125.89 79.9984 125.134 80.7623C124.975 80.8212 124.212 81.0836 124.173 80.8259C123.837 78.5889 123.605 72.8319 124.057 70.7797Z" fill="#FEFEFE"/>
<path d="M183.151 75.3354C184.059 74.2953 187.053 69.9823 188.485 71.0231C188.569 72.0118 186.255 74.5992 185.589 75.4258C186.531 76.5401 188.636 79.2442 188.989 80.6189L188.87 80.8833C186.612 81.5391 185.355 77.1132 183.636 76.7815C182.974 77.6309 183.452 80.1142 182.98 80.645C182.482 80.748 182.132 80.8612 181.637 80.7214C181.321 80.2069 181.303 72.0314 181.497 71.0441C181.894 70.8208 182.476 70.9251 182.95 70.9595C183.331 71.5742 183.175 74.4943 183.151 75.3354Z" fill="#FEFEFE"/>
<path d="M182.98 80.6447C182.482 80.7478 182.132 80.861 181.637 80.7212C181.321 80.2066 181.303 72.0311 181.497 71.0438C181.894 70.8206 182.476 70.9249 182.95 70.9592C182.758 72.2008 182.713 79.6978 182.98 80.6447Z" fill="#FEFEFE"/>
<path d="M164.98 70.794C165.352 70.7675 165.678 70.716 166.03 70.8494C166.644 71.5789 166.439 73.7316 166.49 74.9057C167.906 74.859 169.052 74.8579 170.467 74.9118C170.447 73.8242 170.121 71.7162 170.961 71.0426C171.467 70.8688 171.58 70.8915 172.104 71.0119C172.268 71.4245 172.281 79.4406 172.262 80.3905C171.959 80.7003 171.402 80.684 170.949 80.7282L170.665 80.692C170.253 80.2499 170.443 77.2893 170.459 76.4825C169.104 76.42 167.987 76.3632 166.638 76.4367C166.485 77.9358 166.452 79.4806 166.398 80.9892L164.719 80.5349C164.873 78.6447 164.315 71.5926 164.98 70.794Z" fill="#FEFEFE"/>
<path d="M226.8 70.8556L226.854 70.8685C226.908 70.9243 226.974 70.9915 227.05 71.0702C227.052 73.9146 227.072 77.9021 227.131 80.6171C226.477 80.6169 225.782 80.5897 225.123 80.5756C225.093 77.8845 225.094 75.1932 225.129 72.5023L222.722 72.6389C222.649 73.7674 222.564 74.5343 222.38 75.6502C222.203 76.8635 222.045 79.6684 220.877 80.4296C220.523 80.6606 219.733 80.8904 219.294 80.7688C219.022 80.4679 219.047 80.2725 219.025 79.8602C219.237 78.982 220.305 79.185 220.516 77.5486C220.785 75.4656 221.18 73.256 221.06 71.1464C223.008 70.8491 224.841 70.8508 226.8 70.8556Z" fill="#FEFEFE"/>
<path d="M144.599 70.918C146.097 70.8811 149.591 70.697 150.89 71.0327C151.224 71.497 151.136 71.5852 151.192 72.2057L150.98 72.4118C149.826 72.7066 147.646 72.5798 146.426 72.5307C146.469 73.3265 146.467 74.134 146.474 74.9318C147.328 74.9163 149.669 74.7906 150.347 75.2601C150.531 75.3878 150.512 75.8421 150.537 76.1205C150.083 76.6238 147.413 76.3368 146.422 76.3891C146.509 77.5125 146.498 77.9143 146.398 79.0239C147.752 79.0121 149.825 78.938 151.112 79.0927C151.402 79.3783 151.302 79.8159 151.318 80.3391L151.128 80.5343C149.864 80.7851 145.978 80.6383 144.494 80.6137C144.65 77.5178 144.592 74.0423 144.599 70.918Z" fill="#FEFEFE"/>
<path d="M157.854 74.2707C158.661 73.1712 159.778 71.4027 160.9 70.7471L161.43 70.9463C161.34 72.4437 160.118 74.4097 159.401 75.8179C160.021 77.2118 161.951 79.8668 161.738 80.742C160.292 81.6531 158.609 78.3382 157.926 77.373C157.171 78.5901 155.873 81.3235 154.117 80.7472C153.742 79.8452 156.024 76.8051 156.62 75.8278C156.144 75.0103 155.619 74.1453 155.173 73.3175C154.69 72.579 153.772 71.6175 154.378 70.8422C155.396 70.6243 156.179 71.284 156.678 72.0885L157.854 74.2707Z" fill="#FEFEFE"/>
<path d="M155.173 73.3177C154.69 72.5792 153.772 71.6177 154.378 70.8424C155.396 70.6245 156.179 71.2843 156.678 72.0887C155.958 72.4582 155.64 72.6339 155.173 73.3177Z" fill="#171A1F"/>
<path d="M104.453 70.8012C106.265 70.6836 108.242 70.811 109.412 72.4197C109.627 72.595 109.246 73.5776 109.097 73.6226C107.911 73.9714 106.958 72.5453 105.818 72.5779C103.179 72.6496 103.131 76.4332 104.059 78.1491C104.729 79.3901 106.496 79.172 107.541 78.5525C108.06 78.2512 108.399 78.0389 108.985 78.1415C109.429 78.4525 109.314 78.2867 109.451 78.803C108.979 80.9064 106.251 80.969 104.56 80.9301C103.736 80.4254 103.014 79.8296 102.474 79.0224C101.604 77.7316 101.291 76.1454 101.604 74.621C101.983 72.7196 102.943 71.8083 104.453 70.8012Z" fill="#FEFEFE"/>
<path d="M269.689 70.7946C272.195 70.647 272.953 70.828 274.684 72.6751C274.474 72.9537 274.281 73.1914 274.057 73.4576C272.969 73.7899 270.889 72.0161 269.654 73.0888C266.96 75.4277 269.116 81.4154 272.908 78.3603C273.425 77.9603 273.554 77.9708 274.135 78.1635C274.336 78.453 274.488 78.5876 274.364 78.9693C273.748 80.8212 271.554 81.1395 269.904 80.7865C266.354 80.0271 265.73 75.2875 267.477 72.6484C268.09 71.7234 268.766 71.348 269.689 70.7946Z" fill="#FEFEFE"/>
<path d="M51.0235 75.0815C54.4543 74.9501 91.641 75.0066 92.0361 75.2314L92.19 75.8419L60.7401 75.8444C59.607 75.8446 51.5682 75.9521 51.1355 75.6886L51.0235 75.0815Z" fill="#FEFEFE" fill-opacity="0.988235"/>
<path d="M138.345 70.8317C139.021 70.8037 139.72 70.7514 140.395 70.7551C141.843 70.763 141.786 71.3919 141.959 72.4883L138.973 72.4923C138.906 74.8641 139.088 77.849 138.911 80.2547C138.891 80.5371 138.693 80.5768 138.44 80.7168C137.858 80.6144 137.624 80.667 137.205 80.3259C136.951 78.545 137.035 74.4676 137.058 72.5582C135.918 72.5484 135.281 72.6204 134.245 72.1669L134.116 71.6858C135.081 70.8203 137.14 70.8648 138.345 70.8317Z" fill="#FEFEFE"/>
<path d="M280.772 75.0583C287.983 75.057 304.115 74.945 312.057 75.1955C312.124 75.1977 312.236 75.7118 312.272 75.8484C304.685 75.8447 289.434 75.8835 281.132 75.7922C280.931 75.79 280.846 75.3112 280.772 75.0583Z" fill="#FEFEFE" fill-opacity="0.988235"/>
<path d="M176.028 70.8962C176.604 70.8696 176.948 70.8117 177.478 71.0482C177.704 71.769 177.53 79.0646 177.611 80.5451C177.554 80.5567 177.495 80.5675 177.438 80.5775C176.878 80.6758 176.529 80.7102 176.085 80.3979C175.839 78.6667 176.004 72.9509 176.028 70.8962Z" fill="#FEFEFE"/>
<path d="M63.0487 13.9307L64.5948 14.1615L65.4247 14.4867C65.7009 14.6585 66.3344 15.0282 66.5629 15.2103C66.8734 16.367 67.0459 17.2546 67.2528 18.4359L67.7435 18.662C70.7598 19.4997 70.8373 20.0015 70.3098 23.1564C70.0262 23.8451 69.8512 24.198 69.4777 24.8426C69.5194 25.7509 69.4761 27.0171 70.1047 27.6812C70.8886 27.8495 71.5216 27.2305 72.1686 26.7964C73.7967 25.7043 77.0668 26.2839 78.8454 26.9678C79.5616 27.3931 80.4266 27.8911 80.9721 28.5235C82.5044 30.6091 83.2075 31.3674 83.7962 33.9113C84.6466 38.7194 84.4701 42.5597 82.1857 46.8697C80.596 49.7737 78.0117 51.894 74.54 51.669C73.5008 51.7388 72.3514 51.3807 71.3806 51.037C69.9656 50.3938 69.187 49.1321 68.1509 49.0399C67.8603 49.2437 67.4938 49.5177 67.1966 49.6952C65.3823 50.6944 61.8894 52.3802 59.774 52.1345C55.9693 52.4953 53.2772 51.8205 49.9184 50.0289C46.28 48.4266 43.0666 42.6198 38.656 47.4056C38.3215 48.0756 38.0696 48.5056 37.9442 49.2432L38.1063 50.4096C37.005 50.4396 36.642 50.2104 35.6657 49.6931C35.3456 49.7136 34.56 49.5726 34.2086 49.5199C33.3878 48.5528 28.6713 48.789 27.3658 48.9562L24.8401 48.9511C23.9867 48.9953 22.8346 48.9728 21.9599 48.9787L20.4846 48.9573C19.7418 49.0369 19.553 49.1536 18.9932 49.7222L18.6617 49.6133C18.3004 50.7616 17.501 50.092 16.365 50.3846C16.113 50.398 15.6527 50.3698 15.383 50.3624L15.853 49.4628C15.7876 47.8063 16.9266 43.7063 17.5464 42.141C18.1145 40.6754 19.3447 36.9926 20.5759 36.2464C20.8369 36.0075 21.6496 35.0252 21.9769 34.6793C23.1298 33.4521 24.3436 32.2832 25.6138 31.1774C31.7914 25.8243 38.3945 25.3667 46.0686 26.1937C46.6128 26.2524 47.5545 26.3006 47.9789 25.9331C48.1592 25.2355 48.2265 25.1221 48.0309 24.4987C47.59 24.032 47.4592 23.6273 47.2824 23.0315C46.8841 21.483 46.7683 19.8778 48.3739 19.1155C48.8003 18.7452 49.9073 18.7018 50.4516 18.6598C50.5407 18.4462 50.7726 16.1051 51.0167 15.2318C51.8646 14.6043 52.5938 14.3424 53.6011 14.0937L54.8815 13.9436L55.0053 14.1441C56.3051 14.1518 57.6048 14.1468 58.9045 14.1288L60.6543 14.1585C61.4251 14.1964 62.2782 14.0423 63.0487 13.9307Z" fill="#667483"/>
<path d="M63.0487 13.9307L64.5948 14.1615L65.4247 14.4867C65.7009 14.6585 66.3344 15.0282 66.5629 15.2103C66.8734 16.367 67.0459 17.2546 67.2528 18.4359L67.7435 18.662C70.7598 19.4997 70.8373 20.0015 70.3098 23.1564C70.0262 23.8451 69.8512 24.198 69.4777 24.8426C68.7545 23.7612 68.5511 23.4926 67.3387 23.0486C66.7945 24.1787 67.5852 26.1834 66.6544 28.4137C65.119 27.3179 64.9064 28.1007 63.8612 26.2427C64.0008 27.6065 64.6083 29.9891 65.2846 31.1876C65.257 32.2751 65.1995 32.7241 65.0141 33.7828C64.5121 37.2545 62.3205 38.4917 58.9654 38.0581C56.188 37.6992 54.1438 35.5623 51.2989 35.7932C45.8913 35.1177 43.5949 33.9825 37.896 35.2023C36.8572 35.4246 32.3663 36.4896 31.815 36.5049C31.5973 36.7603 30.4923 38.0262 30.3842 38.2251C28.7126 39.0319 27.7646 40.4358 26.9341 42.0755C26.1641 42.6561 24.6659 44.8102 24.0139 44.8658C23.1554 44.315 23.6015 41.3267 23.4837 40.3588C23.4064 39.7242 23.3373 39.4581 23.1511 38.8343C21.5345 41.5856 21.1431 43.2385 20.7296 46.4332C20.6698 46.8958 20.5 48.0491 20.5345 48.4647L20.0982 48.6751C21.2883 49.003 23.6783 48.7309 24.8401 48.9511C23.9867 48.9953 22.8346 48.9728 21.9599 48.9787L20.4846 48.9573C19.7418 49.0369 19.553 49.1536 18.9932 49.7222L18.6617 49.6133C18.3004 50.7616 17.501 50.092 16.365 50.3846C16.113 50.398 15.6527 50.3698 15.383 50.3624L15.853 49.4628C15.7876 47.8063 16.9266 43.7063 17.5464 42.141C18.1145 40.6754 19.3447 36.9926 20.5759 36.2464C20.8369 36.0075 21.6496 35.0252 21.9769 34.6793C23.1298 33.4521 24.3436 32.2832 25.6138 31.1774C31.7914 25.8243 38.3945 25.3667 46.0686 26.1937C46.6128 26.2524 47.5545 26.3006 47.9789 25.9331C48.1592 25.2355 48.2265 25.1221 48.031 24.4987C47.59 24.032 47.4592 23.6273 47.2824 23.0315C46.8841 21.483 46.7683 19.8778 48.3739 19.1155C48.8003 18.7452 49.9073 18.7018 50.4516 18.6598C50.5408 18.4462 50.7726 16.1051 51.0167 15.2318C51.8646 14.6043 52.5939 14.3424 53.6011 14.0937L54.8815 13.9436L55.0053 14.1441C56.3051 14.1518 57.6049 14.1468 58.9045 14.1288L60.6543 14.1585C61.4251 14.1964 62.2782 14.0423 63.0487 13.9307Z" fill="#F3F3F5"/>
<path d="M63.0487 13.9307L64.5948 14.1615L65.4247 14.4867C65.7009 14.6585 66.3344 15.0282 66.5629 15.2103C66.8734 16.367 67.0459 17.2546 67.2528 18.4359L67.7435 18.662C70.7598 19.4997 70.8373 20.0015 70.3098 23.1564C70.0262 23.8451 69.8512 24.198 69.4777 24.8426C68.7545 23.7612 68.5511 23.4926 67.3387 23.0486C66.7945 24.1787 67.5852 26.1834 66.6544 28.4137C65.119 27.3179 64.9064 28.1007 63.8612 26.2427C63.466 25.1845 63.2591 23.9316 63.0366 22.8152C62.3729 22.7638 61.7424 22.68 61.0823 22.5937L60.0141 22.5573L59.9987 23.0117C59.0897 23.0618 58.4801 23.1308 57.5788 22.9222C57.2954 22.5269 56.7335 22.5885 56.2632 22.5365L54.7528 22.5889C53.516 22.543 53.1023 22.5966 51.8861 22.7991C51.87 23.3913 51.9593 24.2703 51.6493 24.6755L51.1494 24.9442L51.4322 25.2131C50.3196 25.3368 49.5405 26.3219 48.2385 26.6629C48.1643 26.5386 48.0302 26.0913 47.9789 25.9331C48.1592 25.2355 48.2265 25.1221 48.031 24.4987C47.59 24.032 47.4592 23.6273 47.2824 23.0315C46.8841 21.483 46.7683 19.8778 48.3739 19.1155C48.8004 18.7452 49.9073 18.7018 50.4517 18.6598C50.5408 18.4462 50.7726 16.1051 51.0167 15.2318C51.8646 14.6043 52.5939 14.3424 53.6012 14.0937L54.8815 13.9436L55.0053 14.1441C56.3051 14.1518 57.6049 14.1468 58.9045 14.1288L60.6543 14.1585C61.4251 14.1964 62.2782 14.0423 63.0487 13.9307Z" fill="#171A1F"/>
<path d="M53.6012 14.0935L54.8816 13.9434L55.0054 14.1439C56.3052 14.1516 57.6049 14.1465 58.9046 14.1286L60.6543 14.1583L60.7988 14.6196L60.4276 14.9551C60.5586 15.7396 60.7748 16.7888 60.7328 17.5597L60.5212 17.81L60.6876 18.1205C60.3125 18.333 59.2971 18.2536 58.8115 18.2453L58.9789 18.4773C59.8421 19.2301 59.4954 20.313 59.431 21.4149L59.5005 21.6609C58.6555 21.7369 58.3056 21.7175 57.4565 21.6432C56.3255 21.5941 55.2816 21.6402 54.1523 21.6806L52.589 21.7997C52.2079 21.8121 51.7604 21.8795 51.4597 21.6687C50.7073 20.6316 52.0564 19.9313 50.4517 18.6596C50.5408 18.446 50.7727 16.1049 51.0168 15.2316C51.8646 14.6041 52.5939 14.3422 53.6012 14.0935Z" fill="#F3F3F5"/>
<path d="M54.3374 18.4189C55.3537 18.2251 57.6806 18.2582 58.8116 18.2456L58.979 18.4776C59.8422 19.2304 59.4955 20.3132 59.431 21.4152L59.5006 21.6612C58.6556 21.7372 58.3057 21.7178 57.4566 21.6435C56.3256 21.5944 55.2817 21.6405 54.1524 21.6809C53.5913 21.6047 53.5482 21.6977 53.2248 21.3412C52.9315 20.5247 53.1524 19.315 53.246 18.4205L54.3374 18.4189Z" fill="#F3F3F5"/>
<path d="M54.3374 18.4189C55.3536 18.2251 57.6805 18.2582 58.8115 18.2456L58.9789 18.4776C59.8422 19.2304 59.4954 20.3132 59.431 21.4152L59.5005 21.6612C58.6555 21.7372 58.3056 21.7178 57.4565 21.6435C57.2884 20.2886 57.4948 19.796 57.9388 18.5382C56.8647 18.4251 55.4456 18.4363 54.3374 18.4189Z" fill="#6A7684"/>
<path d="M51.0168 15.2319C51.8646 14.6043 52.5939 14.3425 53.6012 14.0938C53.0347 15.4748 53.2826 16.2863 52.9757 17.6759L52.9738 17.7595L52.5729 17.801L51.9184 18.0742L51.8716 18.2544C52.459 18.3902 52.6482 18.4034 53.2459 18.4205C53.1523 19.315 52.9314 20.5247 53.2247 21.3412C53.5481 21.6977 53.5912 21.6047 54.1523 21.6809L52.589 21.8C52.2079 21.8124 51.7604 21.8798 51.4597 21.669C50.7073 20.6319 52.0564 19.9316 50.4517 18.6598C50.5408 18.4463 50.7727 16.1052 51.0168 15.2319Z" fill="#919CA7"/>
<path d="M52.573 17.8008C52.2218 17.8738 52.1621 17.8643 51.8053 17.8151L51.5864 17.4971C51.477 16.7498 51.5655 15.5015 52.3609 15.1572L52.6128 15.3063C52.9388 15.9468 52.931 16.9352 52.9757 17.6757L52.9738 17.7593L52.573 17.8008Z" fill="#AAB1BC"/>
<path d="M58.9045 14.1289L60.6543 14.1586L60.7988 14.6199L60.4276 14.9554C60.5585 15.7399 60.7748 16.7891 60.7328 17.56L60.5211 17.8103L60.6876 18.1208C60.3125 18.3333 59.2971 18.2539 58.8114 18.2456C57.6805 18.2582 55.3535 18.2251 54.3373 18.419L53.2459 18.4206C52.6482 18.4034 52.459 18.3902 51.8716 18.2544L51.9184 18.0742L52.5729 17.801L52.9737 17.7595C53.662 17.4633 53.8856 17.8489 54.5278 17.8814L55.8214 17.7335C56.0979 17.6093 58.0352 17.5714 58.5123 17.5532C58.8067 16.3941 58.8617 15.3141 58.9045 14.1289Z" fill="#C5C9CE"/>
<path d="M52.9737 17.7597C53.662 17.4634 53.8856 17.849 54.5278 17.8815L55.8214 17.7336C57.2798 17.9255 59.0399 17.7333 60.5211 17.8104L60.6876 18.1209C60.3125 18.3334 59.2971 18.254 58.8114 18.2458C57.6805 18.2583 55.3535 18.2252 54.3373 18.4191L53.2459 18.4207C52.6482 18.4035 52.459 18.3903 51.8716 18.2545L51.9184 18.0743L52.5729 17.8012L52.9737 17.7597Z" fill="#171A1F"/>
<path d="M53.6012 14.0935L54.8816 13.9434L55.0054 14.1439C54.6827 15.1473 54.6066 16.785 54.5278 17.8811C53.8856 17.8486 53.662 17.463 52.9738 17.7592L52.9757 17.6756C53.2826 16.286 53.0347 15.4745 53.6012 14.0935Z" fill="#232E3C"/>
<path d="M63.0488 13.9307L64.5949 14.1615L65.4248 14.4867C65.701 14.6585 66.3345 15.0282 66.563 15.2103C66.8735 16.367 67.046 17.2546 67.2528 18.4359C66.6567 18.4677 66.4367 18.4089 66.0274 18.0344C65.6241 18.1993 65.3796 18.2863 64.9591 18.4001L65.1711 18.6108C63.8198 19.5059 65.0912 20.5143 64.4198 21.4986C63.9205 21.7032 63.5023 21.6528 62.9651 21.6396L59.5005 21.6611L59.431 21.4151C59.4954 20.3132 59.8421 19.2303 58.9789 18.4776L58.8115 18.2456C59.2971 18.2538 60.3125 18.3332 60.6876 18.1207L60.5212 17.8102L60.7328 17.5599C60.7748 16.789 60.5586 15.7398 60.4276 14.9553L60.7988 14.6198L60.6543 14.1585C61.4252 14.1964 62.2783 14.0423 63.0488 13.9307Z" fill="#414C5A"/>
<path d="M63.408 18.4072L64.9592 18.3999L65.1712 18.6106C63.8198 19.5057 65.0913 20.5141 64.4199 21.4984C63.9206 21.703 63.5024 21.6526 62.9652 21.6394L59.5006 21.6609L59.431 21.4149C59.4955 20.313 59.8422 19.2301 58.9789 18.4773L62.8138 18.4333L63.408 18.4072Z" fill="#F3F3F5"/>
<path d="M63.408 18.4072L64.9592 18.3999L65.1712 18.6106C63.8198 19.5057 65.0913 20.5141 64.4199 21.4984C63.9206 21.703 63.5024 21.6526 62.9652 21.6394L59.5006 21.6609L59.431 21.4149L62.8468 21.3503L62.8138 18.4333L63.408 18.4072Z" fill="#919CA7"/>
<path d="M65.4247 14.4868C65.701 14.6586 66.3345 15.0283 66.563 15.2105C66.8735 16.3671 67.046 17.2547 67.2528 18.436C66.6567 18.4678 66.4367 18.409 66.0274 18.0345L65.3846 17.7746L65.4247 14.4868Z" fill="#7E8B99"/>
<path d="M64.1215 16.4024C64.1156 15.7639 64.0605 14.8852 64.25 14.3004L64.5949 14.1616L65.4247 14.4868L65.3846 17.7745L64.335 17.7761C64.1851 17.3496 64.1636 16.8564 64.1215 16.4024Z" fill="#C5C9CE"/>
<path d="M63.0487 13.9307L64.5948 14.1615L64.2499 14.3003C64.0604 14.8851 64.1155 15.7638 64.1213 16.4023C64.026 15.9256 63.95 15.2337 63.8792 14.7354C62.6336 14.7626 61.6679 14.8298 60.4275 14.9553L60.7987 14.6198L60.6542 14.1585C61.425 14.1964 62.2781 14.0423 63.0487 13.9307Z" fill="#919CA7"/>
<path d="M64.335 17.776L65.3846 17.7744L66.0273 18.0344C65.6241 18.1993 65.3795 18.2863 64.9591 18.4001L63.4079 18.4074C62.9921 18.3486 62.8493 18.3441 62.4856 18.1422C62.8555 17.8961 63.8437 17.8344 64.335 17.776Z" fill="#232E3C"/>
<path d="M66.0273 18.0342C66.4365 18.4086 66.6566 18.4675 67.2527 18.4357L67.7435 18.6618C70.7598 19.4995 70.8373 20.0013 70.3098 23.1562C69.3143 22.5393 68.599 22.3764 67.4929 22.0923C66.019 21.9652 64.4172 21.8574 62.965 21.6394C63.5022 21.6526 63.9204 21.703 64.4197 21.4984C65.0911 20.5141 63.8196 19.5057 65.171 18.6106L64.959 18.3999C65.3794 18.2861 65.624 18.1991 66.0273 18.0342Z" fill="#505D6B"/>
<path d="M67.7435 18.6621C70.7599 19.4998 70.8374 20.0016 70.3098 23.1565C69.3143 22.5396 68.599 22.3768 67.4929 22.0926C67.4662 21.3286 67.1985 19.101 67.7435 18.6621Z" fill="#AAB1BC"/>
<path d="M61.0825 22.5937C63.2354 22.4767 65.7596 23.2117 67.3388 23.0487C66.7946 24.1788 67.5853 26.1834 66.6546 28.4137C65.1191 27.318 64.9065 28.1008 63.8614 26.2427C63.4661 25.1845 63.2592 23.9317 63.0368 22.8152C62.373 22.7639 61.7426 22.6801 61.0825 22.5937Z" fill="#505D6B"/>
<path d="M48.3739 19.1154C48.8004 18.7451 49.9073 18.7016 50.4517 18.6597C52.0563 19.9314 50.7072 20.6317 51.4596 21.6688C51.7603 21.8796 52.2078 21.8122 52.5889 21.7998C51.8674 21.9294 49.6471 22.3603 48.9859 22.3277C48.5932 22.4254 47.2523 23.0348 47.2824 23.0313C46.8841 21.4829 46.7683 19.8777 48.3739 19.1154Z" fill="#505D6B"/>
<path d="M48.3739 19.1152C49.0182 19.668 49.051 21.4812 48.9859 22.3276C48.5932 22.4252 47.2523 23.0347 47.2824 23.0312C46.8841 21.4827 46.7683 19.8775 48.3739 19.1152Z" fill="#AAB1BC"/>
<path d="M48.8675 23.3579C49.9261 23.1178 50.8142 22.9653 51.8861 22.7993C51.87 23.3915 51.9593 24.2705 51.6493 24.6756L51.1495 24.9444L51.4322 25.2133C50.3196 25.337 49.5405 26.322 48.2385 26.6631C48.1643 26.5388 48.0302 26.0915 47.9789 25.9333C48.1592 25.2357 48.2265 25.1223 48.031 24.4988C48.2568 23.9014 48.4065 23.7853 48.8675 23.3579Z" fill="#414C5A"/>
<path d="M48.8675 23.3579C49.6244 24.0324 49.449 24.0452 49.121 25.0253L49.3161 25.2066C49.8271 25.1188 50.7655 24.8275 51.1495 24.9444L51.4322 25.2132C50.3196 25.337 49.5405 26.322 48.2385 26.6631C48.1643 26.5388 48.0302 26.0915 47.9789 25.9332C48.1592 25.2357 48.2265 25.1223 48.031 24.4988C48.2568 23.9014 48.4065 23.7853 48.8675 23.3579Z" fill="#7E8B99"/>
<path d="M56.2633 22.5364C57.4814 22.431 58.7866 22.5129 60.0142 22.5572L59.9987 23.0117C59.0898 23.0618 58.4801 23.1308 57.5788 22.9221C57.2954 22.5268 56.7335 22.5884 56.2633 22.5364Z" fill="#AAB1BC"/>
<path d="M20.5759 36.2463C20.8369 36.0075 21.6496 35.0251 21.9769 34.6793C23.1298 33.452 24.3436 32.2831 25.6138 31.1774C31.7914 25.8243 38.3945 25.3667 46.0686 26.1937C46.6128 26.2523 47.5545 26.3005 47.9789 25.933C48.0302 26.0913 48.1643 26.5386 48.2385 26.6629C47.6813 27.0452 47.2581 27.1374 47.1436 27.6186L47.2261 27.8223C45.7484 27.7892 44.8286 27.6181 43.6172 28.5319C37.0222 27.83 31.0193 29.3561 26.1141 33.9946C24.3837 35.6309 24.0063 36.766 23.1511 38.8342C21.5345 41.5856 21.1431 43.2385 20.7296 46.4332C20.6698 46.8957 20.5 48.049 20.5345 48.4647L20.0982 48.6751C21.2883 49.0029 23.6783 48.7309 24.8401 48.9511C23.9867 48.9953 22.8346 48.9727 21.9599 48.9786L20.4846 48.9573C19.7418 49.0368 19.553 49.1535 18.9932 49.7221L18.6617 49.6132C18.3004 50.7616 17.501 50.092 16.365 50.3846C16.113 50.3979 15.6527 50.3698 15.383 50.3623L15.853 49.4628C15.7876 47.8062 16.9266 43.7063 17.5464 42.141C18.1145 40.6754 19.3447 36.9926 20.5759 36.2463Z" fill="#505D6B"/>
<path d="M20.576 36.2463C21.0194 36.1884 21.2835 36.138 21.7167 36.0269C21.6721 36.0637 21.0007 36.6166 21.0025 36.6115C20.545 37.9929 19.4624 41.7107 18.0591 42.2601L17.5465 42.141C18.1146 40.6754 19.3448 36.9925 20.576 36.2463Z" fill="#5C6979"/>
<path d="M15.853 49.4629C16.728 49.205 17.4705 49.1986 18.3864 49.0981C18.5507 49.3037 18.6 49.3505 18.6617 49.6133C18.3004 50.7617 17.501 50.0921 16.365 50.3847C16.113 50.3981 15.6527 50.3699 15.383 50.3624L15.853 49.4629Z" fill="#919CA7"/>
<path d="M31.8151 36.5046C32.0633 36.2203 32.3284 35.9513 32.6091 35.6989C37.3186 31.54 43.6356 33.0385 49.5375 33.4267C49.8499 33.7315 53.3557 33.8248 53.8409 35.1128L53.385 35.3043C55.2411 36.4744 58.7633 37.0742 60.8837 36.5423C62.9189 36.0317 63.6742 35.2082 65.0142 33.7825C64.5122 37.2542 62.3206 38.4915 58.9655 38.0579C56.1881 37.699 54.1439 35.562 51.299 35.7929C45.8914 35.1174 43.595 33.9822 37.8961 35.202C36.8573 35.4243 32.3664 36.4894 31.8151 36.5046Z" fill="#AAB1BC"/>
<path d="M60.0142 22.5571L61.0824 22.5935C61.7425 22.6799 62.373 22.7637 63.0367 22.815C63.2592 23.9315 63.466 25.1843 63.8613 26.2425C64.0009 27.6064 64.6084 29.989 65.2847 31.1874C65.257 32.2749 65.1996 32.7239 65.0142 33.7826C63.6742 35.2083 62.9189 36.0318 60.8837 36.5424C58.7633 37.0743 55.2411 36.4745 53.385 35.3044L53.8409 35.1129C53.3557 33.8249 49.8499 33.7316 49.5375 33.4268C49.84 33.3775 51.4686 33.4581 51.698 33.5629C54.4309 34.8129 57.4842 36.4594 60.5673 35.1815C63.1194 34.1237 64.5363 31.8513 63.4616 29.2074C62.2002 28.3469 60.6322 27.9551 59.7009 27.2832C59.9154 26.014 59.9489 24.3029 59.9987 23.0116L60.0142 22.5571Z" fill="#C5C9CE"/>
<path d="M48.2385 26.6627C49.5405 26.3217 50.3196 25.3366 51.4322 25.2129C51.6149 25.2876 52.166 25.5252 52.3237 25.5589L52.4919 25.7006C53.1703 26.0471 54.6465 26.7575 55.2343 27.1361C54.6249 27.98 54.1071 28.2816 53.0344 28.4594C52.1886 28.1239 51.4341 28.4852 50.4321 27.9503C49.5319 27.97 48.1572 27.8669 47.2261 27.8221L47.1437 27.6184C47.2581 27.1372 47.6814 27.045 48.2385 26.6627Z" fill="#414C5A"/>
<path d="M52.4918 25.7007C53.1702 26.0472 54.6465 26.7576 55.2343 27.1362C54.6248 27.9801 54.107 28.2817 53.0343 28.4595C52.1885 28.124 51.4341 28.4853 50.4321 27.9504C51.7104 27.5721 52.1545 26.9489 52.4918 25.7007Z" fill="#6A7684"/>
<path d="M43.6172 28.5319C44.8287 27.618 45.7484 27.7891 47.2261 27.8222C48.1572 27.867 49.5319 27.9701 50.4321 27.9504C51.4342 28.4853 52.1886 28.124 53.0344 28.4595C51.9765 28.7712 50.3039 29.2177 49.3547 29.6529C47.5135 29.402 45.4531 28.9192 43.6172 28.5319Z" fill="#7E8B99"/>
<path d="M57.5789 22.9224C58.4802 23.131 59.0898 23.062 59.9988 23.0119C59.949 24.3032 59.9154 26.0143 59.7009 27.2835C59.1229 26.9067 58.2164 26.8498 57.3738 26.2408C57.2878 26.0747 57.5763 23.4861 57.5789 22.9224Z" fill="#7E8B99"/>
<path d="M55.2344 27.1362C55.7211 27.5117 56.3571 27.917 56.574 28.4702C56.4861 30.243 51.7172 29.8997 50.3792 29.7785C50.0366 29.7467 49.695 29.7047 49.3547 29.6529C50.3039 29.2177 51.9766 28.7712 53.0345 28.4595C54.1072 28.2817 54.625 27.9801 55.2344 27.1362Z" fill="#AAB1BC"/>
<path d="M51.8861 22.7993C53.1023 22.5967 53.5161 22.5431 54.7528 22.5891C54.232 22.6546 53.7112 22.6484 53.3686 23.0302C53.2141 23.6864 53.8238 24.2464 53.039 25.1046L52.4743 25.1996L52.3237 25.5592C52.166 25.5255 51.615 25.288 51.4323 25.2132L51.1495 24.9443L51.6493 24.6756C51.9593 24.2705 51.87 23.3914 51.8861 22.7993Z" fill="#919CA7"/>
<path d="M67.3387 23.0488C68.5511 23.4928 68.7545 23.7614 69.4777 24.8428C69.5194 25.7511 69.4762 27.0173 70.1047 27.6814C70.8886 27.8497 71.5216 27.2306 72.1686 26.7965C73.7967 25.7045 77.0668 26.2841 78.8454 26.968C79.5617 27.3933 80.4267 27.8913 80.9722 28.5237C82.5045 30.6093 83.2075 31.3676 83.7963 33.9115C84.6467 38.7196 84.4702 42.5599 82.1857 46.8699C80.596 49.7739 78.0117 51.8941 74.54 51.6691C73.5009 51.739 72.3515 51.3809 71.3806 51.0372C69.9656 50.394 69.187 49.1323 68.1509 49.0401C68.2044 48.7049 68.8105 48.1979 69.0852 47.9281C66.622 46.2483 71.1012 40.2787 66.1072 42.4607C65.2046 43.2909 64.3749 43.6814 63.2478 44.1576C63.6186 43.0567 64.9882 42.0355 65.345 40.9033C66.3656 37.6641 66.6444 34.2915 65.2847 31.1878C64.6084 29.9893 64.0008 27.6067 63.8613 26.2429C64.9064 28.1009 65.119 27.3181 66.6545 28.4138C67.5852 26.1836 66.7945 24.1789 67.3387 23.0488Z" fill="#919CA7"/>
<path d="M81.1075 33.2075L81.4931 32.833L81.7961 34.1881C82.4204 34.1889 83.1939 34.4509 83.7017 34.248L83.7962 33.9114C84.6466 38.7196 84.4701 42.5598 82.1856 46.8698C80.5959 49.7738 78.0117 51.8941 74.5399 51.6691C73.5008 51.7389 72.3514 51.3808 71.3806 51.0372C69.9656 50.394 69.1869 49.1322 68.1508 49.04C68.2043 48.7048 68.8104 48.1979 69.0851 47.928L69.3714 47.615L69.8313 47.3166C70.3648 47.7301 70.4488 47.7015 71.1229 47.4687L71.248 47.755C71.5411 47.7482 71.9106 47.7065 72.16 47.8377C72.3175 47.099 73.0357 46.6501 73.6456 46.1509C73.4477 46.102 73.3802 45.9577 73.2201 45.777C73.6001 45.3656 73.9274 44.7847 74.2266 44.3004C74.5625 43.4627 74.8295 42.8384 75.0299 41.9473C75.2784 39.2567 75.4823 38.9616 75.4229 35.8927L75.5113 36.073C75.9764 37.6876 79.1934 37.1503 79.9087 35.8843C80.8897 34.3544 79.5772 34.0092 80.8778 33.4322L81.1075 33.2075Z" fill="#838D99"/>
<path d="M75.0299 41.9473C75.507 42.309 78.5697 42.7581 79.13 42.6027L79.2514 43.4731L79.0357 43.8702C79.1609 43.9753 79.5527 44.2844 79.6138 44.3992L79.8883 44.864C79.996 45.6094 80.0772 46.041 80.0173 46.7895C80.5705 47.3458 80.4903 46.6651 80.9681 47.2736C81.33 47.113 81.8001 46.9863 82.1856 46.8698C80.5959 49.7738 78.0117 51.894 74.5399 51.669C73.5008 51.7388 72.3514 51.3807 71.3806 51.0371C69.9656 50.3939 69.1869 49.1322 68.1508 49.0399C68.2043 48.7047 68.8104 48.1978 69.0851 47.928L69.3714 47.6149L69.8313 47.3166C70.3648 47.73 70.4488 47.7014 71.1229 47.4686L71.248 47.755C71.5411 47.7481 71.9106 47.7065 72.16 47.8377C72.3175 47.0989 73.0357 46.65 73.6456 46.1509C73.4477 46.1019 73.3802 45.9577 73.2201 45.7769C73.6001 45.3655 73.9274 44.7847 74.2266 44.3003C74.5625 43.4626 74.8295 42.8384 75.0299 41.9473Z" fill="#5C6979"/>
<path d="M75.03 41.9473C75.5071 42.309 78.5699 42.7581 79.1301 42.6027L79.2516 43.4731L79.0358 43.8702C78.675 44.8142 78.4911 45.0895 77.9214 45.9268C77.684 46.182 77.2301 46.5869 77.1966 46.9017C77.149 46.9253 77.1009 46.9475 77.0521 46.9685C76.1646 47.3473 74.5814 46.5336 73.6457 46.1509C73.4478 46.1019 73.3803 45.9577 73.2202 45.7769C73.6002 45.3655 73.9275 44.7847 74.2267 44.3003C74.5626 43.4626 74.8297 42.8384 75.03 41.9473Z" fill="#E0E1E3"/>
<path d="M74.2267 44.3003C74.988 45.4595 76.4574 45.5533 77.9214 45.9268C77.684 46.182 77.2301 46.5869 77.1966 46.9017C77.149 46.9252 77.1009 46.9475 77.0521 46.9685C76.1646 47.3473 74.5814 46.5336 73.6457 46.1509C73.4478 46.1019 73.3803 45.9577 73.2202 45.7769C73.6002 45.3655 73.9276 44.7846 74.2267 44.3003Z" fill="#C5C9CE"/>
<path d="M69.3714 47.6147L69.8313 47.3164C70.3648 47.7298 70.4488 47.7012 71.1229 47.4684L71.248 47.7548C71.5411 47.748 71.9106 47.7063 72.16 47.8375L72.6577 48.1107L72.4512 48.426C72.829 48.8967 73.6369 48.9469 74.1752 49.2557C73.1864 49.7148 72.0621 50.1722 71.3806 51.0369C69.9656 50.3937 69.1869 49.132 68.1508 49.0398C68.2043 48.7046 68.8104 48.1976 69.0851 47.9278L69.3714 47.6147Z" fill="#343D49"/>
<path d="M79.0358 43.8701C79.1611 43.9752 79.5528 44.2843 79.6139 44.3991L79.8884 44.8639C79.9962 45.6094 80.0773 46.0409 80.0175 46.7894C80.5706 47.3458 80.4904 46.665 80.9683 47.2736C80.1575 47.978 79.5637 48.5496 78.8126 49.317C78.373 48.7473 77.5793 47.7931 77.2652 47.2337L77.3896 47.0896L77.1966 46.9017C77.2302 46.5868 77.684 46.182 77.9214 45.9268C78.4911 45.0894 78.6751 44.8142 79.0358 43.8701Z" fill="#C5C9CE"/>
<path d="M77.6501 46.867C78.2065 47.3033 79.4734 47.2125 80.0175 46.7896C80.5706 47.3459 80.4904 46.6652 80.9683 47.2737C80.1575 47.9782 79.5637 48.5498 78.8126 49.3172C78.3731 48.7474 77.5793 47.7932 77.2652 47.2338L77.3896 47.0898L77.6501 46.867Z" fill="#AAB1BC"/>
<path d="M79.0358 43.8701C79.1611 43.9752 79.5528 44.2843 79.6139 44.3991C78.9943 44.9577 78.2273 46.1591 77.6501 46.8668L77.3896 47.0896L77.1966 46.9017C77.2302 46.5868 77.684 46.182 77.9214 45.9268C78.4911 45.0894 78.6751 44.8142 79.0358 43.8701Z" fill="#5C6979"/>
<path d="M73.6457 46.1509C74.5814 46.5336 76.1645 47.3473 77.052 46.9685C77.1009 46.9475 77.1489 46.9253 77.1965 46.9017L77.3895 47.0897L77.2651 47.2337C77.1083 47.3675 76.6679 47.7683 76.5091 47.8237C75.7202 48.4859 75.0782 48.7862 74.1753 49.2559C73.6369 48.9471 72.829 48.8968 72.4512 48.4262L72.6578 48.1108L72.16 47.8377C72.3176 47.0989 73.0357 46.65 73.6457 46.1509Z" fill="#505D6B"/>
<path d="M72.6579 48.1106C74.8025 48.4081 74.9928 47.8118 76.5092 47.8234C75.7204 48.4857 75.0783 48.7859 74.1754 49.2556C73.637 48.9468 72.8291 48.8966 72.4514 48.4259L72.6579 48.1106Z" fill="#232E3C"/>
<path d="M80.9683 47.2735C81.3302 47.1129 81.8002 46.9862 82.1858 46.8696C80.5961 49.7736 78.0118 51.8939 74.5401 51.6689C76.0448 51.4162 77.779 50.417 78.8126 49.317C79.5636 48.5496 80.1575 47.9779 80.9683 47.2735Z" fill="#232E3C"/>
<path d="M75.423 35.8922L75.5113 36.0725C75.9765 37.6871 79.1934 37.1498 79.9087 35.8838L79.8589 37.5927C79.8545 39.7754 80.0332 41.4312 79.2515 43.4727L79.1301 42.6023C78.5698 42.7577 75.507 42.3086 75.03 41.9469C75.2785 39.2562 75.4824 38.9611 75.423 35.8922Z" fill="#414C5A"/>
<path d="M75.423 35.8922L75.5113 36.0725C75.9765 37.6871 79.1934 37.1498 79.9087 35.8838L79.8589 37.5927C78.5483 38.1433 77.7395 38.1796 76.3309 38.2438C74.6772 42.7542 77.0425 41.0187 78.9945 42.1921C79.0725 42.3554 79.1524 42.4476 79.1301 42.6023C78.5698 42.7577 75.507 42.3086 75.03 41.9469C75.2785 39.2562 75.4824 38.9611 75.423 35.8922Z" fill="#505D6B"/>
<path d="M81.1077 33.2075L81.4933 32.833L81.7963 34.1881C82.4243 38.6262 82.0548 41.5757 80.8268 45.9366L79.8884 44.8641L79.6139 44.3993C79.5528 44.2845 79.1611 43.9754 79.0358 43.8703L79.2516 43.4732C80.0333 41.4317 79.8545 39.7759 79.859 37.5932L79.9088 35.8843C80.8899 34.3544 79.5773 34.0092 80.8779 33.4322L81.1077 33.2075Z" fill="#3A444E"/>
<path d="M67.3388 23.0488C68.5512 23.4928 68.7546 23.7614 69.4778 24.8428C69.5195 25.7511 69.4762 27.0173 70.1048 27.6814C70.8887 27.8497 71.5217 27.2306 72.1687 26.7965C73.7968 25.7045 77.0669 26.2841 78.8455 26.968C79.5617 27.3933 80.4268 27.8913 80.9723 28.5237C82.5045 30.6093 83.2076 31.3676 83.7964 33.9115L83.7018 34.2481C83.194 34.451 82.4205 34.189 81.7962 34.1882L81.4933 32.8331L81.1077 33.2075L80.8779 33.4322C79.5773 34.0093 80.8898 34.3545 79.9088 35.8843C79.1935 37.1504 75.9765 37.6877 75.5114 36.0731L75.4231 35.8928C75.1381 33.8495 74.3095 32.2622 72.7678 30.9001C72.5855 30.8254 71.9731 30.2852 71.4655 30.0435C71.4237 30.4113 71.7007 30.8168 71.8834 31.1577C70.6183 30.3843 68.7993 27.5903 67.1104 27.8729L66.9561 28.2863L66.6545 28.4138C67.5853 26.1836 66.7946 24.1789 67.3388 23.0488Z" fill="#6A7684"/>
<path d="M72.7678 30.8997C73.6899 30.5224 75.9408 30.4478 76.9123 30.8587C78.2846 31.4392 79.7111 33.5463 79.04 35.0139C78.8343 35.4542 78.4602 35.7933 78.0015 35.955C77.4605 36.1512 76.0533 36.2488 75.5113 36.0726L75.423 35.8923C75.138 33.849 74.3094 32.2618 72.7678 30.8997Z" fill="#E0E1E3"/>
<path d="M80.9723 28.5234C82.5045 30.609 83.2076 31.3673 83.7963 33.9112L83.7018 34.2478C83.194 34.4507 82.4205 34.1887 81.7962 34.1879L81.4932 32.8328L81.1077 33.2073C80.9568 32.1886 80.4931 31.2074 80.0226 30.3015L80.0378 29.9556C79.8305 29.7351 79.887 29.8442 79.8345 29.5339C80.207 29.1895 80.5862 28.8526 80.9723 28.5234Z" fill="#E0E1E3"/>
<path d="M80.0379 29.9556C80.8128 30.9594 81.1185 31.618 81.4933 32.8327L81.1077 33.2072C80.9568 32.1886 80.4931 31.2073 80.0226 30.3014L80.0379 29.9556Z" fill="#6A7684"/>
<path d="M79.4409 29.7979C79.6052 29.9305 79.8972 30.148 80.0226 30.3016C80.4932 31.2075 80.9569 32.1887 81.1077 33.2074L80.878 33.432C79.2677 33.4235 78.3026 32.0431 78.424 30.5144C78.754 30.0166 78.8535 30.079 79.4409 29.7979Z" fill="#E0E1E3"/>
<path d="M78.8455 26.9678C79.5617 27.3931 80.4268 27.8911 80.9723 28.5235C80.5862 28.8527 80.207 29.1896 79.8345 29.534C79.887 29.8443 79.8305 29.7352 80.0379 29.9557L80.0226 30.3016C79.8972 30.148 79.6052 29.9305 79.4408 29.7978C79.4731 28.8835 77.8769 28.282 77.7601 27.316C78.1756 26.966 78.2519 27.0503 78.8455 26.9678Z" fill="#919CA7"/>
<path d="M73.2131 28.5803C74.0447 28.5529 75.6689 29.3424 76.2943 29.8842C75.228 29.8718 73.7829 29.5235 73.2131 28.5803Z" fill="#505D6B"/>
<path d="M63.8613 26.2427C64.9064 28.1007 65.119 27.3179 66.6545 28.4136L66.956 28.2861L67.1104 27.8727C68.7992 27.5901 70.6182 30.3841 71.8833 31.1575C72.5485 31.8515 73.083 32.4091 73.4078 33.3357L73.5669 33.7868C73.4999 34.4138 73.4584 34.9838 73.2833 35.5911C72.8255 36.0986 72.3247 36.4739 71.7921 36.8989C71.1281 36.4057 70.39 35.6221 69.7917 35.0247L70.0153 36.3653C69.5223 36.2403 68.8517 35.9926 68.4097 36.1707C68.1353 36.7437 68.2851 37.1322 68.1907 37.7711C67.913 39.6487 67.1828 40.9416 66.1072 42.4605C65.2046 43.2907 64.3749 43.6812 63.2478 44.1574C63.6186 43.0565 64.9882 42.0353 65.345 40.9031C66.3656 37.6639 66.6444 34.2913 65.2847 31.1876C64.6084 29.9891 64.0008 27.6065 63.8613 26.2427Z" fill="#7E8B99"/>
<path d="M69.2949 33.7329L69.3021 33.5371C69.3371 32.6184 69.2284 31.9855 69.8748 31.3862C70.3402 31.2628 70.6435 31.4825 71.0711 31.7034C71.7627 32.5535 72.3381 33.0311 73.4078 33.3356L73.5669 33.7868C73.4999 34.4137 73.4584 34.9838 73.2834 35.5911C72.8255 36.0986 72.3248 36.4739 71.7921 36.8989C71.1281 36.4057 70.3901 35.6221 69.7917 35.0247L69.2949 33.7329Z" fill="#E0E1E3"/>
<path d="M69.295 33.7328C68.9368 32.5714 67.8741 31.3699 68.5997 30.0921C69.735 29.5261 70.6131 30.8842 71.0712 31.7033C70.6436 31.4824 70.3403 31.2627 69.8749 31.3861C69.2285 31.9854 69.3372 32.6183 69.3021 33.537L69.295 33.7328Z" fill="#AAB1BC"/>
<path d="M71.8832 31.1576C71.7006 30.8167 71.4235 30.4112 71.4654 30.0435C71.973 30.2852 72.5853 30.8253 72.7677 30.9C74.3093 32.2621 75.1379 33.8494 75.4229 35.8927C75.4823 38.9616 75.2785 39.2567 75.0299 41.9473C74.8295 42.8384 74.5625 43.4627 74.2266 44.3003C73.9274 44.7847 73.6001 45.3656 73.2201 45.7769C73.3802 45.9577 73.4477 46.1019 73.6456 46.1509C73.0357 46.65 72.3175 47.0989 72.16 47.8377C71.9106 47.7065 71.5411 47.7482 71.248 47.755L71.1229 47.4686C70.4489 47.7014 70.3648 47.73 69.8313 47.3166L71.2003 45.9811L71.8712 45.2477C72.7441 44.2787 73.1106 43.3623 73.6001 42.1887C74.6656 40.7727 74.5407 36.1794 73.9072 34.5611L73.5668 33.7869L73.4077 33.3358C73.0829 32.4092 72.5484 31.8516 71.8832 31.1576Z" fill="#0C1014"/>
<path d="M71.123 47.4686C71.7496 47.1218 72.621 46.2814 73.2202 45.7769C73.3802 45.9577 73.4477 46.1019 73.6457 46.1508C73.0357 46.65 72.3176 47.0989 72.16 47.8376C71.9107 47.7064 71.5412 47.7481 71.2481 47.7549L71.123 47.4686Z" fill="#6A7684"/>
<path d="M66.1072 42.4605C67.1828 40.9416 67.913 39.6487 68.1907 37.7711C68.2851 37.1322 68.1354 36.7438 68.4097 36.1707C68.8518 35.9926 69.5223 36.2403 70.0153 36.3653L70.1671 37.006C70.2211 37.5886 70.3299 38.6562 70.2488 39.204C69.9671 41.107 68.0119 45.991 69.3715 47.6148L69.0852 47.9279C66.622 46.2482 71.1012 40.2786 66.1072 42.4605Z" fill="#6A7684"/>
<path d="M71.2003 45.9808C70.6359 46.0101 70.0695 46.1308 69.8545 45.4594C69.4577 44.2207 70.3208 42.3434 71.4933 41.8014C71.846 41.6382 72.0983 41.7945 72.4054 41.9419C72.6053 42.4261 72.0217 44.5103 71.8712 45.2475L71.2003 45.9808Z" fill="#C5C9CE"/>
<path d="M73.9073 34.561C74.5408 36.1793 74.6657 40.7726 73.6002 42.1886C72.6998 40.4082 72.9575 38.1455 73.4848 36.2935C73.6947 35.5563 73.9178 35.352 73.9073 34.561Z" fill="#4E5B64"/>
<path d="M69.7918 35.0244C70.3901 35.6218 71.1282 36.4054 71.7922 36.8987C72.3248 36.4736 72.8256 36.0984 73.2834 35.5908C72.973 36.8982 72.4922 37.4512 71.5268 38.3943C70.925 37.9167 70.5373 37.6851 70.1672 37.0057L70.0154 36.365L69.7918 35.0244Z" fill="#AAB1BC"/>
<path d="M66.1073 42.4605C71.1012 40.2785 66.6221 46.2481 69.0852 47.9279C68.8106 48.1977 68.2044 48.7047 68.151 49.0399C67.8604 49.2437 67.4939 49.5177 67.1967 49.6952C65.3824 50.6944 61.8895 52.3802 59.774 52.1345C55.9694 52.4953 53.2772 51.8205 49.9185 50.0289C46.2801 48.4266 43.0667 42.6198 38.6561 47.4056C38.653 46.7581 38.9382 45.7359 39.0956 45.0735C38.737 44.5642 38.4275 44.2907 37.9802 43.8641C40.6934 41.2531 43.6313 42.252 47.3409 42.2813C48.0032 42.342 48.6332 42.3867 49.2845 42.5255C50.4778 43.0514 51.2296 44.2505 52.3037 44.9764C55.1066 46.8574 56.9578 46.6886 60.2339 46.7916C60.3514 46.5157 60.4908 45.9481 60.577 45.6382C61.3681 45.029 62.3464 44.597 63.2479 44.1574C64.375 43.6812 65.2047 43.2907 66.1073 42.4605Z" fill="#232E3C"/>
<path d="M66.1072 42.4605C71.1012 40.2785 66.622 46.2481 69.0852 47.9279C68.8105 48.1977 68.2044 48.7047 68.1509 49.0399C67.8604 49.2437 67.4939 49.5177 67.1966 49.6952C66.9715 49.4644 66.2565 48.9294 65.9699 48.705C66.566 47.8595 68.1156 45.8748 67.4412 44.859C66.3563 44.492 64.0374 46.3133 62.6205 46.5816C61.4995 46.794 61.3978 46.7927 60.2339 46.7916C60.3513 46.5157 60.4907 45.9481 60.577 45.6382C61.368 45.029 62.3463 44.597 63.2478 44.1574C64.3749 43.6812 65.2046 43.2907 66.1072 42.4605Z" fill="#5C6979"/>
<path d="M49.9184 50.029C50.3698 49.5599 50.878 49.3559 51.5103 49.3742C52.9361 49.4155 57.5947 50.7545 58.6911 51.3213L58.8128 51.5692L58.4344 51.8296C59.0283 51.9044 59.2059 51.9401 59.774 52.1346C55.9693 52.4954 53.2772 51.8206 49.9184 50.029Z" fill="#505D6B"/>
<path d="M65.2848 31.1875C66.6446 34.2912 66.3658 37.6638 65.3451 40.903C64.9883 42.0352 63.6187 43.0564 63.2479 44.1574C62.3465 44.5969 61.3681 45.0289 60.5771 45.6381C60.3362 45.7196 60.0695 45.7565 59.8174 45.8014C59.9773 45.3356 63.1141 44.2369 63.627 43.0576C63.1918 42.9346 62.3508 43.6097 61.884 43.856C60.7448 44.4569 57.3771 44.5406 56.9788 42.9196C57.2882 42.6887 57.3868 42.624 57.6158 42.3167L57.5105 41.9293C56.944 41.6162 55.7881 42.0377 55.3546 42.542C55.4151 43.0165 56.3364 44.3521 56.6383 44.8511L56.5147 44.9384L56.1111 44.5336C55.2911 43.8785 54.4041 42.5903 54.8807 41.5357C55.2149 41.6631 55.2903 41.6855 55.6449 41.7283C56.0217 41.4397 56.436 40.4104 56.662 39.9296C54.8373 38.0722 53.2008 37.3924 51.4728 35.8805L51.299 35.7931C54.1439 35.5622 56.1881 37.6991 58.9656 38.058C62.3207 38.4917 64.5122 37.2544 65.0143 33.7827C65.1997 32.724 65.2571 32.275 65.2848 31.1875Z" fill="#919CA7"/>
<path d="M51.4726 35.8804C53.0528 36.0586 58.6705 39.2438 58.5937 40.9393C57.8563 41.9433 55.2214 41.4636 55.128 42.7067C55.1071 42.984 55.8797 44.1338 56.1109 44.5334C55.2909 43.8783 54.4039 42.5901 54.8805 41.5356C55.2147 41.6629 55.2901 41.6854 55.6447 41.7281C56.0215 41.4395 56.4359 40.4103 56.6618 39.9294C54.8371 38.072 53.2006 37.3922 51.4726 35.8804Z" fill="#7E8B99"/>
<path d="M20.5347 48.4645C20.5001 48.0488 20.6699 46.8955 20.7298 46.4329C21.1432 43.2383 21.5346 41.5853 23.1512 38.834C23.3374 39.4578 23.4065 39.724 23.4838 40.3586C23.6016 41.3265 23.1555 44.3148 24.014 44.8656C24.666 44.8099 26.1642 42.6558 26.9342 42.0753C26.4487 43.6697 26.2503 45.8278 25.9868 47.5244C26.4389 47.5988 27.7624 47.8446 28.1503 47.8443C28.9832 47.8739 30.0481 47.8543 30.8118 48.1336C30.8883 48.2568 30.9703 48.3514 30.9886 48.485C31.5719 48.4708 32.0558 48.4678 32.6451 48.5215C33.207 48.5937 33.5268 48.6408 34.0781 48.7866C34.6029 48.997 34.8548 49.097 35.4133 49.2221C35.9878 49.2592 36.1448 49.242 36.6308 49.717C37.2788 49.9994 37.373 49.8132 37.7374 49.3253L37.9443 49.243L38.1064 50.4093C37.0051 50.4394 36.6421 50.2101 35.6659 49.6928C35.3457 49.7133 34.5601 49.5723 34.2087 49.5197C33.3879 48.5526 28.6715 48.7887 27.366 48.956L24.8402 48.9509C23.6784 48.7306 21.2885 49.0027 20.0983 48.6748L20.5347 48.4645Z" fill="#E0E1E3"/>
<path d="M30.9886 48.4852C31.5719 48.471 32.0558 48.468 32.6451 48.5218C33.207 48.5939 33.5268 48.641 34.0781 48.7868C34.6029 48.9972 34.8548 49.0972 35.4133 49.2223C35.9878 49.2594 36.1448 49.2422 36.6308 49.7172C37.2788 49.9996 37.373 49.8134 37.7374 49.3255L37.9443 49.2432L38.1064 50.4095C37.0051 50.4396 36.6421 50.2103 35.6659 49.693C35.3457 49.7135 34.5601 49.5725 34.2087 49.5199C33.3879 48.5528 28.6715 48.7889 27.366 48.9562L24.8402 48.9511C23.6784 48.7308 21.2885 49.0029 20.0983 48.675L20.5347 48.4647C24.0344 48.4306 27.5028 48.5044 30.9886 48.4852Z" fill="#343D49"/>
<path d="M36.4405 43.5235C38.2745 41.997 41.3263 39.1296 43.441 41.7658C43.6537 42.0309 45.1102 41.9018 45.4913 41.8848C45.2838 41.4529 45.2536 41.377 45.2286 40.9021C45.4328 41.1121 45.6584 41.7253 45.7861 42.0244C46.3051 42.1048 46.8236 42.1904 47.3409 42.2813C43.6313 42.2521 40.6934 41.2532 37.9802 43.8641C38.4276 44.2907 38.7371 44.5642 39.0956 45.0736C38.9382 45.736 38.653 46.7581 38.6561 47.4056C38.3216 48.0757 38.0697 48.5056 37.9443 49.2433L37.7374 49.3257C37.373 49.8135 37.2788 49.9997 36.6308 49.7173C36.1448 49.2423 35.9878 49.2595 35.4133 49.2225C34.8665 47.8025 35.2736 46.459 35.5907 45.0139C36.0021 44.4585 36.2427 44.1874 36.4405 43.5235Z" fill="#505D6B"/>
<path d="M36.6307 49.7174C36.6887 48.8909 36.6872 47.2654 37.5246 46.8301L37.7593 47.0564C37.9867 47.6754 37.8104 48.6369 37.7373 49.3258C37.3729 49.8136 37.2787 49.9998 36.6307 49.7174Z" fill="#919CA7"/>
<path d="M31.8035 46.2801C31.7909 44.9093 32.1837 43.4929 33.0161 42.3873C33.5454 41.6841 34.8108 41.2836 35.4982 41.8962C35.7471 42.7215 35.6228 44.1122 35.5907 45.0139C35.2735 46.459 34.8665 47.8025 35.4132 49.2225C34.8547 49.0973 34.6028 48.9973 34.078 48.787C33.5267 48.6411 33.2069 48.5941 32.645 48.5219L31.892 48.2945C31.596 47.9068 31.6947 47.696 31.688 47.1353L31.8035 46.2801Z" fill="#AAB1BC"/>
<path d="M31.8035 46.28L32.0717 46.3206L32.1035 46.2807C32.5623 45.7135 33.4604 44.9296 34.1553 45.4627C34.4632 46.1266 34.3873 47.6404 34.3405 48.3901L34.078 48.7869C33.5267 48.641 33.2069 48.594 32.645 48.5218L31.892 48.2944C31.596 47.9067 31.6947 47.6959 31.688 47.1352L31.8035 46.28Z" fill="#C5C9CE"/>
<path d="M31.3002 42.8628C32.1756 40.8777 36.1271 38.7849 37.5004 40.3825C37.8253 41.4768 36.9689 42.3064 36.4404 43.5235C36.2426 44.1873 36.002 44.4584 35.5907 45.0139C35.6228 44.1121 35.7471 42.7214 35.4982 41.8961C34.8108 41.2835 33.5454 41.684 33.0161 42.3872C32.1837 43.4928 31.791 44.9092 31.8035 46.2801L31.688 47.1352C31.7187 45.5133 31.3693 44.4875 31.3002 42.8628Z" fill="#7E8B99"/>
<path d="M26.9341 42.0755C27.7646 40.4358 28.7126 39.0319 30.3842 38.2251C29.1602 40.7052 27.6537 43.3581 27.9352 46.2136C27.9849 46.7188 27.9163 47.3944 28.1502 47.8446C27.7622 47.8449 26.4388 47.5991 25.9867 47.5247C26.2502 45.828 26.4486 43.6699 26.9341 42.0755Z" fill="#AAB1BC"/>
<path d="M49.2845 42.5254C50.1153 42.1456 50.7044 41.7697 51.5857 42.0828C52.3611 42.6523 52.2828 44.0662 52.3037 44.9762C51.2295 44.2503 50.4778 43.0512 49.2845 42.5254Z" fill="#505D6B"/>
<path d="M29.0858 58.6577L29.4061 59.7527L29.9242 62.0653C30.6174 63.2566 30.9627 65.5696 31.7232 66.9177C34.5504 71.9294 38.2192 76.59 36.5407 82.6979C35.3622 86.9866 32.2338 88.7637 28.3012 90.0001H24.5426C20.1724 88.4934 17.2923 86.0729 16.405 81.3407C15.2202 75.0229 19.4565 70.7055 22.0062 65.6038C22.8663 63.9062 23.4779 62.0938 23.8217 60.2224L24.0997 59.0263C25.0494 58.7743 26.6426 58.8228 27.6501 58.835L29.0858 58.6577Z" fill="#0167CA"/>
<path d="M27.831 61.1924L28.0269 62.0331C28.0188 63.5438 29.4228 68.7932 30.0838 70.186C32.9973 71.6298 34.7476 78.8438 32.4962 81.4208C30.9105 83.4125 26.6614 82.9506 25.027 81.3142C22.218 78.502 22.4301 73.5728 24.1121 70.2315C25.233 68.0046 25.5145 66.5728 27.2301 64.6746C27.2995 63.6675 27.1962 62.7726 27.3003 61.7224L27.3541 62.0757C27.4553 61.8435 27.7 61.4306 27.831 61.1924Z" fill="#09ACF1"/>
<path d="M27.831 61.1924L28.0269 62.0331C28.0188 63.5438 29.4228 68.7932 30.0838 70.186C30.7797 71.8806 33.9295 78.6773 30.341 78.7739C27.4994 77.6264 27.3452 65.185 27.3541 62.0757C27.4553 61.8435 27.7001 61.4306 27.831 61.1924Z" fill="#F3F3F5"/>
<path d="M29.0858 58.6577L29.4061 59.7527L29.9243 62.0653L29.5201 61.9286C29.423 61.4484 29.3336 61.009 29.2072 60.5339C28.6872 60.5393 28.87 60.5069 28.3896 60.7991C28.1333 61.2353 28.2127 61.5312 28.2688 62.0281L28.027 62.0334L27.8311 61.1927C27.8669 60.4841 27.6818 59.7156 27.5279 59.029L27.6501 58.835L29.0858 58.6577Z" fill="#004BB1"/>
<path d="M27.3004 61.7224C27.3109 60.9299 27.2606 59.737 27.5279 59.0288C27.6818 59.7154 27.8669 60.4839 27.8311 61.1925C27.7001 61.4307 27.4553 61.8436 27.3541 62.0758L27.3004 61.7224Z" fill="#E0E1E3"/>
<path d="M19.1813 82.1396L21.2201 84.1782C23.0369 83.6856 24.1791 85.1055 25.8955 85.2272C27.5167 85.342 28.8944 84.1141 28.9078 86.8187C29.3368 86.8092 29.4974 86.7654 29.9164 86.6622L29.9821 86.7707C28.9205 86.972 26.0021 87.7681 25.0828 87.0031C21.2938 86.7069 20.438 85.6632 19.1813 82.1396Z" fill="#09ACF1"/>
<path d="M19.1813 82.1396L21.2201 84.1782C21.965 84.8042 24.8895 86.546 25.0723 86.8494L25.0828 87.0031C21.2938 86.7069 20.438 85.6632 19.1813 82.1396Z" fill="#F3F3F5"/>
<path d="M20.5793 75.0039L20.7397 75.2101C20.7553 76.4027 20.7316 78.0577 19.9469 79.0038C19.3001 77.6053 19.5886 76.154 20.5793 75.0039Z" fill="#F3F3F5"/>
<path d="M27.366 48.9562C28.6715 48.7889 33.388 48.5528 34.2088 49.5199C34.5602 49.5725 35.3458 49.7136 35.666 49.693C36.6422 50.2103 37.0052 50.4396 38.1065 50.4095C40.5138 50.9683 39.5866 55.4225 39.6178 57.4092C39.0944 59.0039 36.1001 59.1246 34.6509 59.1753C33.9559 59.2561 29.8011 59.7854 29.4063 59.7525L29.0859 58.6576L27.6503 58.8349C26.6428 58.8226 25.0496 58.7741 24.0999 59.0262L23.8219 60.2222L23.7509 59.8627C23.4069 59.5037 20.7353 59.4288 19.8721 59.1938C18.3177 59.1602 15.9485 59.0559 14.5557 58.3343C14.029 58.0615 14.0344 57.8392 13.8997 57.357C13.9238 56.2099 13.7082 51.6681 14.496 50.8844C14.839 50.5498 14.9267 50.5121 15.3832 50.3623C15.6529 50.3698 16.1132 50.3979 16.3652 50.3846C17.5013 50.092 18.3006 50.7616 18.6619 49.6132L18.9934 49.7221C19.5532 49.1535 19.742 49.0368 20.4848 48.9573L21.9601 48.9786C22.8348 48.9727 23.9869 48.9953 24.8403 48.9511L27.366 48.9562Z" fill="#6A7684"/>
<path d="M20.4848 48.957L21.9601 48.9783C21.9096 50.3897 21.5989 54.0656 21.719 55.2074C22.2632 55.3357 22.5347 55.3329 23.0829 55.3456C24.6779 55.2446 26.2084 55.2187 27.8033 55.1914L27.8288 55.3458C28.2685 55.8339 28.1526 55.6744 28.2196 56.3825L28.327 56.7781L29.0859 58.6573L27.6503 58.8346C26.6428 58.8224 25.0496 58.7739 24.0999 59.0259L23.8219 60.222L23.7509 59.8625C23.4069 59.5034 20.7353 59.4285 19.8721 59.1935C18.3177 59.1599 15.9485 59.0556 14.5557 58.334C14.029 58.0612 14.0344 57.8389 13.8997 57.3568C13.9238 56.2097 13.7082 51.6678 14.496 50.8841C14.839 50.5495 14.9267 50.5118 15.3832 50.362C15.6529 50.3695 16.1132 50.3977 16.3652 50.3843C17.5013 50.0917 18.3006 50.7613 18.6619 49.6129L18.9934 49.7219C19.5532 49.1532 19.742 49.0365 20.4848 48.957Z" fill="#79828F"/>
<path d="M27.8032 55.1914L27.8286 55.3458C28.2683 55.834 28.1525 55.6745 28.2194 56.3826L28.3269 56.7782L29.0858 58.6574L27.6501 58.8347C26.6426 58.8224 25.0494 58.7739 24.0997 59.026L23.8217 60.222L23.7508 59.8625C23.4067 59.5035 20.7351 59.4286 19.872 59.1935C18.3176 59.16 15.9483 59.0557 14.5555 58.3341C14.0288 58.0612 14.0343 57.8389 13.8995 57.3568C15.0475 56.8135 16.5944 56.58 17.8413 56.3986L18.4197 56.2674L21.8918 55.5161C22.2381 55.4876 22.7266 55.3988 23.0827 55.3456C24.6777 55.2447 26.2082 55.2188 27.8032 55.1914Z" fill="#0C1014"/>
<path d="M24.7956 56.4523C25.3584 55.1905 27.3549 55.898 28.2196 56.383L28.327 56.7786L29.0859 58.6578L27.6502 58.8351C26.6428 58.8228 25.0495 58.7743 24.0999 59.0264L24.7956 56.4523Z" fill="#012266"/>
<path d="M13.8995 57.3571C15.0475 56.8138 16.5944 56.5804 17.8413 56.3989C17.4274 56.7092 17.2511 56.8219 16.9597 57.269C16.9871 58.4734 19.5634 58.2148 19.872 59.1939C18.3176 59.1603 15.9483 59.056 14.5555 58.3344C14.0288 58.0615 14.0343 57.8392 13.8995 57.3571Z" fill="#343D49"/>
<path d="M27.8032 55.1914L27.8286 55.3458C28.2683 55.834 28.1525 55.6745 28.2194 56.3826C27.3547 55.8976 25.3583 55.1901 24.7954 56.4519C22.9045 56.4838 20.2396 56.5648 18.4197 56.2674L21.8918 55.5161C22.2381 55.4876 22.7266 55.3988 23.0827 55.3456C24.6777 55.2447 26.2082 55.2188 27.8032 55.1914Z" fill="#232E3C"/>
<path d="M20.4847 48.957L21.96 48.9783C21.9095 50.3897 21.5987 54.0656 21.7189 55.2074C22.2631 55.3357 22.5346 55.3329 23.0828 55.3456C22.7266 55.3987 22.2381 55.4876 21.8918 55.5161C21.4372 55.4695 20.9889 55.4566 20.5329 55.4388C20.1635 55.4569 19.465 55.2688 19.3302 54.9417C18.7923 53.6373 18.7729 51.07 18.9933 49.7219C19.5531 49.1532 19.7418 49.0365 20.4847 48.957Z" fill="#C5C9CE"/>
<path d="M18.9933 49.7219C19.5531 49.1532 19.7418 49.0365 20.4847 48.957C20.2511 50.6139 19.745 52.8194 19.8071 54.5273C19.8208 54.9031 20.2304 55.2232 20.5329 55.4388C20.1635 55.4569 19.465 55.2688 19.3302 54.9417C18.7923 53.6373 18.7729 51.07 18.9933 49.7219Z" fill="#919CA7"/>
<path d="M15.383 50.3623C15.6527 50.3698 16.113 50.3979 16.365 50.3846C16.8321 50.3906 17.3774 50.4167 17.8332 50.3491C17.1107 51.6525 17.0313 54.3514 17.0722 55.8447C16.4473 56.0333 15.4571 55.9789 14.7773 55.9741C14.7972 54.9865 15.0589 51.4399 14.4958 50.8844C14.8388 50.5498 14.9265 50.5121 15.383 50.3623Z" fill="#505D6B"/>
<path d="M17.8333 50.3491C18.6375 50.9567 18.4917 54.446 17.9766 55.3316C17.6001 55.6195 17.5158 55.6881 17.0723 55.8447C17.0314 54.3514 17.1108 51.6525 17.8333 50.3491Z" fill="#6A7684"/>
<path d="M24.8402 48.9512L27.366 48.9563C27.7808 48.9819 28.6396 48.9588 28.8961 49.1738C28.8837 51.3904 28.8231 52.8366 29.3513 54.9769C29.0292 55.1973 28.2615 55.1656 27.8032 55.1917C26.2083 55.2191 24.6778 55.245 23.0828 55.3459C22.5346 55.3332 22.2631 55.3361 21.7189 55.2078C21.5988 54.0659 21.9095 50.3901 21.96 48.9787C22.8347 48.9728 23.9868 48.9954 24.8402 48.9512Z" fill="#F3F3F5"/>
<path d="M27.8287 55.3461C28.4453 55.3251 28.9046 55.2998 29.5195 55.3693C30.6927 55.5579 31.8719 55.707 33.0552 55.8161C33.6392 55.8298 34.4808 55.8754 35.0427 55.8495L35.8371 56.0475C36.6373 56.379 38.887 57.3811 39.6177 57.4092C39.0943 59.0039 36.1 59.1246 34.6508 59.1753C33.9558 59.2561 29.801 59.7855 29.4062 59.7526L29.0858 58.6576L28.3269 56.7784L28.2195 56.3828C28.1525 55.6747 28.2684 55.8342 27.8287 55.3461Z" fill="#0C1014"/>
<path d="M33.0552 55.8159C33.6392 55.8296 34.4809 55.8752 35.0427 55.8493L35.8371 56.0473C36.6374 56.3788 38.887 57.3809 39.6177 57.409C39.0944 59.0038 36.1 59.1245 34.6508 59.1752C35.5294 58.2547 36.6539 58.4437 36.2824 56.9126C35.5305 56.0901 34.499 56.6754 33.0552 55.8159Z" fill="#232E3C"/>
<path d="M27.8287 55.3461C28.4453 55.3251 28.9046 55.2998 29.5195 55.3693C30.6927 55.5579 31.8719 55.707 33.0552 55.8161C34.499 56.6755 35.5304 56.0902 36.2823 56.9128C34.4737 56.6913 29.9202 56.029 28.3269 56.7784L28.2195 56.3828C28.1525 55.6747 28.2684 55.8342 27.8287 55.3461Z" fill="#171A1F"/>
<path d="M35.6658 49.6929C36.642 50.2101 37.005 50.4394 38.1063 50.4094C40.5137 50.9681 39.5864 55.4223 39.6176 57.409C38.8869 57.3809 36.6373 56.3788 35.837 56.0473C36.0741 55.9959 36.1336 55.9197 36.3098 55.7582C36.6861 54.3166 35.9675 51.1486 35.6658 49.6929Z" fill="#6A7684"/>
<path d="M37.4314 50.7524L37.8984 50.8854C38.291 51.5985 38.2706 55.4084 37.9917 56.1488C37.2821 55.8354 37.3419 55.8373 37.302 55.026C37.2334 53.6316 37.2369 52.1325 37.4314 50.7524Z" fill="#343D49"/>
<path d="M34.2087 49.52C34.5601 49.5727 35.3457 49.7137 35.6659 49.6932C35.9676 51.1489 36.6862 54.3169 36.3099 55.7585C36.1337 55.92 36.0742 55.9962 35.8371 56.0476L35.0427 55.8496C34.5754 55.6488 34.4401 55.5971 34.0429 55.2789C33.4207 54.1778 33.6015 51.0166 33.5988 49.6474L34.2087 49.52Z" fill="#E0E1E3"/>
<path d="M27.3659 48.9562C28.6714 48.7889 33.3879 48.5528 34.2087 49.5199L33.5987 49.6472C32.7819 49.5275 31.3889 49.6263 30.5223 49.66C30.5716 50.4466 30.9387 54.9828 30.7439 55.2627C30.3262 55.3087 29.9411 55.3529 29.5194 55.3692C28.9046 55.2998 28.4453 55.325 27.8287 55.346L27.8032 55.1916C28.2615 55.1655 29.0292 55.1972 29.3512 54.9768C28.8231 52.8365 28.8837 51.3903 28.8961 49.1737C28.6396 48.9587 27.7808 48.9818 27.3659 48.9562Z" fill="#C5C9CE"/>
<path d="M55.7983 0H61.8903L62.1662 0.38665C62.7321 0.818777 63.1764 0.688724 63.5265 1.03776C63.677 1.4437 63.8859 1.91986 63.9081 2.34358C63.3702 2.86633 63.2418 3.0042 62.8629 3.64901C62.7322 4.01845 62.5126 4.54331 62.5095 4.91863C62.6045 5.12887 62.6828 5.39175 62.8685 5.49421C62.9824 5.6699 63.2709 6.08904 63.3266 6.26034C63.4843 6.84627 63.7424 7.02361 64.1854 7.42438C63.8212 8.2633 63.656 8.4836 63.0234 9.15313C62.815 9.30621 62.4514 9.59147 62.2348 9.69071C62.0784 10.9721 62.1524 12.4417 62.1836 13.7464L63.0488 13.9306C62.2782 14.0423 61.4251 14.1963 60.6543 14.1585L58.9045 14.1288C57.6049 14.1467 56.3051 14.1518 55.0054 14.1441L54.8816 13.9435L55.1113 13.7794C55.4248 12.8406 55.5626 10.682 55.3259 9.69801C54.8644 9.6182 54.7948 9.52564 54.4599 9.18483C53.2699 8.15106 53.7282 7.70979 53.184 7.18218L52.406 7.1876C49.5144 7.37598 47.095 7.49961 44.2533 8.24602C43.1857 8.5264 41.4675 8.78709 40.387 8.64068C39.2596 8.29903 38.6256 7.70844 38.0077 6.74415L37.8728 5.98732C37.5069 3.5255 37.7127 3.06609 39.4423 1.42784C40.6334 0.440725 41.3525 0.469208 42.8233 0.373231C43.291 0.654969 43.6678 0.880327 44.1077 1.20851C47.6135 2.24356 48.3813 2.29401 52.0147 2.72872C53.0245 2.73756 53.1429 2.67971 53.7799 1.89385C54.4016 1.12675 54.9505 0.518923 55.7983 0Z" fill="#414C5A"/>
<path d="M62.5095 4.91846C62.6045 5.1287 62.6828 5.39158 62.8685 5.49404C62.9824 5.66973 63.2709 6.08887 63.3266 6.26017C63.4843 6.8461 63.7424 7.02344 64.1855 7.42421C63.8212 8.26313 63.656 8.48343 63.0235 9.15296C62.815 9.30604 62.4514 9.5913 62.2348 9.69054C62.0784 10.9719 62.1524 12.4415 62.1836 13.7462L63.0488 13.9304C62.2783 14.0421 61.4252 14.1961 60.6544 14.1583L58.9046 14.1286C57.6049 14.1465 56.3052 14.1516 55.0054 14.1439L54.8816 13.9434L55.1114 13.7792C55.4249 12.8404 55.5627 10.6819 55.3259 9.69784C54.8644 9.61803 54.7949 9.52547 54.4599 9.18466C54.4917 9.15763 54.524 9.13111 54.5567 9.1051C55.314 8.51122 56.6833 7.38102 57.576 7.49278C58.917 7.55288 60.6432 7.49076 61.8903 6.98831C62.2659 6.55304 62.1618 6.58928 62.2075 5.94883L62.5095 4.91846Z" fill="#161E28"/>
<path d="M57.2344 9.07003L59.502 9.05957C59.5087 9.709 59.484 11.5943 59.5507 12.1523C59.6317 12.6403 59.7317 13.1513 59.7525 13.6435L60.5003 13.6368C60.9749 13.6661 61.7359 13.6886 62.1835 13.7464L63.0487 13.9306C62.2782 14.0423 61.4251 14.1963 60.6543 14.1585L58.9045 14.1288C57.6049 14.1467 56.3051 14.1518 55.0053 14.1441L54.8815 13.9435L55.1113 13.7794C55.4248 12.8406 55.5626 10.6821 55.3258 9.69803C55.7521 9.11257 56.5594 9.14245 57.2344 9.07003Z" fill="#5C6979"/>
<path d="M57.2344 9.07003L59.502 9.05957C59.5087 9.709 59.484 11.5943 59.5507 12.1523C59.5728 12.5795 59.6517 12.9973 59.3974 13.3308C58.8698 13.6669 57.5764 13.5377 56.8318 13.5406C57.1214 12.1508 57.1734 10.4944 57.2344 9.07003Z" fill="#E0E1E3"/>
<path d="M59.7525 13.6434L60.5003 13.6367C60.9749 13.666 61.7359 13.6885 62.1835 13.7463L63.0487 13.9305C62.2782 14.0422 61.4251 14.1962 60.6543 14.1584L58.9045 14.1287C57.6049 14.1466 56.3051 14.1517 55.0053 14.144L54.8815 13.9434L55.1113 13.7793C56.6374 13.8423 58.2015 13.6227 59.7525 13.6434Z" fill="#171A1F"/>
<path d="M60.6292 8.86963C61.2476 9.12543 61.6529 9.3583 62.2348 9.6906C62.0784 10.972 62.1524 12.4416 62.1836 13.7463C61.736 13.6884 60.975 13.666 60.5003 13.6367C60.4733 11.95 60.5369 10.5439 60.6292 8.86963Z" fill="#6A7684"/>
<path d="M62.8684 5.49414C62.9824 5.66983 63.2709 6.08897 63.3266 6.26027C63.4843 6.84619 63.7424 7.02354 64.1854 7.42431C63.8211 8.26323 63.656 8.48352 63.0234 9.15305C61.9245 8.06017 62.9968 7.61394 62.8684 5.49414Z" fill="#919CA7"/>
<path d="M59.9211 0.497095C60.7462 0.437166 61.3684 0.164211 62.1663 0.386691C62.7322 0.818818 63.1764 0.688765 63.5265 1.0378C63.6771 1.44374 63.886 1.9199 63.9081 2.34362C63.3703 2.86637 63.2418 3.00424 62.863 3.64905C62.7323 4.01849 62.5127 4.54336 62.5095 4.91867L62.2075 5.94904C62.1618 6.58949 62.2659 6.55325 61.8904 6.98852C60.6433 7.49097 58.917 7.55309 57.576 7.49299L57.5841 7.39128L55.7335 7.16038C55.6111 4.74074 55.588 2.91413 56.1061 0.556607C57.2412 0.438331 58.7487 0.487578 59.9211 0.497095Z" fill="#F3F3F5"/>
<path d="M59.9211 0.497095C60.7462 0.437166 61.3684 0.164211 62.1663 0.386691C62.7322 0.818818 63.1764 0.688765 63.5265 1.0378C63.6771 1.44374 63.886 1.9199 63.9081 2.34362C63.3703 2.86637 63.2418 3.00424 62.863 3.64905C62.7323 4.01849 62.5127 4.54336 62.5095 4.91867L62.2075 5.94904C62.1618 6.58949 62.2659 6.55325 61.8904 6.98852C60.6433 7.49097 58.917 7.55309 57.576 7.49299L57.5841 7.39128C58.8298 7.43207 58.2867 7.23932 58.601 6.54264C59.3285 4.93021 60.0583 2.15969 60.7696 0.670714L59.9211 0.497095Z" fill="#5C6979"/>
<path d="M59.9211 0.497095C60.7462 0.437166 61.3684 0.164211 62.1662 0.386691C62.7321 0.818818 63.1764 0.688765 63.5265 1.0378C63.677 1.44374 63.886 1.9199 63.9081 2.34362C63.3702 2.86637 63.2418 3.00424 62.8629 3.64905C62.7323 4.01849 62.5127 4.54336 62.5095 4.91867L62.2075 5.94904C62.0246 3.46328 60.9651 2.32899 60.7696 0.670714L59.9211 0.497095Z" fill="#505D6B"/>
<path d="M63.5265 1.0376C63.677 1.44353 63.886 1.9197 63.9081 2.34341C63.3702 2.86616 63.2418 3.00404 62.8629 3.64884C62.8226 3.59088 62.7315 3.45536 62.7119 3.38581C62.3204 1.98945 62.1279 1.6092 63.5265 1.0376Z" fill="#AAB1BC"/>
<path d="M39.4423 1.42765C40.6334 0.44054 41.3525 0.469024 42.8233 0.373047C43.291 0.654785 43.6678 0.880143 44.1077 1.20833C44.3829 1.698 44.5774 1.97872 44.9059 2.43056C44.6691 3.6073 44.3179 4.89779 44.01 6.0665C43.7843 6.27134 43.3421 6.69712 43.1156 6.8602C42.6505 7.14165 41.8698 7.53698 41.6244 7.97889C41.6722 8.09382 41.7264 8.25813 41.8074 8.34439C41.296 8.47508 40.9163 8.5795 40.387 8.6405C39.2596 8.29885 38.6256 7.70825 38.0077 6.74396L37.8728 5.98714C37.5069 3.52532 37.7127 3.06591 39.4423 1.42765Z" fill="#F3F3F5"/>
<path d="M39.4423 1.42765C40.6333 0.44054 41.3525 0.469024 42.8233 0.373047C43.291 0.654785 43.6678 0.880143 44.1076 1.20833C44.3829 1.698 44.5774 1.97872 44.9058 2.43056C44.6691 3.6073 44.3178 4.89779 44.0099 6.0665C43.7843 6.27134 43.3421 6.69712 43.1156 6.8602C42.538 6.83524 41.9234 6.87249 41.4791 6.52454C41.1438 6.06947 41.1997 5.69829 41.1989 5.13287L41.351 4.1537C41.9847 3.96934 41.9083 4.07243 42.6417 4.42872C45.211 3.81028 43.8129 -0.0662606 40.3609 1.7036L39.4423 1.42765Z" fill="#2D3945"/>
<path d="M39.8047 4.93407C40.5674 4.70042 40.7222 4.64145 41.3511 4.15381L41.199 5.13298C41.1998 5.69841 41.1439 6.06958 41.4792 6.52466C41.9235 6.8726 42.5381 6.83535 43.1157 6.86031C42.6506 7.14176 41.8699 7.53709 41.6245 7.979C41.6723 8.09393 41.7265 8.25824 41.8075 8.3445C41.2961 8.47519 40.9164 8.57961 40.3871 8.64061C39.2597 8.29896 38.6257 7.70836 38.0078 6.74408L37.8729 5.98725C38.0094 5.99262 39.5829 5.05982 39.8047 4.93407Z" fill="#414C5A"/>
<path d="M39.8047 4.93407C40.5674 4.70042 40.7222 4.64145 41.3511 4.15381L41.199 5.13298C41.0271 5.8031 41.1591 5.72382 40.6823 6.06337C39.9083 6.05271 39.1575 5.82491 38.5722 6.09549C38.381 6.30727 38.1825 6.51879 38.0078 6.74408L37.8729 5.98725C38.0094 5.99262 39.5829 5.05982 39.8047 4.93407Z" fill="#6A7684"/>
<path d="M39.4423 1.42773L40.3609 1.70368C39.8395 2.44392 38.8812 4.18959 39.8046 4.93404C39.5828 5.05979 38.0093 5.99259 37.8728 5.98722C37.5069 3.5254 37.7127 3.06599 39.4423 1.42773Z" fill="#7E8B99"/>
<path d="M44.1078 1.2085C47.6136 2.24354 48.3814 2.294 52.0148 2.7287C52.9091 2.87749 54.2097 2.95329 54.7267 3.77035C54.1779 4.78814 51.8361 4.48092 50.8441 4.43883C49.0041 4.15288 46.0594 3.8465 44.906 2.43073C44.5775 1.97888 44.3831 1.69817 44.1078 1.2085Z" fill="#E0E1E3"/>
<path d="M45.3771 7.10332C45.2308 6.79029 45.2038 6.74344 45.2531 6.40098C46.0965 5.7125 49.1612 6.18172 50.2567 6.28902C51.39 6.42704 52.2501 6.47134 53.184 7.18238L52.406 7.1878C49.5145 7.37618 47.0951 7.49981 44.2533 8.24622C43.1857 8.5266 41.4676 8.78729 40.3871 8.64088C40.9164 8.57989 41.296 8.47547 41.8075 8.34477C41.7265 8.25851 41.6722 8.09421 41.6245 7.97927C41.8699 7.53737 42.6506 7.14203 43.1157 6.86059C43.3421 6.6975 43.7844 6.27172 44.01 6.06688L44.3746 6.56479L44.4748 7.35124C44.6924 7.21941 45.112 7.15749 45.3771 7.10332Z" fill="#232E3C"/>
<path d="M45.377 7.10332C45.2307 6.79029 45.2037 6.74344 45.253 6.40098C46.0964 5.7125 49.1611 6.18172 50.2565 6.28902L50.867 6.63638L50.844 6.81245C50.2899 6.98019 49.5856 6.98573 48.9948 7.01597C47.7486 7.01298 46.6198 7.0009 45.377 7.10332Z" fill="#C5C9CE"/>
<path d="M44.0101 6.06689L44.3746 6.5648L44.4749 7.35126C43.5933 7.94853 42.8468 8.12611 41.8075 8.34479C41.7265 8.25852 41.6723 8.09422 41.6245 7.97928C41.8699 7.53738 42.6506 7.14204 43.1158 6.8606C43.3422 6.69751 43.7844 6.27173 44.0101 6.06689Z" fill="#C5C9CE"/>
<path d="M50.2566 6.28906C51.3899 6.42708 52.25 6.47138 53.184 7.18242L52.406 7.18784C51.2364 7.15273 50.1613 7.11716 48.9949 7.01601C49.5857 6.98577 50.29 6.98023 50.8441 6.81249L50.867 6.63642L50.2566 6.28906Z" fill="#919CA7"/>
<path d="M44.9058 2.43066C46.0592 3.84643 49.0039 4.15281 50.8439 4.43876C48.867 4.5062 46.4984 4.5547 44.5638 4.80119L44.3745 6.56451L44.0099 6.0666C44.3178 4.89789 44.669 3.60741 44.9058 2.43066Z" fill="#919CA7"/>
<path d="M68.3748 2.56467C70.6395 2.00365 74.7069 0.734154 76.7802 1.01517C78.2504 1.69179 78.5145 2.12971 79.3953 3.53996C78.7079 5.71747 79.4924 7.39903 77.6011 8.42543C75.7797 9.41395 71.6573 8.19076 69.6249 7.63377C67.9798 7.39096 65.8828 7.43294 64.1855 7.42429C63.7425 7.02351 63.4844 6.84617 63.3267 6.26025C63.271 6.08895 62.9825 5.66981 62.8685 5.49412C62.6828 5.39165 62.6046 5.12878 62.5096 4.91853C62.5127 4.54322 62.7323 4.01836 62.863 3.64891C63.2419 3.00411 63.3703 2.86623 63.9081 2.34348C64.4123 2.70452 65.151 2.67593 65.8058 2.71193C66.5987 2.70213 67.5697 2.61488 68.3748 2.56467Z" fill="#343D49"/>
<path d="M68.3748 2.56467C70.6395 2.00365 74.7069 0.734154 76.7802 1.01517L76.7313 1.21588C78.2326 2.53291 77.9036 4.98944 76.5975 4.29562C76.0367 4.3921 75.7183 4.3983 75.3354 4.82955C75.052 5.68932 75.3346 5.69822 74.8094 5.97757C73.1122 6.04895 72.1466 5.61363 70.5876 5.20435C68.5528 5.05057 65.2103 5.29392 63.3636 4.85623L63.3267 6.26025C63.271 6.08895 62.9825 5.66981 62.8685 5.49412C62.6828 5.39165 62.6046 5.12878 62.5096 4.91853C62.5127 4.54322 62.7323 4.01836 62.863 3.64891C63.2419 3.00411 63.3703 2.86623 63.9081 2.34348C64.4123 2.70452 65.151 2.67593 65.8058 2.71193C66.5987 2.70213 67.5697 2.61488 68.3748 2.56467Z" fill="#E0E1E3"/>
<path d="M73.9738 1.87388C75.0818 1.28814 75.5078 1.01511 76.7312 1.21575C78.2324 2.53278 77.9035 4.9893 76.5973 4.29549C75.5407 3.10601 73.7241 4.09744 73.9738 1.87388Z" fill="#F3F3F5"/>
<path d="M68.3748 2.56467C70.6395 2.00365 74.7069 0.734154 76.7802 1.01517L76.7313 1.21588C75.5079 1.01525 75.0819 1.28828 73.9739 1.87402C73.8266 1.98169 73.173 2.4872 73.0578 2.50251L73.0885 2.47184C71.621 2.44948 69.6777 2.62325 68.3748 2.56467Z" fill="#414C5A"/>
<path d="M63.9081 2.34375C64.4123 2.70478 65.151 2.67619 65.8058 2.71219C64.3685 2.85797 63.1769 2.94732 63.3636 4.8565L63.3267 6.26052C63.271 6.08921 62.9825 5.67008 62.8685 5.49439C62.6828 5.39192 62.6046 5.12904 62.5096 4.9188C62.5127 4.54349 62.7323 4.01862 62.863 3.64918C63.2419 3.00438 63.3703 2.8665 63.9081 2.34375Z" fill="#343D49"/>
<path d="M63.3636 4.85645C65.2103 5.29414 68.5528 5.05079 70.5876 5.20457C71.1024 5.64016 71.4441 5.90765 72.0034 6.28393C71.7915 6.4324 70.9339 6.33825 70.6147 6.32356C69.4958 6.02443 65.1497 5.95309 64.2617 6.51041L64.2186 6.76012L64.5555 7.03171C66.1237 7.27244 68.761 6.73738 69.6249 7.63398C67.9798 7.39117 65.8828 7.43315 64.1855 7.4245C63.7425 7.02373 63.4844 6.84638 63.3267 6.26046L63.3636 4.85645Z" fill="#171A1F"/>
<path d="M64.5554 7.03161L64.2186 6.76002L64.2617 6.51031C65.1496 5.95299 69.4958 6.02432 70.6146 6.32346C71.0537 6.51385 72.0136 6.85706 72.2414 7.21266C71.5658 7.34103 69.8973 6.9971 69.0755 6.98672C67.6534 6.96877 65.9696 6.93139 64.5554 7.03161Z" fill="#C5C9CE"/>
<path d="M74.4589 7.69903C75.1346 7.63191 76.3072 7.39439 76.7884 7.86557L76.6355 8.2497C75.9576 8.29123 74.8281 8.36536 74.2137 8.14251L74.1785 7.90401L74.4589 7.69903Z" fill="#C5C9CE"/>
</g>
<defs>
<clipPath id="clip0_2009_11146">
<rect width="325.898" height="90" fill="white"/>
</clipPath>
</defs>
</svg>
