<svg xmlns="http://www.w3.org/2000/svg" width="145" height="40" viewBox="0 0 145 40" fill="none">
  <g clip-path="url(#clip0_2010_11762)">
    <path d="M44.0378 8.23661C44.5309 8.21004 44.9137 8.21194 45.4078 8.22558C45.3459 11.7105 45.4483 15.1606 45.4754 18.6464C45.5403 18.5343 45.6079 18.4239 45.6781 18.3151C46.0313 17.7674 48.5488 14.242 48.9621 14.1763C50.143 13.9886 52.2492 14.1466 53.5016 14.2244L50.5762 17.9635C50.2116 18.4266 49.4309 19.2934 49.183 19.7602C49.261 20.3232 52.9042 25.7021 53.5105 26.5369C53.616 26.6935 53.7203 26.862 53.8227 27.0216C52.446 27.1545 51.0559 27.1546 49.6749 27.1232C48.6091 27.0989 48.3324 26.1243 47.8407 25.308C47.2048 24.2731 46.5797 23.2316 45.9653 22.1838L45.4828 22.8052C45.3559 24.083 45.3962 25.7759 45.418 27.0805C44.3081 27.2074 42.3854 27.1173 41.1632 27.1682C41.1483 20.8702 41.1723 14.5721 41.2352 8.27428C41.8874 8.20262 43.3198 8.23619 44.0378 8.23661Z" fill="#014BAF"/>
    <path d="M93.8711 8.15625C95.2149 8.16091 96.5579 8.17547 97.901 8.19971C97.983 11.7799 97.8946 15.4351 97.9802 19.0102C98.0983 18.5644 98.1662 18.2519 98.4314 17.8675C99.2716 16.6511 100.124 15.3932 101.031 14.2263C102.175 14.0714 104.39 14.1112 105.56 14.2213C104.258 16.2033 102.807 17.9475 101.376 19.8029C101.42 19.8989 101.466 19.9973 101.525 20.0855C102.569 21.6473 103.551 23.2465 104.55 24.8372C105.008 25.5678 105.489 26.2721 105.94 27.0094C105.229 27.1017 101.452 27.3794 101.107 26.8577C100.142 25.3986 99.2638 23.667 98.3798 22.1458C98.2907 22.2767 98.0672 22.6107 98.0396 22.7507C97.7942 23.9857 97.8946 25.8193 97.9491 27.0721C96.978 27.1432 94.5635 27.0698 93.8541 27.211L93.8449 15.1738C93.8442 12.9 93.7961 10.4155 93.8711 8.15625Z" fill="#014BAF"/>
    <path d="M67.1655 13.8745C69.8904 13.6863 72.5076 14.1203 73.4751 17.1274C73.7854 18.0923 73.7168 19.2484 73.731 20.2642C73.7501 21.7295 73.7848 23.1951 73.8364 24.6597C73.8584 25.3579 73.8594 26.4658 73.9761 27.1304C73.3233 27.1359 70.6266 27.2406 70.2554 27.0005C70.0792 26.7528 70.0238 26.2826 69.9653 25.9692C69.2076 26.5698 68.4294 27.2127 67.4429 27.3823C66.481 27.5478 64.8953 27.3115 64.0962 26.7515C63.2269 26.0661 62.777 25.4495 62.603 24.3482C62.029 20.7133 64.8954 19.124 68.1021 19.2466C68.4877 19.2613 69.2794 19.3666 69.6235 19.312L69.7085 19.1519C69.7487 18.6887 69.4896 18.1437 69.3042 17.7192C67.818 16.9297 66.9209 17.0971 65.3599 17.6948C65.0555 17.8114 64.5974 18.0517 64.2944 18.0776C63.9272 17.8097 63.569 15.3331 63.7642 14.9439C64.3401 14.404 66.3808 13.9937 67.1655 13.8745ZM68.73 21.5845C68.1936 21.6167 67.6673 21.6247 67.1948 21.897C65.8634 22.6647 66.0661 24.2996 67.6382 24.5679C69.7795 24.5281 69.9635 23.3612 69.7222 21.5435L68.73 21.5845Z" fill="#014BAF"/>
    <path d="M82.0256 13.8733C83.2371 13.7558 84.6615 14.0158 85.554 14.8931C87.3002 16.61 86.9777 19.4668 86.9819 21.7374L87.0003 27.11C85.7704 27.1385 84.1544 27.0754 82.9697 27.1772L82.9605 21.8177C82.9613 20.9078 82.9994 19.8867 82.9124 18.9919C82.8347 18.192 82.1896 17.4801 81.3565 17.4521C80.5043 17.4235 80.0736 17.7812 79.4689 18.3081C78.9674 19.1721 79.1513 25.697 79.1379 27.1599C77.9695 27.0905 76.4235 27.1226 75.2261 27.1123C75.1377 24.0688 75.248 20.9798 75.2042 17.9314C75.1865 16.6933 75.1992 15.4206 75.2417 14.1843C75.9121 14.1549 78.5077 13.922 78.9349 14.2154C79.0346 14.5188 78.9526 15.4417 78.9328 15.8155C79.964 14.6454 80.4753 14.1856 82.0256 13.8733Z" fill="#014BAF"/>
    <path d="M117.952 14.6482C117.999 14.6375 118.039 14.6308 118.087 14.6301C118.942 14.6212 119.766 14.9514 120.377 15.5484C121.614 16.7583 121.423 19.9927 121.439 21.6974L121.479 27.1534C120.461 27.1507 119.183 27.1207 118.185 27.02C118.077 24.1318 118.263 21.3045 118.067 18.3199C117.35 17.2665 115.981 17.3906 115.721 18.6516C115.583 19.4269 115.564 21.5518 115.564 22.3704C115.574 23.9666 115.571 25.5628 115.553 27.1589C114.491 27.094 113.207 27.1259 112.135 27.131C112.088 26.0016 112.141 24.6352 112.132 23.4833C112.11 20.6162 112.171 17.7268 112.131 14.8597C113.035 14.8285 114.249 14.8433 115.151 14.8774C115.209 15.1935 115.236 15.6737 115.265 16.0051C116.408 15.1689 116.509 14.9245 117.952 14.6482Z" fill="#FC7802"/>
    <path d="M126.466 14.7119C131.421 14.2187 131.62 18.6115 131.645 22.1944C129.852 22.1416 127.487 22.1392 125.692 22.2246C126.331 25.3534 128.524 24.6643 130.92 23.8594C130.923 24.1506 130.946 24.4766 130.959 24.7705C130.979 25.3064 131.182 25.9324 130.871 26.3887C130.581 26.8127 129.943 26.9089 129.478 27.0186C127.719 27.4332 126.138 27.4178 124.561 26.418C123.422 25.6958 123.105 24.6321 122.782 23.3555C122.254 21.2738 122.53 18.3618 123.542 16.4698C124.04 15.54 125.421 14.9277 126.466 14.7119ZM126.918 17.3838C125.812 17.7726 125.781 18.6824 125.689 19.7295L127.357 19.7227L128.636 19.7159C128.522 18.4233 128.564 17.3197 126.918 17.3838Z" fill="#FC7802"/>
    <path d="M61.1441 13.8751C62.4411 13.7747 62.248 13.9926 62.3108 15.2159C62.3613 16.2017 62.3441 17.2054 62.3232 18.1926C61.1114 18.0246 60.1646 17.9646 59.2006 18.8964C58.4606 19.6116 58.4513 20.2492 58.4001 21.2029C58.2948 23.1617 58.3699 25.1098 58.3458 27.0691C57.8757 27.1212 54.4935 27.2261 54.3091 27.0978L54.2822 26.8501C54.2759 23.9492 54.285 21.0485 54.3094 18.1478C54.3117 17.4533 54.2543 14.6689 54.3988 14.2078C54.8575 13.9708 57.5224 14.0731 58.2093 14.087C58.2052 14.7455 58.2073 15.404 58.2157 16.0625C58.8537 14.6644 59.6077 14.095 61.1441 13.8751Z" fill="#014BAF"/>
    <path d="M133.497 11.8001C134.157 11.8118 136.176 11.6542 136.556 11.9505C136.834 12.3395 136.74 14.2467 136.751 14.9024L136.773 14.9005C137.454 14.8486 138.073 14.8825 138.753 14.905L138.752 17.6427C138.126 17.678 137.355 17.6675 136.718 17.6762C136.669 19.1776 136.64 22.2922 136.78 23.7529C137.353 24.5441 137.842 24.2607 138.754 24.2346C138.759 25.0385 138.781 25.8999 138.718 26.6968L138.65 26.8643C138.114 27.2611 136.845 27.2491 136.198 27.2079C134.915 27.1261 133.744 26.1597 133.574 24.8503C133.418 23.6429 133.441 22.2222 133.443 20.9806C133.444 20.0168 133.312 18.5963 133.433 17.6652C132.969 17.6718 132.468 17.6572 132.001 17.6522C131.967 16.7757 132.03 15.8443 132.102 14.9694C132.555 14.8776 132.942 14.8656 133.401 14.894C133.385 14.1209 133.31 12.4925 133.497 11.8001Z" fill="#FC7802"/>
    <path d="M88.4962 14.0749C89.3124 14.0122 91.601 14.0556 92.4299 14.0891C92.3196 15.7045 92.413 17.3045 92.4222 18.9233L92.4363 27.1347C91.1229 27.1385 89.8103 27.1317 88.497 27.1145C88.5316 22.8147 88.4149 18.3415 88.4962 14.0749Z" fill="#014BAF"/>
    <path d="M89.9744 8.20998C92.1237 8.05684 93.3331 9.81889 92.1746 11.7855C92.0127 12.0605 91.3068 12.5854 90.9737 12.6334C88.6186 12.9881 87.3802 10.4588 88.8492 8.70348C89.0946 8.41062 89.6024 8.29705 89.9744 8.20998Z" fill="#014BAF"/>
    <path d="M95.7557 31.521C95.9311 31.9257 95.7634 33.4313 95.8094 34.0063C95.8986 35.1035 96.5233 35.661 96.2157 36.7485L96.0741 36.8179C95.7666 36.8009 95.8587 36.8436 95.619 36.6821C95.4975 36.4632 95.5505 36.1388 95.5682 35.8784C95.201 35.8723 93.2009 35.8479 92.9676 35.9204C92.9669 36.1776 92.9818 36.4313 92.909 36.6772C92.7704 36.8049 92.7728 36.8202 92.5692 36.8306C91.8691 36.866 92.0956 35.6714 92.1063 35.2007L92.6942 34.8013C93.0761 33.9659 93.1451 32.4548 93.2264 31.5112C94.022 31.5144 94.8175 31.5047 95.6131 31.4829L95.7557 31.521ZM93.867 32.2241C93.8182 33.3187 93.7633 34.0825 93.3836 35.1235C93.815 35.131 94.2905 35.1505 94.7176 35.1245C94.8336 35.0904 94.9701 35.0792 94.992 34.9731C95.1341 34.2671 95.0425 32.924 95.0213 32.2222L93.867 32.2241Z" fill="#014BAF"/>
    <path d="M108.367 23.047C111.134 22.8743 112.045 25.9674 109.583 27.102C109.085 27.1558 108.528 27.1943 108.055 27.0223C107.617 26.8659 107.261 26.5394 107.067 26.117C106.454 24.7933 107.096 23.6053 108.367 23.047Z" fill="#FC7802"/>
    <path d="M109.264 31.5108C110.542 31.5101 113.293 31.3712 112.056 33.5391C112.196 34.3011 113.065 34.1274 112.318 35.4073C111.669 36.0283 110.282 35.8378 109.307 35.8838C109.259 34.4707 109.173 32.9138 109.264 31.5108ZM110.035 35.1934C110.588 35.1476 111.049 35.1276 111.578 34.9551C111.766 34.6714 111.729 34.7956 111.734 34.4561C111.495 33.9161 110.557 33.9456 110.041 33.9092L110.035 35.1934ZM110.047 33.3399C110.456 33.3065 111.057 33.2781 111.441 33.1778C111.529 32.9501 111.553 32.8927 111.519 32.6436C111.299 32.1712 110.497 32.2307 110.039 32.2169L110.047 33.3399Z" fill="#014BAF"/>
    <path d="M102.289 33.0393C102.455 31.1502 103.936 31.5168 105.318 31.4826L105.437 31.4924C105.586 31.7057 105.521 35.2421 105.524 35.8459C104.136 35.8333 104.77 35.6755 104.617 34.5412C104.6 34.4126 104.577 34.3338 104.501 34.2268C103.942 34.0733 103.434 35.3613 103.245 35.757C102.981 35.8933 102.41 35.958 102.274 35.6223C102.339 35.2606 102.892 34.6268 103.139 34.3039C103.084 34.2604 103.028 34.2146 102.975 34.1672C102.686 33.91 102.251 33.4738 102.289 33.0393ZM103.776 32.1838C103.532 32.273 103.364 32.3443 103.234 32.6174C103.156 32.7808 103.149 32.9701 103.219 33.1379C103.419 33.6354 103.695 33.6309 104.16 33.6477C104.498 33.6408 104.476 33.6972 104.677 33.5119C104.827 33.158 104.716 32.5835 104.726 32.1565L103.776 32.1838Z" fill="#014BAF"/>
    <path d="M52.3616 31.4727C52.5409 32.0144 53.8599 35.5641 53.8137 35.7178C53.8022 35.7557 53.7588 35.7771 53.7249 35.7949C53.5168 35.9039 53.2215 35.8255 53.011 35.7607C52.7717 35.5176 52.8155 35.4432 52.7366 35.0654C52.5316 34.8842 52.5968 34.9347 52.2834 34.915H50.9583C50.889 35.2997 50.7571 35.6385 50.6262 36.0049C50.528 35.9931 50.4301 35.9795 50.3323 35.9648C50.0912 35.9275 50.0106 35.9142 49.8821 35.7383C49.9717 35.4194 51.3309 31.5494 51.3372 31.5342L52.3616 31.4727ZM51.6223 32.5518C51.4834 33.1835 51.3765 33.5951 51.1731 34.208L52.1418 34.1973L52.3235 34.1523C52.4237 33.8655 51.8315 32.7461 51.6223 32.5518Z" fill="#014BAF"/>
    <path d="M86.4102 31.5109C86.618 31.5047 87.3753 31.4567 87.458 31.6457C87.8145 32.4656 88.9617 34.941 88.8282 35.7335C88.6932 35.9255 88.7667 35.8773 88.5352 35.9269C87.8343 35.7695 88.171 35.388 87.7325 35.0158C87.1238 34.9222 86.8395 34.9345 86.2471 34.9972C86.059 35.3129 85.9759 35.7756 85.6407 35.9015C85.4186 35.8767 85.3594 35.8787 85.1954 35.7335C85.1523 35.5889 85.1919 35.3739 85.2442 35.2365C85.7265 33.9766 86.1004 32.8274 86.4102 31.5109ZM86.9795 32.6974C86.7907 33.0848 86.2413 33.8763 86.6827 34.1671L87.1495 34.1759L87.3985 34.1388C87.5634 33.8737 87.1951 32.8255 86.9795 32.6974Z" fill="#014BAF"/>
    <path d="M115.045 31.4824C115.347 31.4931 115.686 31.4837 115.957 31.6084C116.231 31.9044 117.616 35.6654 117.435 35.9873C116.418 36.1204 116.976 35.287 116.061 35.0166C114.972 34.8539 114.682 34.7636 114.461 35.6875C114.409 35.9086 113.859 35.9202 113.625 35.7734C113.565 35.5147 114.081 34.4526 114.201 34.1396C114.544 33.2585 114.791 32.3887 115.045 31.4824ZM115.594 32.7021C115.407 33.0543 114.923 33.7675 115.145 34.1221C115.341 34.1777 115.403 34.1767 115.609 34.1797L115.922 34.1709C116.123 33.867 115.787 32.8794 115.594 32.7021Z" fill="#014BAF"/>
    <path d="M55.1366 31.4577C55.3293 31.4457 55.4975 31.4184 55.6739 31.4983C55.9454 31.8177 55.8672 32.7954 55.8901 33.3022C56.5235 33.2395 56.9924 33.2236 57.6303 33.2179L57.6282 31.5143L58.424 31.5144C58.4059 32.1422 58.5303 35.6313 58.3077 35.9527L58.0117 35.9594C57.7921 35.9403 57.8515 35.9747 57.7014 35.8499C57.5734 35.4208 57.5956 34.4812 57.5884 33.9992C57.0182 33.9626 56.4473 33.938 55.8761 33.9255C55.8635 34.4626 55.9513 35.5548 55.6151 35.8943C55.5444 35.9206 55.2052 36.0372 55.188 35.9226C55.0389 34.9284 54.9356 32.3697 55.1366 31.4577Z" fill="#014BAF"/>
    <path d="M81.4003 33.4822C81.8041 33.0199 83.1344 31.103 83.7709 31.5656C83.8084 32.005 82.7801 33.155 82.4838 33.5223C82.9024 34.0176 83.8381 35.2194 83.9951 35.8304L83.9421 35.9479C82.9385 36.2394 82.3798 34.2723 81.616 34.1249C81.3218 34.5024 81.5339 35.6061 81.3246 35.842C81.1032 35.8878 80.9476 35.9381 80.7277 35.876C80.5869 35.6473 80.5792 32.0137 80.6654 31.5749C80.8415 31.4757 81.1004 31.5221 81.3111 31.5373C81.4802 31.8105 81.4109 33.1083 81.4003 33.4822Z" fill="#014BAF"/>
    <path d="M81.3246 35.842C81.1032 35.8878 80.9476 35.9382 80.7277 35.876C80.5869 35.6473 80.5792 32.0138 80.6654 31.575C80.8415 31.4758 81.1004 31.5221 81.3111 31.5374C81.2256 32.0892 81.2058 35.4212 81.3246 35.842Z" fill="#014BAF"/>
    <path d="M73.3243 31.4641C73.4898 31.4523 73.6348 31.4294 73.7911 31.4887C74.0641 31.8129 73.9729 32.7697 73.9955 33.2915C74.625 33.2707 75.1342 33.2702 75.7629 33.2942C75.7544 32.8108 75.6094 31.8739 75.9829 31.5745C76.2078 31.4973 76.258 31.5074 76.4907 31.5609C76.5635 31.7443 76.5692 35.307 76.5607 35.7292C76.4263 35.8668 76.1788 35.8596 75.9772 35.8793L75.8513 35.8632C75.6681 35.6667 75.7523 34.3509 75.7594 33.9923C75.1575 33.9645 74.661 33.9393 74.0613 33.9719C73.9934 34.6382 73.9785 35.3248 73.9545 35.9952L73.2083 35.7933C73.2769 34.9533 73.0287 31.819 73.3243 31.4641Z" fill="#014BAF"/>
    <path d="M100.8 31.4912L100.824 31.4969C100.848 31.5217 100.877 31.5516 100.911 31.5866C100.912 32.8508 100.921 34.623 100.947 35.8296C100.657 35.8296 100.347 35.8175 100.055 35.8112C100.041 34.6152 100.042 33.419 100.057 32.2231L98.9874 32.2838C98.9549 32.7853 98.9174 33.1262 98.8354 33.6222C98.7568 34.1614 98.6868 35.408 98.1677 35.7463C98.01 35.849 97.6592 35.9511 97.464 35.8971C97.3431 35.7634 97.3544 35.6765 97.3445 35.4933C97.4385 35.1029 97.9131 35.1932 98.0072 34.4659C98.1267 33.5401 98.3021 32.5581 98.2491 31.6205C99.1147 31.4883 99.9295 31.4891 100.8 31.4912Z" fill="#014BAF"/>
    <path d="M64.2664 31.5191C64.9321 31.5027 66.4852 31.4208 67.0624 31.57C67.2107 31.7764 67.1718 31.8156 67.1966 32.0914L67.1021 32.183C66.5896 32.314 65.6206 32.2576 65.0782 32.2358C65.0974 32.5895 65.0967 32.9484 65.0997 33.303C65.4794 33.2961 66.5195 33.2402 66.8208 33.4489C66.9027 33.5056 66.8941 33.7075 66.9056 33.8313C66.7035 34.055 65.517 33.9274 65.0767 33.9507C65.1153 34.4499 65.1104 34.6285 65.0657 35.1217C65.6678 35.1164 66.5891 35.0835 67.1608 35.1523C67.29 35.2792 67.2456 35.4737 67.2524 35.7062L67.168 35.793C66.6064 35.9044 64.8792 35.8392 64.2197 35.8283C64.2892 34.4523 64.2633 32.9076 64.2664 31.5191Z" fill="#014BAF"/>
    <path d="M70.1575 33.0094C70.5162 32.5207 71.0124 31.7347 71.511 31.4434L71.7465 31.5319C71.7069 32.1974 71.1637 33.0712 70.8448 33.6971C71.1206 34.3166 71.9785 35.4966 71.8837 35.8855C71.2408 36.2905 70.4928 34.8172 70.1895 34.3882C69.8536 34.9292 69.2771 36.144 68.4964 35.8879C68.3299 35.487 69.3441 34.1358 69.6089 33.7015C69.3975 33.3381 69.164 32.9537 68.966 32.5858C68.751 32.2576 68.3431 31.8302 68.6126 31.4856C69.065 31.3888 69.4128 31.682 69.6347 32.0395L70.1575 33.0094Z" fill="#014BAF"/>
    <path d="M68.9659 32.5856C68.7509 32.2574 68.343 31.8301 68.6125 31.4855C69.0649 31.3887 69.4127 31.6819 69.6346 32.0394C69.3145 32.2037 69.1735 32.2818 68.9659 32.5856Z" fill="#171A1F"/>
    <path d="M46.4237 31.4672C47.2288 31.4149 48.1073 31.4715 48.6277 32.1865C48.7231 32.2644 48.5539 32.7011 48.4873 32.7211C47.9602 32.8761 47.5369 32.2423 47.0302 32.2568C45.8572 32.2887 45.836 33.9703 46.2482 34.7329C46.5463 35.2844 47.3316 35.1875 47.796 34.9122C48.0265 34.7783 48.1773 34.6839 48.4378 34.7295C48.635 34.8677 48.5841 34.794 48.6451 35.0235C48.4349 35.9583 47.2228 35.9862 46.4708 35.9689C46.1048 35.7446 45.7841 35.4797 45.544 35.121C45.1574 34.5473 45.018 33.8424 45.1571 33.1648C45.3259 32.3197 45.7523 31.9147 46.4237 31.4672Z" fill="#014BAF"/>
    <path d="M119.862 31.4642C120.976 31.3986 121.312 31.479 122.082 32.2999C121.989 32.4237 121.903 32.5294 121.803 32.6477C121.319 32.7954 120.395 32.0071 119.846 32.4838C118.649 33.5233 119.607 36.1845 121.293 34.8267C121.522 34.6489 121.58 34.6536 121.838 34.7392C121.927 34.8679 121.995 34.9277 121.94 35.0974C121.666 35.9204 120.691 36.0619 119.957 35.905C118.379 35.5675 118.102 33.461 118.879 32.288C119.151 31.877 119.452 31.7101 119.862 31.4642Z" fill="#014BAF"/>
    <path d="M22.677 33.3694C24.2018 33.311 40.7292 33.3361 40.9048 33.436L40.9732 33.7073L26.9955 33.7085C26.4919 33.7085 22.9191 33.7563 22.7268 33.6392L22.677 33.3694Z" fill="#014BAF"/>
    <path d="M61.4866 31.4809C61.7871 31.4685 62.0981 31.4452 62.3979 31.4469C63.0416 31.4504 63.016 31.7299 63.0929 32.2172L61.7658 32.2189C61.7361 33.2731 61.817 34.5997 61.7385 35.6689C61.7293 35.7944 61.6412 35.8121 61.5291 35.8743C61.2704 35.8288 61.1663 35.8522 60.98 35.7006C60.8672 34.909 60.9045 33.0969 60.9146 32.2483C60.4081 32.2439 60.1251 32.2759 59.6644 32.0744L59.6074 31.8605C60.0362 31.4758 60.951 31.4956 61.4866 31.4809Z" fill="#014BAF"/>
    <path d="M124.788 33.3592C127.992 33.3587 135.162 33.3089 138.692 33.4202C138.722 33.4212 138.771 33.6497 138.788 33.7104C135.415 33.7088 128.637 33.726 124.947 33.6854C124.858 33.6845 124.82 33.4717 124.788 33.3592Z" fill="#014BAF"/>
    <path d="M78.2346 31.5096C78.4907 31.4978 78.6434 31.4721 78.879 31.5772C78.9794 31.8975 78.9023 35.14 78.9384 35.798C78.9129 35.8032 78.8867 35.808 78.8613 35.8125C78.6123 35.8561 78.4574 35.8714 78.2601 35.7326C78.1505 34.9632 78.224 32.4228 78.2346 31.5096Z" fill="#014BAF"/>
    <path d="M28.0217 6.19141L28.7088 6.29401L29.0776 6.43852C29.2004 6.51488 29.482 6.6792 29.5835 6.76014C29.7215 7.27423 29.7982 7.66871 29.8901 8.19373L30.1082 8.29423C31.4488 8.66652 31.4833 8.88956 31.2488 10.2918C31.1228 10.5978 31.045 10.7547 30.879 11.0412C30.8975 11.4448 30.8783 12.0076 31.1577 12.3028C31.506 12.3775 31.7874 12.1024 32.0749 11.9095C32.7985 11.4241 34.2519 11.6817 35.0424 11.9857C35.3607 12.1747 35.7452 12.3961 35.9876 12.6771C36.6686 13.6041 36.9811 13.9411 37.2428 15.0717C37.6207 17.2086 37.5423 18.9154 36.527 20.831C35.8204 22.1216 34.6719 23.064 33.1289 22.964C32.6671 22.995 32.1562 22.8359 31.7247 22.6831C31.0958 22.3973 30.7498 21.8365 30.2893 21.7955C30.1602 21.8861 29.9973 22.0079 29.8652 22.0867C29.0588 22.5308 27.5064 23.2801 26.5662 23.1709C24.8753 23.3313 23.6787 23.0313 22.186 22.2351C20.5689 21.5229 19.1407 18.9421 17.1804 21.0691C17.0318 21.3669 16.9198 21.558 16.8641 21.8859L16.9362 22.4043C16.4467 22.4176 16.2854 22.3157 15.8515 22.0858C15.7092 22.0949 15.36 22.0322 15.2038 22.0089C14.839 21.579 12.7428 21.684 12.1626 21.7583L11.0401 21.7561C10.6608 21.7757 10.1487 21.7657 9.75996 21.7683L9.10427 21.7588C8.77413 21.7942 8.69025 21.846 8.44144 22.0988L8.29412 22.0503C8.13351 22.5607 7.77826 22.2631 7.27336 22.3932C7.16133 22.3991 6.95676 22.3866 6.83691 22.3833L7.04581 21.9835C7.01674 21.2472 7.52294 19.425 7.79841 18.7294C8.0509 18.078 8.59767 16.4412 9.14487 16.1095C9.26085 16.0033 9.62204 15.5667 9.76752 15.413C10.2799 14.8676 10.8194 14.3481 11.3839 13.8566C14.1295 11.4775 17.0642 11.2741 20.4749 11.6416C20.7168 11.6677 21.1354 11.6891 21.324 11.5258C21.4041 11.2158 21.434 11.1654 21.3471 10.8883C21.1511 10.6809 21.093 10.501 21.0144 10.2362C20.8374 9.54801 20.7859 8.83458 21.4995 8.49578C21.6891 8.33119 22.181 8.31189 22.423 8.29324C22.4626 8.19833 22.5656 7.15783 22.6741 6.76971C23.0509 6.4908 23.3751 6.37441 23.8227 6.26387L24.3918 6.19714L24.4468 6.28627C25.0245 6.28971 25.6022 6.28745 26.1798 6.27948L26.9575 6.29269C27.3001 6.30949 27.6792 6.24104 28.0217 6.19141Z" fill="#667483"/>
    <path d="M28.0217 6.19141L28.7088 6.29401L29.0776 6.43852C29.2004 6.51488 29.482 6.6792 29.5835 6.76014C29.7215 7.27423 29.7982 7.66871 29.8901 8.19373L30.1082 8.29423C31.4488 8.66652 31.4833 8.88956 31.2488 10.2918C31.1228 10.5978 31.045 10.7547 30.879 11.0412C30.5576 10.5605 30.4672 10.4412 29.9283 10.2438C29.6864 10.7461 30.0379 11.6371 29.6242 12.6283C28.9418 12.1413 28.8473 12.4892 28.3828 11.6634C28.4448 12.2696 28.7148 13.3285 29.0154 13.8612C29.0031 14.3445 28.9776 14.544 28.8952 15.0146C28.672 16.5575 27.698 17.1074 26.2069 16.9147C24.9724 16.7552 24.0639 15.8055 22.7995 15.9081C20.3961 15.6079 19.3755 15.1033 16.8427 15.6455C16.381 15.7443 14.3851 16.2176 14.14 16.2244C14.0432 16.3379 13.5521 16.9005 13.5041 16.9889C12.7612 17.3475 12.3398 17.9715 11.9707 18.7002C11.6285 18.9583 10.9626 19.9156 10.6729 19.9404C10.2913 19.6956 10.4896 18.3674 10.4372 17.9373C10.4028 17.6552 10.3721 17.5369 10.2894 17.2597C9.57091 18.4825 9.39693 19.2171 9.21319 20.637C9.18659 20.8426 9.11113 21.3551 9.12648 21.5399L8.93255 21.6334C9.4615 21.7791 10.5237 21.6582 11.0401 21.7561C10.6608 21.7757 10.1487 21.7657 9.75996 21.7683L9.10427 21.7588C8.77413 21.7942 8.69025 21.846 8.44144 22.0988L8.29412 22.0503C8.13351 22.5607 7.77826 22.2631 7.27336 22.3932C7.16133 22.3991 6.95676 22.3866 6.83691 22.3833L7.04581 21.9835C7.01674 21.2472 7.52294 19.425 7.79841 18.7294C8.0509 18.078 8.59767 16.4412 9.14487 16.1095C9.26085 16.0033 9.62204 15.5667 9.76752 15.413C10.2799 14.8676 10.8194 14.3481 11.3839 13.8566C14.1295 11.4775 17.0642 11.2741 20.4749 11.6416C20.7168 11.6677 21.1354 11.6891 21.324 11.5258C21.4041 11.2158 21.434 11.1654 21.3471 10.8883C21.1511 10.6809 21.093 10.501 21.0144 10.2362C20.8374 9.54801 20.7859 8.83458 21.4995 8.49578C21.6891 8.33119 22.181 8.31189 22.423 8.29324C22.4626 8.19833 22.5656 7.15783 22.6741 6.76971C23.0509 6.4908 23.3751 6.37441 23.8227 6.26387L24.3918 6.19714L24.4468 6.28627C25.0245 6.28971 25.6022 6.28745 26.1798 6.27948L26.9575 6.29269C27.3001 6.30949 27.6792 6.24104 28.0217 6.19141Z" fill="#F3F3F5"/>
    <path d="M28.0217 6.19141L28.7088 6.29401L29.0777 6.43852C29.2004 6.51488 29.482 6.6792 29.5835 6.76014C29.7215 7.27423 29.7982 7.66871 29.8901 8.19373L30.1082 8.29423C31.4488 8.66652 31.4833 8.88956 31.2488 10.2918C31.1228 10.5978 31.045 10.7546 30.879 11.0412C30.5576 10.5605 30.4672 10.4412 29.9283 10.2438C29.6864 10.7461 30.0379 11.6371 29.6242 12.6283C28.9418 12.1413 28.8473 12.4892 28.3828 11.6634C28.2071 11.1931 28.1152 10.6363 28.0163 10.1401C27.7213 10.1173 27.4411 10.08 27.1477 10.0416L26.6729 10.0255L26.6661 10.2274C26.2621 10.2497 25.9912 10.2804 25.5906 10.1877C25.4646 10.012 25.2149 10.0393 25.0059 10.0162L24.3346 10.0395C23.7849 10.0191 23.601 10.0429 23.0605 10.133C23.0533 10.3961 23.093 10.7868 22.9552 10.9669L22.7331 11.0863L22.8588 11.2058C22.3643 11.2608 22.018 11.6986 21.4393 11.8502C21.4064 11.7949 21.3468 11.5961 21.324 11.5258C21.4041 11.2158 21.434 11.1654 21.3471 10.8883C21.1511 10.6809 21.093 10.501 21.0144 10.2362C20.8374 9.54801 20.7859 8.83458 21.4995 8.49578C21.6891 8.33119 22.181 8.31189 22.423 8.29324C22.4626 8.19832 22.5656 7.15783 22.6741 6.76971C23.0509 6.4908 23.3751 6.37441 23.8227 6.26387L24.3918 6.19714L24.4468 6.28627C25.0245 6.28971 25.6022 6.28745 26.1798 6.27948L26.9575 6.29269C27.3001 6.30949 27.6792 6.24104 28.0217 6.19141Z" fill="#171A1F"/>
    <path d="M23.8229 6.26399L24.3919 6.19727L24.4469 6.28639C25.0246 6.28983 25.6023 6.28757 26.1799 6.2796L26.9576 6.29281L27.0218 6.4978L26.8568 6.64694C26.915 6.99558 27.0111 7.46191 26.9925 7.80452L26.8984 7.91576L26.9724 8.05378C26.8057 8.1482 26.3544 8.11293 26.1385 8.10926L26.2129 8.21237C26.5966 8.54693 26.4425 9.0282 26.4139 9.51795L26.4448 9.62728C26.0692 9.66106 25.9137 9.65244 25.5363 9.61944C25.0337 9.5976 24.5697 9.61809 24.0678 9.63604L23.373 9.68898C23.2036 9.69449 23.0047 9.72445 22.8711 9.63074C22.5367 9.16982 23.1363 8.85859 22.4231 8.29336C22.4627 8.19845 22.5657 7.15795 22.6742 6.76983C23.0511 6.49092 23.3752 6.37453 23.8229 6.26399Z" fill="#F3F3F5"/>
    <path d="M24.1499 8.18592C24.6015 8.09977 25.6357 8.11447 26.1384 8.10889L26.2128 8.212C26.5964 8.54655 26.4423 9.02783 26.4137 9.51758L26.4446 9.62691C26.069 9.66069 25.9135 9.65207 25.5361 9.61906C25.0335 9.59723 24.5695 9.61772 24.0676 9.63567C23.8182 9.60182 23.7991 9.64316 23.6554 9.48472C23.525 9.12182 23.6232 8.58415 23.6648 8.18663L24.1499 8.18592Z" fill="#F3F3F5"/>
    <path d="M24.1499 8.18592C24.6015 8.09977 25.6358 8.11447 26.1384 8.10889L26.2128 8.212C26.5965 8.54655 26.4424 9.02783 26.4137 9.51758L26.4446 9.62691C26.0691 9.66069 25.9136 9.65207 25.5362 9.61906C25.4615 9.01687 25.5532 8.79793 25.7505 8.23892C25.2731 8.18867 24.6424 8.19362 24.1499 8.18592Z" fill="#6A7684"/>
    <path d="M22.6742 6.76952C23.0511 6.4906 23.3752 6.37422 23.8229 6.26367C23.5711 6.87745 23.6813 7.23813 23.5449 7.85573L23.544 7.8929L23.3659 7.91135L23.075 8.03276L23.0542 8.11283C23.3152 8.17318 23.3993 8.17905 23.6649 8.18668C23.6234 8.58421 23.5252 9.12188 23.6555 9.48477C23.7993 9.64322 23.8184 9.60188 24.0678 9.63573L23.373 9.68866C23.2036 9.69417 23.0047 9.72414 22.8711 9.63043C22.5367 9.16951 23.1363 8.85827 22.4231 8.29304C22.4627 8.19813 22.5657 7.15764 22.6742 6.76952Z" fill="#919CA7"/>
    <path d="M23.3658 7.91175C23.2097 7.94419 23.1832 7.93995 23.0246 7.91811L22.9273 7.77677C22.8787 7.44461 22.918 6.88981 23.2715 6.73682L23.3835 6.80306C23.5284 7.08772 23.5249 7.52701 23.5448 7.85613L23.5439 7.8933L23.3658 7.91175Z" fill="#AAB1BC"/>
    <path d="M26.1797 6.2793L26.9574 6.29251L27.0216 6.49749L26.8566 6.64664C26.9148 6.99528 27.0109 7.46161 26.9922 7.80422L26.8982 7.91546L26.9722 8.05348C26.8055 8.1479 26.3542 8.11263 26.1383 8.10896C25.6357 8.11454 24.6015 8.09984 24.1498 8.18599L23.6647 8.1867C23.3991 8.17906 23.315 8.1732 23.054 8.11284L23.0747 8.03277L23.3656 7.91136L23.5438 7.89291C23.8497 7.76125 23.949 7.93263 24.2345 7.94705L24.8094 7.88133C24.9323 7.82613 25.7933 7.80931 26.0054 7.80118C26.1362 7.28606 26.1607 6.80605 26.1797 6.2793Z" fill="#C5C9CE"/>
    <path d="M23.5438 7.89318C23.8497 7.76152 23.949 7.9329 24.2345 7.94732L24.8094 7.8816C25.4576 7.9669 26.2399 7.88145 26.8982 7.91573L26.9722 8.05375C26.8055 8.14817 26.3542 8.1129 26.1383 8.10923C25.6357 8.11481 24.6015 8.10011 24.1498 8.18626L23.6647 8.18697C23.3991 8.17933 23.315 8.17347 23.054 8.11311L23.0747 8.03304L23.3656 7.91163L23.5438 7.89318Z" fill="#171A1F"/>
    <path d="M23.8228 6.26399L24.3919 6.19727L24.4469 6.28639C24.3035 6.73235 24.2696 7.46021 24.2346 7.94735C23.9492 7.93293 23.8498 7.76155 23.5439 7.89322L23.5448 7.85604C23.6812 7.23845 23.571 6.87777 23.8228 6.26399Z" fill="#232E3C"/>
    <path d="M28.0217 6.19141L28.7088 6.29401L29.0777 6.43852C29.2004 6.51488 29.482 6.6792 29.5836 6.76014C29.7215 7.27423 29.7982 7.66871 29.8901 8.19373C29.6252 8.20787 29.5274 8.18172 29.3455 8.01529C29.1663 8.08857 29.0576 8.12723 28.8707 8.17783L28.9649 8.27147C28.3643 8.66928 28.9294 9.11748 28.631 9.55493C28.4091 9.64589 28.2232 9.62348 27.9845 9.61762L26.4447 9.62716L26.4138 9.51783C26.4424 9.02808 26.5965 8.54681 26.2128 8.21225L26.1384 8.10914C26.3543 8.11281 26.8056 8.14808 26.9723 8.05366L26.8983 7.91564L26.9924 7.8044C27.011 7.46179 26.9149 6.99546 26.8567 6.64682L27.0217 6.49767L26.9575 6.29269C27.3001 6.30949 27.6792 6.24104 28.0217 6.19141Z" fill="#414C5A"/>
    <path d="M28.1814 8.18099L28.8708 8.17773L28.965 8.27137C28.3644 8.66918 28.9295 9.11738 28.6311 9.55484C28.4092 9.64579 28.2233 9.62339 27.9845 9.61752L26.4447 9.62706L26.4138 9.51773C26.4425 9.02798 26.5966 8.54671 26.2129 8.21215L27.9173 8.19258L28.1814 8.18099Z" fill="#F3F3F5"/>
    <path d="M28.1814 8.18099L28.8708 8.17773L28.965 8.27137C28.3644 8.66918 28.9295 9.11738 28.6311 9.55484C28.4092 9.64579 28.2233 9.62339 27.9845 9.61752L26.4447 9.62706L26.4138 9.51773L27.9319 9.48904L27.9173 8.19258L28.1814 8.18099Z" fill="#919CA7"/>
    <path d="M29.0776 6.43848C29.2004 6.51483 29.482 6.67916 29.5835 6.7601C29.7215 7.27418 29.7982 7.66867 29.8901 8.19369C29.6252 8.20782 29.5274 8.18167 29.3455 8.01524L29.0598 7.89969L29.0776 6.43848Z" fill="#7E8B99"/>
    <path d="M28.4985 7.28985C28.4958 7.00606 28.4714 6.61555 28.5556 6.35563L28.7089 6.29395L29.0777 6.43846L29.0599 7.89968L28.5934 7.90038C28.5267 7.71084 28.5172 7.49162 28.4985 7.28985Z" fill="#C5C9CE"/>
    <path d="M28.0217 6.19141L28.7088 6.29401L28.5556 6.35569C28.4713 6.61561 28.4958 7.00612 28.4984 7.28992C28.4561 7.07804 28.4222 6.77055 28.3908 6.54905C27.8372 6.56116 27.408 6.591 26.8567 6.64682L27.0217 6.49767L26.9575 6.29269C27.3001 6.30949 27.6792 6.24104 28.0217 6.19141Z" fill="#919CA7"/>
    <path d="M28.5934 7.90061L29.0599 7.8999L29.3456 8.01545C29.1664 8.08874 29.0577 8.12739 28.8708 8.17799L28.1814 8.18125C27.9966 8.1551 27.9332 8.15312 27.7715 8.06337C27.9359 7.95397 28.3751 7.92655 28.5934 7.90061Z" fill="#232E3C"/>
    <path d="M29.3454 8.01514C29.5273 8.18157 29.6251 8.20772 29.89 8.19358L30.1082 8.29408C31.4487 8.66637 31.4832 8.88941 31.2487 10.2916C30.8063 10.0174 30.4884 9.94503 29.9968 9.81874C29.3417 9.76227 28.6298 9.71436 27.9844 9.61747C28.2231 9.62333 28.409 9.64574 28.6309 9.55478C28.9293 9.11733 28.3642 8.66913 28.9648 8.27132L28.8706 8.17768C29.0575 8.12708 29.1662 8.08842 29.3454 8.01514Z" fill="#505D6B"/>
    <path d="M30.1083 8.29443C31.4489 8.66673 31.4833 8.88977 31.2489 10.292C30.8064 10.0178 30.4885 9.94539 29.9969 9.8191C29.985 9.47952 29.8661 8.48949 30.1083 8.29443Z" fill="#AAB1BC"/>
    <path d="M27.1477 10.0418C28.1045 9.98976 29.2264 10.3164 29.9283 10.244C29.6864 10.7462 30.0379 11.6372 29.6242 12.6284C28.9418 12.1414 28.8473 12.4893 28.3828 11.6635C28.2071 11.1932 28.1151 10.6364 28.0163 10.1402C27.7213 10.1174 27.4411 10.0801 27.1477 10.0418Z" fill="#505D6B"/>
    <path d="M21.4995 8.496C21.6891 8.33141 22.181 8.31211 22.423 8.29346C23.1362 8.85869 22.5366 9.16992 22.8709 9.63084C23.0046 9.72455 23.2035 9.69459 23.3729 9.68908C23.0522 9.74667 22.0654 9.93819 21.7715 9.9237C21.597 9.9671 21.0011 10.238 21.0144 10.2364C20.8374 9.54823 20.7859 8.8348 21.4995 8.496Z" fill="#505D6B"/>
    <path d="M21.4995 8.49561C21.7859 8.74126 21.8005 9.54713 21.7715 9.92331C21.597 9.9667 21.0011 10.2376 21.0144 10.236C20.8374 9.54783 20.7859 8.8344 21.4995 8.49561Z" fill="#AAB1BC"/>
    <path d="M21.7189 10.3811C22.1894 10.2744 22.5841 10.2066 23.0605 10.1328C23.0533 10.396 23.093 10.7867 22.9552 10.9667L22.7331 11.0862L22.8588 11.2057C22.3643 11.2607 22.018 11.6985 21.4393 11.8501C21.4064 11.7948 21.3467 11.596 21.324 11.5257C21.4041 11.2156 21.434 11.1653 21.3471 10.8881C21.4475 10.6226 21.514 10.571 21.7189 10.3811Z" fill="#414C5A"/>
    <path d="M21.7189 10.3813C22.0553 10.6811 21.9773 10.6868 21.8316 11.1224L21.9183 11.203C22.1454 11.164 22.5624 11.0345 22.7331 11.0864L22.8588 11.2059C22.3643 11.2609 22.018 11.6987 21.4393 11.8503C21.4064 11.7951 21.3467 11.5963 21.324 11.5259C21.4041 11.2159 21.434 11.1655 21.3471 10.8884C21.4475 10.6229 21.514 10.5713 21.7189 10.3813Z" fill="#7E8B99"/>
    <path d="M25.0059 10.0161C25.5473 9.96921 26.1273 10.0056 26.6729 10.0253L26.666 10.2273C26.2621 10.2496 25.9911 10.2802 25.5905 10.1875C25.4646 10.0118 25.2149 10.0392 25.0059 10.0161Z" fill="#AAB1BC"/>
    <path d="M9.14487 16.1097C9.26085 16.0035 9.62204 15.5669 9.76752 15.4132C10.2799 14.8678 10.8194 14.3483 11.3839 13.8568C14.1295 11.4777 17.0642 11.2743 20.4749 11.6418C20.7168 11.6679 21.1354 11.6893 21.324 11.526C21.3467 11.5963 21.4064 11.7951 21.4393 11.8504C21.1917 12.0203 21.0036 12.0613 20.9527 12.2751L20.9894 12.3657C20.3326 12.351 19.9238 12.2749 19.3854 12.6811C16.4543 12.3691 13.7864 13.0474 11.6063 15.1089C10.8372 15.8362 10.6695 16.3406 10.2894 17.2599C9.57091 18.4827 9.39693 19.2173 9.21319 20.6372C9.18659 20.8428 9.11113 21.3553 9.12648 21.5401L8.93255 21.6336C9.4615 21.7793 10.5237 21.6584 11.0401 21.7563C10.6608 21.7759 10.1487 21.7659 9.75996 21.7685L9.10427 21.759C8.77413 21.7944 8.69025 21.8462 8.44144 22.0989L8.29412 22.0505C8.13351 22.5609 7.77826 22.2633 7.27336 22.3934C7.16133 22.3993 6.95676 22.3868 6.83691 22.3835L7.04581 21.9837C7.01674 21.2474 7.52294 19.4252 7.79841 18.7295C8.0509 18.0782 8.59767 16.4414 9.14487 16.1097Z" fill="#505D6B"/>
    <path d="M9.14479 16.1092C9.34183 16.0835 9.45923 16.0611 9.65175 16.0117C9.63194 16.0281 9.33356 16.2738 9.33433 16.2716C9.131 16.8855 8.64986 18.5379 8.02614 18.782L7.79834 18.7291C8.05083 18.0777 8.5976 16.4409 9.14479 16.1092Z" fill="#5C6979"/>
    <path d="M7.04581 21.9834C7.43468 21.8688 7.76468 21.866 8.17177 21.8213C8.24476 21.9127 8.26668 21.9334 8.29412 22.0503C8.13351 22.5607 7.77826 22.2631 7.27336 22.3931C7.16133 22.399 6.95676 22.3865 6.83691 22.3832L7.04581 21.9834Z" fill="#919CA7"/>
    <path d="M14.1401 16.2243C14.2505 16.0979 14.3683 15.9783 14.4931 15.8662C16.5861 14.0178 19.3937 14.6838 22.0168 14.8563C22.1556 14.9918 23.7138 15.0333 23.9294 15.6057L23.7268 15.6908C24.5517 16.2109 26.1171 16.4774 27.0595 16.241C27.9641 16.0141 28.2997 15.6481 28.8953 15.0145C28.6722 16.5574 27.6982 17.1073 26.207 16.9146C24.9726 16.7551 24.0641 15.8053 22.7996 15.908C20.3963 15.6077 19.3757 15.1032 16.8428 15.6453C16.3811 15.7441 14.3852 16.2175 14.1401 16.2243Z" fill="#AAB1BC"/>
    <path d="M26.6729 10.0254L27.1477 10.0416C27.441 10.0799 27.7212 10.1172 28.0162 10.14C28.1151 10.6362 28.207 11.193 28.3827 11.6633C28.4448 12.2695 28.7148 13.3284 29.0154 13.8611C29.003 14.3444 28.9775 14.544 28.8951 15.0145C28.2996 15.6481 27.9639 16.0142 27.0593 16.2411C26.1169 16.4775 24.5515 16.2109 23.7266 15.6908L23.9292 15.6057C23.7136 15.0333 22.1554 14.9918 22.0166 14.8563C22.151 14.8344 22.8748 14.8703 22.9768 14.9168C24.1914 15.4724 25.5484 16.2042 26.9187 15.6362C28.053 15.1661 28.6827 14.1561 28.2051 12.9811C27.6444 12.5986 26.9476 12.4245 26.5336 12.1259C26.629 11.5618 26.6439 10.8013 26.666 10.2274L26.6729 10.0254Z" fill="#C5C9CE"/>
    <path d="M21.4392 11.8499C22.0179 11.6984 22.3642 11.2605 22.8587 11.2056C22.9399 11.2388 23.1848 11.3444 23.2549 11.3593L23.3296 11.4223C23.6311 11.5763 24.2872 11.8921 24.5485 12.0603C24.2776 12.4354 24.0475 12.5695 23.5707 12.6485C23.1948 12.4993 22.8595 12.6599 22.4142 12.4222C22.0141 12.4309 21.4031 12.3851 20.9893 12.3652L20.9526 12.2747C21.0035 12.0608 21.1916 12.0198 21.4392 11.8499Z" fill="#414C5A"/>
    <path d="M23.3298 11.4224C23.6313 11.5764 24.2874 11.8921 24.5486 12.0604C24.2778 12.4354 24.0476 12.5695 23.5709 12.6485C23.195 12.4994 22.8597 12.66 22.4143 12.4222C22.9824 12.2541 23.1798 11.9771 23.3298 11.4224Z" fill="#6A7684"/>
    <path d="M19.3855 12.6807C19.9239 12.2745 20.3327 12.3506 20.9895 12.3653C21.4033 12.3852 22.0143 12.431 22.4143 12.4222C22.8597 12.66 23.195 12.4994 23.5709 12.6485C23.1007 12.787 22.3573 12.9855 21.9355 13.1789C21.1172 13.0674 20.2014 12.8528 19.3855 12.6807Z" fill="#7E8B99"/>
    <path d="M25.5907 10.1875C25.9913 10.2802 26.2622 10.2495 26.6662 10.2273C26.6441 10.8012 26.6291 11.5617 26.5338 12.1258C26.2769 11.9583 25.874 11.933 25.4995 11.6623C25.4613 11.5886 25.5896 10.438 25.5907 10.1875Z" fill="#7E8B99"/>
    <path d="M24.5487 12.0605C24.765 12.2274 25.0477 12.4075 25.1441 12.6534C25.1051 13.4413 22.9855 13.2887 22.3909 13.2349C22.2386 13.2208 22.0868 13.2021 21.9355 13.1791C22.3574 12.9856 23.1008 12.7872 23.571 12.6487C24.0477 12.5697 24.2779 12.4356 24.5487 12.0605Z" fill="#AAB1BC"/>
    <path d="M23.0605 10.133C23.6011 10.0429 23.785 10.0191 24.3346 10.0395C24.1032 10.0687 23.8717 10.0659 23.7194 10.2356C23.6507 10.5272 23.9217 10.7761 23.5729 11.1576L23.3219 11.1997L23.255 11.3596C23.1849 11.3446 22.94 11.239 22.8588 11.2058L22.7332 11.0863L22.9553 10.9669C23.0931 10.7868 23.0534 10.3961 23.0605 10.133Z" fill="#919CA7"/>
    <path d="M29.9283 10.2437C30.4671 10.441 30.5575 10.5603 30.879 11.041C30.8975 11.4446 30.8783 12.0074 31.1576 12.3026C31.506 12.3774 31.7874 12.1022 32.0749 11.9093C32.7985 11.4239 34.2519 11.6815 35.0424 11.9855C35.3607 12.1745 35.7452 12.3959 35.9876 12.6769C36.6686 13.6039 36.9811 13.9409 37.2428 15.0715C37.6207 17.2085 37.5423 18.9152 36.527 20.8308C35.8204 22.1215 34.6719 23.0638 33.1289 22.9638C32.667 22.9948 32.1562 22.8357 31.7247 22.6829C31.0958 22.3971 30.7498 21.8363 30.2893 21.7953C30.313 21.6463 30.5824 21.421 30.7045 21.3011C29.6098 20.5545 31.6005 17.9014 29.381 18.8711C28.9798 19.2401 28.611 19.4137 28.1101 19.6253C28.2749 19.136 28.8836 18.6822 29.0422 18.179C29.4958 16.7393 29.6197 15.2404 29.0154 13.861C28.7148 13.3283 28.4448 12.2694 28.3828 11.6632C28.8473 12.489 28.9418 12.1411 29.6242 12.6281C30.0378 11.6369 29.6864 10.7459 29.9283 10.2437Z" fill="#919CA7"/>
    <path d="M36.0478 14.7587L36.2192 14.5923L36.3539 15.1945C36.6313 15.1949 36.9751 15.3114 37.2008 15.2212L37.2428 15.0716C37.6208 17.2085 37.5423 18.9153 36.527 20.8309C35.8205 22.1215 34.6719 23.0639 33.1289 22.9639C32.6671 22.9949 32.1562 22.8357 31.7247 22.683C31.0958 22.3972 30.7498 21.8364 30.2893 21.7954C30.3131 21.6464 30.5825 21.4211 30.7045 21.3012L30.8318 21.162L31.0362 21.0295C31.2733 21.2132 31.3106 21.2005 31.6102 21.097L31.6658 21.2243C31.7961 21.2213 31.9603 21.2027 32.0711 21.261C32.1412 20.9327 32.4603 20.7332 32.7314 20.5114C32.6434 20.4896 32.6135 20.4255 32.5423 20.3451C32.7112 20.1623 32.8567 19.9042 32.9896 19.6889C33.1389 19.3166 33.2576 19.0391 33.3467 18.6431C33.4571 17.4473 33.5477 17.3161 33.5213 15.9521L33.5606 16.0323C33.7673 16.7499 35.1971 16.5111 35.515 15.9484C35.951 15.2685 35.3677 15.115 35.9457 14.8586L36.0478 14.7587Z" fill="#838D99"/>
    <path d="M33.3467 18.6431C33.5587 18.8038 34.9199 19.0034 35.1689 18.9344L35.2229 19.3212L35.127 19.4977C35.1827 19.5444 35.3568 19.6818 35.3839 19.7328L35.5059 19.9394C35.5538 20.2707 35.5899 20.4625 35.5633 20.7952C35.8091 21.0424 35.7735 20.7399 35.9859 21.0103C36.1467 20.939 36.3556 20.8826 36.527 20.8308C35.8205 22.1215 34.6719 23.0638 33.1289 22.9638C32.6671 22.9949 32.1562 22.8357 31.7247 22.683C31.0958 22.3971 30.7498 21.8364 30.2893 21.7954C30.3131 21.6464 30.5825 21.4211 30.7045 21.3012L30.8318 21.162L31.0362 21.0294C31.2733 21.2132 31.3106 21.2005 31.6102 21.097L31.6658 21.2243C31.7961 21.2212 31.9603 21.2027 32.0711 21.261C32.1412 20.9327 32.4603 20.7332 32.7314 20.5113C32.6434 20.4896 32.6135 20.4255 32.5423 20.3451C32.7112 20.1623 32.8567 19.9041 32.9896 19.6889C33.1389 19.3166 33.2576 19.0391 33.3467 18.6431Z" fill="#5C6979"/>
    <path d="M33.3466 18.6431C33.5586 18.8038 34.9199 19.0034 35.1689 18.9344L35.2228 19.3212L35.1269 19.4977C34.9666 19.9173 34.8848 20.0396 34.6316 20.4118C34.5261 20.5252 34.3244 20.7051 34.3095 20.845C34.2884 20.8555 34.267 20.8654 34.2453 20.8747C33.8509 21.0431 33.1472 20.6814 32.7314 20.5113C32.6434 20.4896 32.6134 20.4255 32.5422 20.3451C32.7111 20.1623 32.8566 19.9041 32.9896 19.6889C33.1389 19.3166 33.2575 19.0391 33.3466 18.6431Z" fill="#E0E1E3"/>
    <path d="M32.9896 19.689C33.3279 20.2042 33.981 20.2459 34.6317 20.4119C34.5261 20.5253 34.3244 20.7052 34.3095 20.8451C34.2884 20.8556 34.267 20.8655 34.2453 20.8748C33.8509 21.0432 33.1472 20.6815 32.7314 20.5114C32.6434 20.4897 32.6134 20.4256 32.5422 20.3452C32.7111 20.1624 32.8566 19.9042 32.9896 19.689Z" fill="#C5C9CE"/>
    <path d="M30.8318 21.1619L31.0362 21.0293C31.2733 21.213 31.3106 21.2003 31.6102 21.0969L31.6658 21.2241C31.7961 21.2211 31.9603 21.2026 32.0711 21.2609L32.2924 21.3823L32.2006 21.5224C32.3685 21.7316 32.7275 21.754 32.9668 21.8912C32.5273 22.0952 32.0276 22.2986 31.7247 22.6829C31.0958 22.397 30.7498 21.8362 30.2893 21.7952C30.3131 21.6463 30.5825 21.421 30.7045 21.301L30.8318 21.1619Z" fill="#343D49"/>
    <path d="M35.127 19.498C35.1827 19.5448 35.3568 19.6821 35.3839 19.7332L35.5059 19.9397C35.5538 20.2711 35.5899 20.4629 35.5633 20.7955C35.8091 21.0428 35.7735 20.7402 35.9859 21.0107C35.6255 21.3238 35.3616 21.5778 35.0278 21.9189C34.8324 21.6657 34.4797 21.2416 34.3401 20.993L34.3954 20.9289L34.3096 20.8454C34.3245 20.7055 34.5262 20.5255 34.6317 20.4121C34.8849 20.04 34.9667 19.9176 35.127 19.498Z" fill="#C5C9CE"/>
    <path d="M34.5112 20.8298C34.7584 21.0237 35.3215 20.9834 35.5633 20.7954C35.8092 21.0427 35.7735 20.7401 35.9859 21.0106C35.6256 21.3237 35.3616 21.5777 35.0278 21.9188C34.8325 21.6656 34.4797 21.2415 34.3401 20.9929L34.3954 20.9288L34.5112 20.8298Z" fill="#AAB1BC"/>
    <path d="M35.127 19.498C35.1827 19.5448 35.3568 19.6821 35.3839 19.7332C35.1085 19.9814 34.7677 20.5154 34.5111 20.8299L34.3954 20.9289L34.3096 20.8454C34.3245 20.7055 34.5262 20.5255 34.6317 20.4121C34.8849 20.04 34.9667 19.9176 35.127 19.498Z" fill="#5C6979"/>
    <path d="M32.7313 20.5112C33.1472 20.6813 33.8508 21.043 34.2453 20.8746C34.267 20.8653 34.2883 20.8554 34.3095 20.8449L34.3953 20.9285L34.34 20.9925C34.2703 21.0519 34.0745 21.2301 34.0039 21.2547C33.6534 21.549 33.368 21.6825 32.9667 21.8912C32.7274 21.754 32.3684 21.7317 32.2005 21.5225L32.2923 21.3823L32.071 21.2609C32.1411 20.9326 32.4602 20.7331 32.7313 20.5112Z" fill="#505D6B"/>
    <path d="M32.2925 21.3826C33.2456 21.5148 33.3302 21.2498 34.0042 21.255C33.6536 21.5493 33.3682 21.6827 32.9669 21.8915C32.7277 21.7543 32.3686 21.7319 32.2007 21.5227L32.2925 21.3826Z" fill="#232E3C"/>
    <path d="M35.9859 21.0106C36.1467 20.9392 36.3556 20.8829 36.527 20.8311C35.8205 22.1217 34.6719 23.0641 33.1289 22.9641C33.7977 22.8518 34.5684 22.4077 35.0278 21.9188C35.3616 21.5777 35.6256 21.3236 35.9859 21.0106Z" fill="#232E3C"/>
    <path d="M33.5214 15.952L33.5606 16.0321C33.7673 16.7497 35.1971 16.5109 35.515 15.9482L35.4929 16.7077C35.4909 17.6779 35.5703 18.4138 35.2229 19.3211L35.169 18.9342C34.9199 19.0033 33.5587 18.8037 33.3467 18.6429C33.4572 17.4471 33.5477 17.3159 33.5214 15.952Z" fill="#414C5A"/>
    <path d="M33.5214 15.952L33.5606 16.0321C33.7673 16.7497 35.1971 16.5109 35.515 15.9482L35.4929 16.7077C34.9104 16.9525 34.5509 16.9686 33.9249 16.9971C33.1899 19.0017 34.2411 18.2304 35.1087 18.7519C35.1434 18.8245 35.1789 18.8655 35.169 18.9342C34.9199 19.0033 33.5587 18.8037 33.3467 18.6429C33.4572 17.4471 33.5477 17.3159 33.5214 15.952Z" fill="#505D6B"/>
    <path d="M36.0478 14.7587L36.2192 14.5923L36.3538 15.1945C36.633 17.1671 36.4687 18.4779 35.923 20.4161L35.5059 19.9394L35.3839 19.7329C35.3567 19.6818 35.1826 19.5444 35.127 19.4977L35.2229 19.3213C35.5703 18.4139 35.4908 17.678 35.4928 16.7079L35.5149 15.9484C35.951 15.2685 35.3676 15.115 35.9457 14.8586L36.0478 14.7587Z" fill="#3A444E"/>
    <path d="M29.9284 10.2437C30.4672 10.441 30.5576 10.5603 30.8791 11.041C30.8976 11.4446 30.8784 12.0074 31.1577 12.3026C31.5061 12.3774 31.7874 12.1022 32.075 11.9093C32.7986 11.4239 34.252 11.6815 35.0425 11.9855C35.3608 12.1745 35.7453 12.3959 35.9877 12.6769C36.6687 13.6039 36.9812 13.9409 37.2429 15.0715L37.2008 15.2211C36.9752 15.3113 36.6314 15.1948 36.3539 15.1945L36.2193 14.5922L36.0479 14.7586L35.9458 14.8585C35.3677 15.115 35.9511 15.2684 35.5151 15.9483C35.1971 16.511 33.7674 16.7498 33.5606 16.0322L33.5214 15.9521C33.3947 15.0439 33.0265 14.3385 32.3413 13.7331C32.2602 13.6999 31.9881 13.4598 31.7625 13.3524C31.7439 13.5159 31.867 13.6961 31.9482 13.8476C31.3859 13.5039 30.5775 12.2621 29.8269 12.3877L29.7583 12.5714L29.6243 12.6281C30.0379 11.6369 29.6865 10.7459 29.9284 10.2437Z" fill="#6A7684"/>
    <path d="M32.3413 13.7335C32.7512 13.5658 33.7516 13.5326 34.1833 13.7152C34.7933 13.9733 35.4272 14.9097 35.129 15.562C35.0375 15.7577 34.8713 15.9084 34.6674 15.9803C34.427 16.0675 33.8016 16.1109 33.5607 16.0326L33.5214 15.9524C33.3948 15.0443 33.0265 14.3388 32.3413 13.7335Z" fill="#E0E1E3"/>
    <path d="M35.9876 12.6772C36.6686 13.6042 36.9811 13.9412 37.2428 15.0718L37.2007 15.2214C36.9751 15.3116 36.6313 15.1951 36.3538 15.1948L36.2192 14.5925L36.0478 14.7589C35.9808 14.3062 35.7747 13.8701 35.5655 13.4675L35.5723 13.3138C35.4802 13.2158 35.5053 13.2642 35.4819 13.1264C35.6475 12.9733 35.816 12.8235 35.9876 12.6772Z" fill="#E0E1E3"/>
    <path d="M35.5725 13.3135C35.9169 13.7596 36.0528 14.0523 36.2193 14.5922L36.0479 14.7586C35.9809 14.3059 35.7748 13.8698 35.5657 13.4672L35.5725 13.3135Z" fill="#6A7684"/>
    <path d="M35.3071 13.2437C35.3801 13.3026 35.5099 13.3993 35.5656 13.4675C35.7748 13.8702 35.9809 14.3063 36.0479 14.759L35.9458 14.8588C35.2301 14.855 34.8012 14.2415 34.8551 13.5621C35.0018 13.3409 35.046 13.3686 35.3071 13.2437Z" fill="#E0E1E3"/>
    <path d="M35.0425 11.9858C35.3608 12.1749 35.7453 12.3962 35.9877 12.6773C35.8161 12.8236 35.6476 12.9733 35.482 13.1264C35.5054 13.2643 35.4803 13.2158 35.5724 13.3138L35.5656 13.4675C35.5099 13.3993 35.3801 13.3026 35.307 13.2436C35.3214 12.8373 34.612 12.5699 34.5601 12.1406C34.7447 11.9851 34.7787 12.0225 35.0425 11.9858Z" fill="#919CA7"/>
    <path d="M32.5391 12.7025C32.9087 12.6903 33.6306 13.0412 33.9085 13.282C33.4346 13.2764 32.7923 13.1217 32.5391 12.7025Z" fill="#505D6B"/>
    <path d="M28.3828 11.6636C28.8473 12.4894 28.9418 12.1415 29.6242 12.6285L29.7582 12.5718L29.8268 12.388C30.5774 12.2624 31.3859 13.5042 31.9481 13.848C32.2437 14.1564 32.4813 14.4042 32.6257 14.816L32.6964 15.0165C32.6666 15.2952 32.6481 15.5485 32.5703 15.8184C32.3669 16.044 32.1443 16.2108 31.9076 16.3997C31.6125 16.1805 31.2844 15.8322 31.0185 15.5667L31.1179 16.1625C30.8988 16.107 30.6007 15.9969 30.4043 16.076C30.2823 16.3307 30.3489 16.5034 30.307 16.7873C30.1835 17.6218 29.859 18.1964 29.381 18.8715C28.9798 19.2405 28.611 19.414 28.1101 19.6257C28.2749 19.1364 28.8836 18.6825 29.0422 18.1793C29.4958 16.7397 29.6197 15.2407 29.0154 13.8613C28.7148 13.3287 28.4448 12.2697 28.3828 11.6636Z" fill="#7E8B99"/>
    <path d="M30.7979 14.9924L30.801 14.9054C30.8166 14.497 30.7683 14.2158 31.0556 13.9494C31.2624 13.8946 31.3972 13.9922 31.5873 14.0904C31.8946 14.4682 32.1504 14.6805 32.6258 14.8158L32.6965 15.0163C32.6667 15.295 32.6483 15.5484 32.5705 15.8182C32.367 16.0438 32.1444 16.2106 31.9077 16.3995C31.6126 16.1803 31.2846 15.832 31.0187 15.5665L30.7979 14.9924Z" fill="#E0E1E3"/>
    <path d="M30.7979 14.9921C30.6387 14.4759 30.1664 13.9419 30.4889 13.374C30.9934 13.1225 31.3837 13.7261 31.5873 14.0901C31.3973 13.992 31.2625 13.8943 31.0556 13.9492C30.7683 14.2155 30.8166 14.4968 30.801 14.9051L30.7979 14.9921Z" fill="#AAB1BC"/>
    <path d="M31.9481 13.8477C31.8669 13.6962 31.7438 13.516 31.7624 13.3525C31.988 13.46 32.2602 13.7 32.3412 13.7332C33.0264 14.3386 33.3947 15.0441 33.5213 15.9522C33.5477 17.3161 33.4571 17.4473 33.3466 18.6431C33.2576 19.0392 33.1389 19.3166 32.9896 19.6889C32.8567 19.9042 32.7112 20.1624 32.5423 20.3452C32.6134 20.4255 32.6434 20.4896 32.7314 20.5114C32.4603 20.7332 32.1411 20.9328 32.0711 21.2611C31.9603 21.2028 31.7961 21.2213 31.6658 21.2243L31.6102 21.0971C31.3106 21.2005 31.2733 21.2132 31.0361 21.0295L31.6446 20.4359L31.9427 20.11C32.3307 19.6793 32.4936 19.272 32.7112 18.7504C33.1847 18.1211 33.1292 16.0796 32.8477 15.3604L32.6964 15.0163L32.6257 14.8158C32.4813 14.404 32.2438 14.1561 31.9481 13.8477Z" fill="#0C1014"/>
    <path d="M31.6101 21.0971C31.8886 20.943 32.2759 20.5695 32.5422 20.3452C32.6133 20.4256 32.6433 20.4897 32.7313 20.5114C32.4602 20.7333 32.141 20.9328 32.071 21.2611C31.9602 21.2028 31.796 21.2213 31.6657 21.2244L31.6101 21.0971Z" fill="#6A7684"/>
    <path d="M29.3811 18.8715C29.8591 18.1965 30.1837 17.6218 30.3071 16.7873C30.349 16.5034 30.2825 16.3307 30.4044 16.076C30.6009 15.9969 30.8989 16.107 31.118 16.1625L31.1855 16.4473C31.2095 16.7062 31.2578 17.1807 31.2218 17.4242C31.0966 18.2699 30.2276 20.4406 30.8319 21.1623L30.7046 21.3015C29.6099 20.5549 31.6007 17.9018 29.3811 18.8715Z" fill="#6A7684"/>
    <path d="M31.6445 20.4358C31.3937 20.4488 31.142 20.5024 31.0464 20.204C30.87 19.6535 31.2536 18.8191 31.7747 18.5782C31.9315 18.5057 32.0436 18.5752 32.1801 18.6407C32.269 18.8559 32.0096 19.7822 31.9427 20.1098L31.6445 20.4358Z" fill="#C5C9CE"/>
    <path d="M32.8477 15.3604C33.1293 16.0796 33.1848 18.1211 32.7112 18.7504C32.311 17.9591 32.4255 16.9534 32.6599 16.1303C32.7532 15.8027 32.8524 15.7119 32.8477 15.3604Z" fill="#4E5B64"/>
    <path d="M31.0186 15.5664C31.2845 15.8319 31.6125 16.1802 31.9076 16.3994C32.1443 16.2105 32.3669 16.0437 32.5704 15.8181C32.4324 16.3992 32.2187 16.645 31.7897 17.0641C31.5222 16.8518 31.3499 16.7489 31.1854 16.447L31.1179 16.1622L31.0186 15.5664Z" fill="#AAB1BC"/>
    <path d="M29.381 18.8712C31.6006 17.9014 29.6098 20.5546 30.7046 21.3011C30.5825 21.4211 30.3131 21.6464 30.2893 21.7953C30.1602 21.8859 29.9973 22.0077 29.8652 22.0866C29.0589 22.5307 27.5065 23.2799 26.5663 23.1707C24.8753 23.3311 23.6788 23.0312 22.186 22.2349C20.569 21.5228 19.1408 18.942 17.1805 21.069C17.1792 20.7812 17.3059 20.3269 17.3758 20.0325C17.2165 19.8061 17.0789 19.6846 16.8801 19.495C18.086 18.3346 19.3917 18.7785 21.0404 18.7915C21.3348 18.8185 21.6148 18.8384 21.9043 18.9001C22.4346 19.1338 22.7687 19.6667 23.2461 19.9893C24.4919 20.8254 25.3146 20.7503 26.7707 20.7961C26.8229 20.6735 26.8848 20.4212 26.9231 20.2835C27.2747 20.0127 27.7095 19.8207 28.1102 19.6254C28.6111 19.4137 28.9799 19.2401 29.381 18.8712Z" fill="#232E3C"/>
    <path d="M29.3809 18.8712C31.6004 17.9014 29.6097 20.5546 30.7044 21.3011C30.5823 21.4211 30.313 21.6464 30.2892 21.7953C30.1601 21.8859 29.9972 22.0077 29.8651 22.0866C29.765 21.984 29.4472 21.7462 29.3198 21.6465C29.5848 21.2707 30.2735 20.3886 29.9738 19.9372C29.4916 19.7741 28.461 20.5835 27.8312 20.7028C27.333 20.7972 27.2878 20.7966 26.7705 20.7961C26.8227 20.6735 26.8847 20.4212 26.923 20.2835C27.2746 20.0127 27.7094 19.8207 28.11 19.6254C28.611 19.4137 28.9797 19.2401 29.3809 18.8712Z" fill="#5C6979"/>
    <path d="M22.186 22.2349C22.3867 22.0264 22.6125 21.9357 22.8936 21.9439C23.5273 21.9622 25.5977 22.5574 26.085 22.8092L26.1391 22.9194L25.9709 23.0352C26.2349 23.0684 26.3138 23.0843 26.5663 23.1707C24.8753 23.3311 23.6788 23.0311 22.186 22.2349Z" fill="#505D6B"/>
    <path d="M29.0155 13.8613C29.6198 15.2408 29.4959 16.7397 29.0423 18.1793C28.8837 18.6825 28.275 19.1364 28.1102 19.6257C27.7095 19.821 27.2747 20.0131 26.9232 20.2838C26.8161 20.3201 26.6975 20.3365 26.5855 20.3564C26.6566 20.1494 28.0507 19.661 28.2787 19.1369C28.0852 19.0822 27.7114 19.3823 27.504 19.4918C26.9977 19.7589 25.501 19.796 25.3239 19.0756C25.4614 18.973 25.5053 18.9442 25.607 18.8076L25.5602 18.6355C25.3084 18.4963 24.7947 18.6837 24.602 18.9078C24.6289 19.1186 25.0384 19.7123 25.1726 19.934L25.1176 19.9728L24.9383 19.7929C24.5738 19.5018 24.1796 18.9292 24.3914 18.4605C24.5399 18.5172 24.5735 18.5271 24.731 18.5461C24.8985 18.4179 25.0827 17.9604 25.1831 17.7467C24.3721 16.9212 23.6448 16.6191 22.8768 15.9471L22.7996 15.9083C24.064 15.8056 24.9725 16.7554 26.2069 16.9149C27.6981 17.1076 28.6721 16.5577 28.8952 15.0148C28.9776 14.5442 29.0032 14.3446 29.0155 13.8613Z" fill="#919CA7"/>
    <path d="M22.8767 15.9468C23.579 16.026 26.0758 17.4416 26.0416 18.1952C25.7139 18.6414 24.5428 18.4282 24.5013 18.9807C24.4921 19.104 24.8354 19.615 24.9382 19.7926C24.5737 19.5014 24.1795 18.9289 24.3913 18.4602C24.5399 18.5168 24.5734 18.5268 24.731 18.5458C24.8984 18.4175 25.0826 17.9601 25.183 17.7464C24.372 16.9208 23.6447 16.6187 22.8767 15.9468Z" fill="#7E8B99"/>
    <path d="M9.12654 21.54C9.1112 21.3552 9.18666 20.8427 9.21325 20.6371C9.39699 19.2172 9.57098 18.4826 10.2895 17.2598C10.3722 17.537 10.4029 17.6553 10.4373 17.9374C10.4896 18.3675 10.2914 19.6957 10.6729 19.9405C10.9627 19.9157 11.6286 18.9584 11.9708 18.7003C11.755 19.409 11.6668 20.3681 11.5497 21.1222C11.7506 21.1552 12.3388 21.2645 12.5113 21.2644C12.8814 21.2775 13.3547 21.2688 13.6941 21.3929C13.7282 21.4477 13.7646 21.4897 13.7727 21.5491C14.032 21.5428 14.2471 21.5415 14.509 21.5654C14.7587 21.5974 14.9008 21.6184 15.1458 21.6832C15.3791 21.7767 15.491 21.8211 15.7393 21.8767C15.9946 21.8932 16.0644 21.8856 16.2804 22.0967C16.5684 22.2222 16.6103 22.1394 16.7722 21.9226L16.8642 21.886L16.9362 22.4044C16.4467 22.4177 16.2854 22.3158 15.8515 22.0859C15.7092 22.095 15.3601 22.0323 15.2039 22.009C14.8391 21.5791 12.7429 21.6841 12.1627 21.7584L11.0401 21.7562C10.5238 21.6583 9.46157 21.7792 8.93262 21.6335L9.12654 21.54Z" fill="#E0E1E3"/>
    <path d="M13.7727 21.5488C14.032 21.5425 14.2471 21.5412 14.509 21.5651C14.7587 21.5971 14.9008 21.6181 15.1458 21.6829C15.3791 21.7764 15.491 21.8208 15.7393 21.8764C15.9946 21.8929 16.0644 21.8853 16.2804 22.0964C16.5684 22.2219 16.6103 22.1391 16.7722 21.9223L16.8642 21.8857L16.9362 22.4041C16.4467 22.4174 16.2854 22.3155 15.8515 22.0856C15.7092 22.0947 15.3601 22.0321 15.2039 22.0087C14.8391 21.5788 12.7429 21.6838 12.1627 21.7581L11.0401 21.7559C10.5238 21.658 9.46157 21.7789 8.93262 21.6332L9.12654 21.5397C10.682 21.5246 12.2235 21.5574 13.7727 21.5488Z" fill="#343D49"/>
    <path d="M16.1957 19.3436C17.0108 18.6651 18.3671 17.3907 19.307 18.5624C19.4016 18.6802 20.0489 18.6228 20.2183 18.6152C20.1261 18.4233 20.1126 18.3896 20.1015 18.1785C20.1923 18.2718 20.2925 18.5443 20.3493 18.6773C20.58 18.713 20.8104 18.7511 21.0403 18.7915C19.3916 18.7785 18.0859 18.3345 16.88 19.4949C17.0788 19.6846 17.2164 19.8061 17.3757 20.0325C17.3058 20.3269 17.179 20.7812 17.1804 21.0689C17.0317 21.3667 16.9198 21.5578 16.864 21.8857L16.7721 21.9223C16.6101 22.1391 16.5683 22.2219 16.2803 22.0964C16.0643 21.8853 15.9945 21.8929 15.7392 21.8764C15.4961 21.2453 15.6771 20.6482 15.818 20.006C16.0008 19.7591 16.1078 19.6386 16.1957 19.3436Z" fill="#505D6B"/>
    <path d="M16.2803 22.0967C16.306 21.7294 16.3054 21.007 16.6775 20.8135L16.7819 20.914C16.8829 21.1892 16.8046 21.6165 16.7721 21.9227C16.6101 22.1395 16.5683 22.2222 16.2803 22.0967Z" fill="#919CA7"/>
    <path d="M14.1349 20.5687C14.1293 19.9595 14.3039 19.3299 14.6738 18.8386C14.9091 18.5261 15.4715 18.348 15.777 18.6203C15.8876 18.9871 15.8324 19.6052 15.8181 20.006C15.6771 20.6482 15.4962 21.2453 15.7392 21.8764C15.491 21.8208 15.379 21.7764 15.1458 21.6829C14.9008 21.6181 14.7586 21.5971 14.5089 21.5651L14.1742 21.464C14.0427 21.2917 14.0865 21.198 14.0836 20.9488L14.1349 20.5687Z" fill="#AAB1BC"/>
    <path d="M14.1349 20.5691L14.2541 20.5871L14.2682 20.5694C14.4721 20.3173 14.8713 19.9689 15.1801 20.2059C15.317 20.5009 15.2833 21.1737 15.2625 21.5069L15.1458 21.6833C14.9008 21.6185 14.7586 21.5975 14.5089 21.5655L14.1742 21.4644C14.0427 21.2921 14.0865 21.1984 14.0836 20.9492L14.1349 20.5691Z" fill="#C5C9CE"/>
    <path d="M13.9111 19.05C14.3002 18.1677 16.0564 17.2376 16.6668 17.9477C16.8112 18.434 16.4306 18.8027 16.1957 19.3436C16.1078 19.6387 16.0008 19.7592 15.818 20.0061C15.8323 19.6053 15.8875 18.9872 15.7769 18.6204C15.4714 18.3481 14.909 18.5261 14.6738 18.8386C14.3038 19.33 14.1292 19.9595 14.1348 20.5688L14.0835 20.9489C14.0971 20.228 13.9418 19.7721 13.9111 19.05Z" fill="#7E8B99"/>
    <path d="M11.9707 18.7001C12.3398 17.9713 12.7611 17.3474 13.504 16.9888C12.96 18.091 12.2905 19.2701 12.4156 20.5392C12.4376 20.7638 12.4072 21.064 12.5111 21.2641C12.3387 21.2642 11.7505 21.155 11.5496 21.1219C11.6667 20.3679 11.7549 19.4087 11.9707 18.7001Z" fill="#AAB1BC"/>
    <path d="M21.9043 18.9003C22.2735 18.7316 22.5354 18.5645 22.927 18.7036C23.2717 18.9567 23.2369 19.5851 23.2462 19.9896C22.7688 19.667 22.4347 19.134 21.9043 18.9003Z" fill="#505D6B"/>
    <path d="M12.927 26.0703L13.0694 26.557L13.2997 27.5848C13.6078 28.1143 13.7612 29.1423 14.0992 29.7414C15.3558 31.9688 16.9863 34.0402 16.2403 36.7548C15.7166 38.6609 14.3262 39.4507 12.5784 40.0003H10.9079C8.96555 39.3306 7.68551 38.2548 7.29115 36.1517C6.76457 33.3437 8.64736 31.4249 9.78058 29.1575C10.1628 28.403 10.4346 27.5975 10.5875 26.7657L10.711 26.2341C11.1331 26.1221 11.8412 26.1437 12.289 26.1491L12.927 26.0703Z" fill="#0167CA"/>
    <path d="M12.3694 27.1968L12.4565 27.5704C12.4529 28.2419 13.0769 30.5749 13.3706 31.194C14.6655 31.8356 15.4434 35.0419 14.4428 36.1872C13.7381 37.0724 11.8496 36.8671 11.1232 36.1398C9.87474 34.8899 9.96901 32.6992 10.7166 31.2142C11.2148 30.2244 11.3399 29.5881 12.1023 28.7444C12.1332 28.2968 12.0873 27.8991 12.1335 27.4323L12.1574 27.5894C12.2024 27.4862 12.3112 27.3026 12.3694 27.1968Z" fill="#09ACF1"/>
    <path d="M12.3693 27.1968L12.4564 27.5704C12.4528 28.2419 13.0768 30.5749 13.3706 31.194C13.6799 31.9471 15.0798 34.9679 13.4849 35.0108C12.2219 34.5008 12.1534 28.9713 12.1574 27.5894C12.2024 27.4862 12.3111 27.3026 12.3693 27.1968Z" fill="#F3F3F5"/>
    <path d="M12.927 26.0703L13.0694 26.557L13.2997 27.5848L13.12 27.524C13.0769 27.3106 13.0371 27.1153 12.981 26.9042C12.7498 26.9066 12.8311 26.8922 12.6176 27.022C12.5037 27.2159 12.5389 27.3474 12.5639 27.5683L12.4564 27.5706L12.3693 27.197C12.3853 26.882 12.303 26.5405 12.2346 26.2353L12.2889 26.1491L12.927 26.0703Z" fill="#004BB1"/>
    <path d="M12.1335 27.432C12.1382 27.0798 12.1159 26.5496 12.2347 26.2349C12.3031 26.54 12.3853 26.8816 12.3694 27.1965C12.3112 27.3024 12.2024 27.4859 12.1574 27.5891L12.1335 27.432Z" fill="#E0E1E3"/>
    <path d="M8.5249 36.5063L9.43102 37.4124C10.2385 37.1934 10.7461 37.8245 11.509 37.8786C12.2295 37.9296 12.8419 37.3839 12.8478 38.5859C13.0385 38.5817 13.1098 38.5623 13.296 38.5164L13.3253 38.5646C12.8535 38.6541 11.5564 39.0079 11.1478 38.6679C9.46377 38.5362 9.08341 38.0724 8.5249 36.5063Z" fill="#09ACF1"/>
    <path d="M8.5249 36.5063L9.43102 37.4124C9.76209 37.6906 11.0619 38.4647 11.1431 38.5996L11.1478 38.6679C9.46377 38.5362 9.08341 38.0724 8.5249 36.5063Z" fill="#F3F3F5"/>
    <path d="M9.14643 33.335L9.21772 33.4266C9.22465 33.9567 9.21411 34.6922 8.86537 35.1127C8.57788 34.4911 8.7061 33.8461 9.14643 33.335Z" fill="#F3F3F5"/>
    <path d="M12.1627 21.7584C12.743 21.6841 14.8392 21.5791 15.204 22.0089C15.3601 22.0323 15.7093 22.095 15.8516 22.0859C16.2855 22.3158 16.4468 22.4177 16.9363 22.4043C18.0062 22.6527 17.5941 24.6323 17.608 25.5153C17.3753 26.2241 16.0445 26.2777 15.4004 26.3003C15.0916 26.3362 13.245 26.5714 13.0695 26.5568L12.9271 26.0701L12.2891 26.1489C11.8413 26.1435 11.1332 26.1219 10.7111 26.234L10.5876 26.7656L10.556 26.6058C10.4031 26.4462 9.21572 26.4129 8.83211 26.3084C8.14128 26.2935 7.08826 26.2472 6.46924 25.9265C6.23515 25.8052 6.23758 25.7064 6.1777 25.4921C6.18839 24.9823 6.09258 22.9637 6.44271 22.6154C6.59515 22.4667 6.63416 22.4499 6.83705 22.3834C6.9569 22.3867 7.16146 22.3992 7.27349 22.3933C7.77839 22.2632 8.13364 22.5608 8.29425 22.0504L8.44157 22.0988C8.69038 21.8461 8.77426 21.7942 9.1044 21.7589L9.76009 21.7684C10.1489 21.7658 10.6609 21.7758 11.0402 21.7562L12.1627 21.7584Z" fill="#6A7684"/>
    <path d="M9.1044 21.7588L9.76009 21.7683C9.73767 22.3955 9.59954 24.0292 9.65294 24.5367C9.89482 24.5938 10.0155 24.5925 10.2591 24.5982C10.968 24.5533 11.6482 24.5418 12.3571 24.5296L12.3684 24.5982C12.5638 24.8152 12.5123 24.7443 12.5421 25.059L12.5898 25.2348L12.9271 26.07L12.2891 26.1488C11.8413 26.1434 11.1332 26.1218 10.7111 26.2338L10.5876 26.7654L10.556 26.6056C10.4031 26.4461 9.21572 26.4128 8.83211 26.3083C8.14128 26.2934 7.08826 26.2471 6.46924 25.9264C6.23515 25.8051 6.23758 25.7063 6.1777 25.492C6.18839 24.9822 6.09258 22.9636 6.44271 22.6153C6.59515 22.4666 6.63416 22.4498 6.83705 22.3832C6.9569 22.3866 7.16146 22.3991 7.27349 22.3931C7.77839 22.2631 8.13364 22.5607 8.29425 22.0503L8.44157 22.0987C8.69038 21.846 8.77426 21.7941 9.1044 21.7588Z" fill="#79828F"/>
    <path d="M12.3569 24.5298L12.3682 24.5984C12.5636 24.8154 12.5121 24.7445 12.5419 25.0592L12.5896 25.235L12.9269 26.0702L12.2888 26.149C11.8411 26.1436 11.133 26.122 10.7109 26.234L10.5874 26.7656L10.5558 26.6058C10.4029 26.4463 9.21551 26.413 8.8319 26.3085C8.14106 26.2936 7.08805 26.2472 6.46902 25.9265C6.23493 25.8053 6.23737 25.7065 6.17749 25.4922C6.6877 25.2507 7.37519 25.147 7.92939 25.0663L8.18647 25.008L9.72961 24.6741C9.8835 24.6614 10.1006 24.6219 10.2589 24.5983C10.9678 24.5535 11.648 24.5419 12.3569 24.5298Z" fill="#0C1014"/>
    <path d="M11.0201 25.09C11.2703 24.5292 12.1576 24.8437 12.5419 25.0592L12.5897 25.235L12.9269 26.0702L12.2889 26.149C11.8411 26.1436 11.133 26.122 10.7109 26.234L11.0201 25.09Z" fill="#012266"/>
    <path d="M6.17749 25.4918C6.6877 25.2503 7.37519 25.1466 7.92939 25.0659C7.74543 25.2038 7.66707 25.2539 7.53757 25.4526C7.54974 25.9879 8.69477 25.873 8.8319 26.3081C8.14106 26.2932 7.08805 26.2468 6.46902 25.9261C6.23493 25.8049 6.23737 25.7061 6.17749 25.4918Z" fill="#343D49"/>
    <path d="M12.3569 24.5298L12.3683 24.5984C12.5637 24.8154 12.5122 24.7445 12.5419 25.0592C12.1576 24.8436 11.2703 24.5292 11.0202 25.09C10.1798 25.1042 8.99533 25.1402 8.18652 25.008L9.72966 24.6741C9.88356 24.6614 10.1007 24.6219 10.259 24.5983C10.9678 24.5535 11.6481 24.5419 12.3569 24.5298Z" fill="#232E3C"/>
    <path d="M9.10435 21.7588L9.76003 21.7683C9.73761 22.3955 9.59949 24.0292 9.65289 24.5367C9.89476 24.5938 10.0154 24.5925 10.2591 24.5982C10.1008 24.6218 9.88366 24.6613 9.72976 24.6739C9.5277 24.6532 9.32847 24.6475 9.12578 24.6396C8.96162 24.6476 8.65114 24.564 8.59124 24.4186C8.35219 23.8389 8.34356 22.6979 8.44152 22.0987C8.69033 21.846 8.77421 21.7941 9.10435 21.7588Z" fill="#C5C9CE"/>
    <path d="M8.44152 22.0987C8.69033 21.846 8.77421 21.7941 9.10435 21.7588C9.00052 22.4952 8.77562 23.4754 8.8032 24.2345C8.80928 24.4015 8.99133 24.5437 9.12578 24.6396C8.96162 24.6476 8.65114 24.564 8.59124 24.4186C8.35219 23.8389 8.34356 22.6979 8.44152 22.0987Z" fill="#919CA7"/>
    <path d="M6.83696 22.3833C6.95681 22.3866 7.16137 22.3991 7.2734 22.3932C7.48098 22.3959 7.72335 22.4075 7.9259 22.3774C7.60481 22.9567 7.56952 24.1562 7.5877 24.8199C7.30996 24.9037 6.86989 24.8796 6.56773 24.8774C6.57659 24.4385 6.69291 22.8622 6.44263 22.6153C6.59507 22.4666 6.63407 22.4499 6.83696 22.3833Z" fill="#505D6B"/>
    <path d="M7.92581 22.3774C8.28325 22.6475 8.21847 24.1983 7.98954 24.5919C7.8222 24.7198 7.78472 24.7503 7.58761 24.8199C7.56943 24.1562 7.60472 22.9567 7.92581 22.3774Z" fill="#6A7684"/>
    <path d="M11.0401 21.7559L12.1626 21.7581C12.347 21.7695 12.7287 21.7593 12.8427 21.8548C12.8372 22.84 12.8102 23.4827 13.045 24.434C12.9018 24.5319 12.5606 24.5178 12.357 24.5294C11.6481 24.5416 10.9679 24.5531 10.259 24.598C10.0153 24.5923 9.89468 24.5936 9.65281 24.5366C9.59941 24.0291 9.73753 22.3954 9.75995 21.7681C10.1487 21.7655 10.6608 21.7755 11.0401 21.7559Z" fill="#F3F3F5"/>
    <path d="M12.3684 24.5983C12.6425 24.589 12.8466 24.5777 13.1199 24.6086C13.6413 24.6924 14.1654 24.7587 14.6913 24.8072C14.9508 24.8133 15.3249 24.8336 15.5746 24.822L15.9277 24.91C16.2834 25.0574 17.2832 25.5028 17.608 25.5153C17.3753 26.224 16.0445 26.2777 15.4004 26.3002C15.0916 26.3361 13.245 26.5714 13.0695 26.5567L12.9271 26.0701L12.5898 25.2349L12.5421 25.0591C12.5123 24.7444 12.5638 24.8153 12.3684 24.5983Z" fill="#0C1014"/>
    <path d="M14.6912 24.8071C14.9507 24.8132 15.3248 24.8335 15.5745 24.822L15.9276 24.91C16.2832 25.0573 17.2831 25.5027 17.6078 25.5152C17.3752 26.2239 16.0444 26.2776 15.4003 26.3001C15.7908 25.891 16.2906 25.975 16.1255 25.2945C15.7913 24.929 15.3328 25.1891 14.6912 24.8071Z" fill="#232E3C"/>
    <path d="M12.3684 24.5983C12.6425 24.589 12.8466 24.5777 13.1199 24.6086C13.6413 24.6924 14.1654 24.7587 14.6913 24.8072C15.333 25.1892 15.7914 24.929 16.1256 25.2946C15.3217 25.1962 13.2979 24.9018 12.5898 25.2349L12.5421 25.0591C12.5123 24.7444 12.5638 24.8153 12.3684 24.5983Z" fill="#171A1F"/>
    <path d="M15.8516 22.0859C16.2855 22.3158 16.4468 22.4177 16.9363 22.4044C18.0062 22.6527 17.5941 24.6324 17.6079 25.5153C17.2832 25.5028 16.2833 25.0575 15.9277 24.9101C16.033 24.8873 16.0595 24.8534 16.1378 24.7816C16.305 24.1409 15.9857 22.7329 15.8516 22.0859Z" fill="#6A7684"/>
    <path d="M16.6361 22.5566L16.8436 22.6157C17.0181 22.9327 17.0091 24.626 16.8851 24.955C16.5697 24.8157 16.5963 24.8166 16.5786 24.456C16.5481 23.8363 16.5496 23.17 16.6361 22.5566Z" fill="#343D49"/>
    <path d="M15.2039 22.0088C15.3601 22.0322 15.7092 22.0949 15.8515 22.0858C15.9856 22.7327 16.305 24.1407 16.1377 24.7814C16.0594 24.8532 16.033 24.8871 15.9276 24.9099L15.5746 24.8219C15.3668 24.7327 15.3067 24.7097 15.1302 24.5683C14.8537 24.0789 14.934 22.6739 14.9328 22.0654L15.2039 22.0088Z" fill="#E0E1E3"/>
    <path d="M12.1626 21.7584C12.7428 21.6841 14.839 21.5791 15.2038 22.0089L14.9327 22.0656C14.5697 22.0123 13.9506 22.0562 13.5654 22.0712C13.5873 22.4208 13.7505 24.4369 13.6639 24.5613C13.4783 24.5817 13.3071 24.6014 13.1197 24.6087C12.8464 24.5778 12.6423 24.589 12.3683 24.5983L12.3569 24.5297C12.5606 24.5181 12.9018 24.5322 13.045 24.4342C12.8102 23.483 12.8372 22.8402 12.8427 21.8551C12.7287 21.7595 12.347 21.7698 12.1626 21.7584Z" fill="#C5C9CE"/>
    <path d="M24.7992 0H27.5067L27.6294 0.171845C27.8809 0.363901 28.0783 0.3061 28.2339 0.461228C28.3008 0.641643 28.3937 0.853272 28.4035 1.04159C28.1645 1.27392 28.1074 1.3352 27.939 1.62178C27.8809 1.78598 27.7833 2.01925 27.7819 2.18606C27.8241 2.2795 27.8589 2.39633 27.9415 2.44187C27.9921 2.51996 28.1203 2.70624 28.1451 2.78237C28.2152 3.04278 28.3299 3.1216 28.5268 3.29972C28.3649 3.67258 28.2915 3.77049 28.0104 4.06806C27.9177 4.13609 27.7561 4.26288 27.6598 4.30698C27.5903 4.87647 27.6232 5.52965 27.6371 6.10951L28.0216 6.19139C27.6792 6.24102 27.3 6.30947 26.9574 6.29266L26.1797 6.27946C25.6021 6.28743 25.0244 6.28969 24.4468 6.28625L24.3917 6.19712L24.4939 6.12416C24.6332 5.70692 24.6944 4.74758 24.5892 4.31023C24.3841 4.27476 24.3532 4.23362 24.2043 4.08215C23.6754 3.62269 23.8791 3.42657 23.6372 3.19208L23.2915 3.19449C22.0063 3.27821 20.931 3.33316 19.668 3.6649C19.1936 3.78951 18.4299 3.90537 17.9497 3.8403C17.4486 3.68846 17.1669 3.42597 16.8923 2.9974L16.8323 2.66103C16.6697 1.56689 16.7611 1.36271 17.5298 0.634595C18.0592 0.195878 18.3788 0.208537 19.0325 0.165881C19.2404 0.291098 19.4079 0.391257 19.6033 0.537117C21.1615 0.997138 21.5027 1.01956 23.1176 1.21276C23.5664 1.21669 23.619 1.19098 23.9021 0.84171C24.1784 0.500779 24.4224 0.230633 24.7992 0Z" fill="#414C5A"/>
    <path d="M27.7819 2.18604C27.8242 2.27948 27.859 2.39631 27.9415 2.44185C27.9921 2.51994 28.1204 2.70622 28.1451 2.78235C28.2152 3.04276 28.3299 3.12158 28.5268 3.2997C28.3649 3.67256 28.2915 3.77047 28.0104 4.06804C27.9177 4.13607 27.7561 4.26286 27.6599 4.30696C27.5904 4.87645 27.6232 5.52963 27.6371 6.10948L28.0216 6.19136C27.6792 6.241 27.3 6.30945 26.9574 6.29264L26.1798 6.27943C25.6021 6.28741 25.0245 6.28967 24.4468 6.28623L24.3918 6.1971L24.4939 6.12414C24.6332 5.7069 24.6945 4.74755 24.5892 4.3102C24.3841 4.27473 24.3532 4.2336 24.2043 4.08213C24.2185 4.07011 24.2328 4.05833 24.2473 4.04676C24.5839 3.78282 25.1925 3.28051 25.5893 3.33018C26.1853 3.35689 26.9525 3.32928 27.5068 3.10597C27.6737 2.91252 27.6274 2.92862 27.6477 2.64398L27.7819 2.18604Z" fill="#161E28"/>
    <path d="M25.4376 4.03102L26.4454 4.02637C26.4484 4.315 26.4374 5.15292 26.467 5.40091C26.503 5.61779 26.5475 5.84493 26.5567 6.06368L26.8891 6.06071C27.1 6.07371 27.4382 6.0837 27.6372 6.10941L28.0217 6.19129C27.6793 6.24092 27.3001 6.30937 26.9575 6.29257L26.1798 6.27936C25.6022 6.28733 25.0245 6.28959 24.4469 6.28615L24.3918 6.19702L24.494 6.12406C24.6333 5.70682 24.6945 4.74748 24.5893 4.31013C24.7788 4.04992 25.1376 4.0632 25.4376 4.03102Z" fill="#5C6979"/>
    <path d="M25.4375 4.03102L26.4453 4.02637C26.4483 4.315 26.4373 5.15292 26.4669 5.40091C26.4768 5.59078 26.5119 5.77646 26.3988 5.92471C26.1643 6.07406 25.5895 6.01665 25.2585 6.01795C25.3873 5.40024 25.4104 4.66408 25.4375 4.03102Z" fill="#E0E1E3"/>
    <path d="M26.5567 6.06401L26.8891 6.06104C27.1 6.07404 27.4382 6.08403 27.6372 6.10973L28.0217 6.19161C27.6793 6.24125 27.3001 6.3097 26.9575 6.29289L26.1798 6.27969C25.6022 6.28766 25.0245 6.28992 24.4469 6.28648L24.3918 6.19735L24.494 6.12439C25.1722 6.15242 25.8674 6.05479 26.5567 6.06401Z" fill="#171A1F"/>
    <path d="M26.9463 3.94189C27.2211 4.05558 27.4013 4.15908 27.6599 4.30677C27.5904 4.87626 27.6233 5.52944 27.6371 6.10929C27.4382 6.08359 27.1 6.0736 26.889 6.06059C26.877 5.31095 26.9053 4.68601 26.9463 3.94189Z" fill="#6A7684"/>
    <path d="M27.9414 2.44189C27.9921 2.51998 28.1203 2.70626 28.145 2.7824C28.2151 3.04281 28.3298 3.12163 28.5267 3.29975C28.3649 3.6726 28.2914 3.77051 28.0103 4.06808C27.5219 3.58235 27.9985 3.38403 27.9414 2.44189Z" fill="#919CA7"/>
    <path d="M26.6317 0.22104C26.9984 0.194404 27.2749 0.0730913 27.6295 0.171971C27.881 0.364028 28.0785 0.306226 28.2341 0.461355C28.301 0.64177 28.3939 0.853399 28.4037 1.04172C28.1646 1.27405 28.1076 1.33533 27.9392 1.62191C27.8811 1.78611 27.7835 2.01938 27.7821 2.18618L27.6479 2.64413C27.6276 2.92877 27.6738 2.91266 27.5069 3.10612C26.9526 3.32943 26.1854 3.35704 25.5894 3.33032L25.593 3.28512L24.7705 3.1825C24.7161 2.1071 24.7059 1.29528 24.9361 0.247489C25.4406 0.194922 26.1106 0.21681 26.6317 0.22104Z" fill="#F3F3F5"/>
    <path d="M26.6316 0.22104C26.9983 0.194404 27.2749 0.0730913 27.6295 0.171971C27.881 0.364028 28.0784 0.306226 28.234 0.461355C28.3009 0.64177 28.3938 0.853399 28.4036 1.04172C28.1646 1.27405 28.1075 1.33533 27.9391 1.62191C27.881 1.78611 27.7834 2.01938 27.782 2.18618L27.6478 2.64413C27.6275 2.92877 27.6737 2.91266 27.5068 3.10612C26.9526 3.32943 26.1854 3.35704 25.5894 3.33032L25.593 3.28512C26.1466 3.30325 25.9052 3.21758 26.0449 2.90795C26.3682 2.19131 26.6926 0.959971 27.0087 0.298204L26.6316 0.22104Z" fill="#5C6979"/>
    <path d="M26.6316 0.22104C26.9983 0.194404 27.2748 0.0730913 27.6294 0.171971C27.8809 0.364028 28.0784 0.306226 28.234 0.461355C28.3009 0.64177 28.3938 0.853399 28.4036 1.04172C28.1645 1.27405 28.1075 1.33533 27.9391 1.62191C27.881 1.78611 27.7834 2.01938 27.782 2.18618L27.6478 2.64413C27.5665 1.53934 27.0956 1.03522 27.0087 0.298204L26.6316 0.22104Z" fill="#505D6B"/>
    <path d="M28.2339 0.461426C28.3008 0.641841 28.3937 0.85347 28.4035 1.04179C28.1645 1.27412 28.1074 1.3354 27.939 1.62198C27.9211 1.59622 27.8806 1.53599 27.8719 1.50507C27.6979 0.884473 27.6123 0.71547 28.2339 0.461426Z" fill="#AAB1BC"/>
    <path d="M17.5298 0.63473C18.0592 0.196013 18.3788 0.208672 19.0325 0.166016C19.2404 0.291233 19.4079 0.391392 19.6033 0.537252C19.7257 0.754884 19.8121 0.879647 19.9581 1.08047C19.8529 1.60346 19.6968 2.17701 19.5599 2.69644C19.4596 2.78748 19.2631 2.97671 19.1624 3.04919C18.9557 3.17428 18.6087 3.34999 18.4997 3.54639C18.5209 3.59747 18.545 3.6705 18.581 3.70883C18.3537 3.76692 18.185 3.81333 17.9497 3.84044C17.4486 3.68859 17.1669 3.42611 16.8923 2.99753L16.8323 2.66117C16.6697 1.56703 16.7611 1.36284 17.5298 0.63473Z" fill="#F3F3F5"/>
    <path d="M17.5298 0.63473C18.0592 0.196013 18.3788 0.208672 19.0325 0.166016C19.2403 0.291233 19.4078 0.391392 19.6033 0.537252C19.7256 0.754884 19.8121 0.879647 19.958 1.08047C19.8528 1.60346 19.6967 2.17701 19.5599 2.69644C19.4596 2.78748 19.263 2.97671 19.1624 3.0492C18.9057 3.0381 18.6325 3.05466 18.4351 2.90001C18.286 2.69776 18.3109 2.53279 18.3105 2.28149L18.3781 1.8463C18.6598 1.76437 18.6258 1.81018 18.9518 1.96854C20.0937 1.69368 19.4723 -0.0292322 17.9381 0.757372L17.5298 0.63473Z" fill="#2D3945"/>
    <path d="M17.6909 2.19298C18.0299 2.08913 18.0987 2.06292 18.3782 1.84619L18.3106 2.28138C18.3109 2.53268 18.2861 2.69765 18.4351 2.8999C18.6326 3.05454 18.9057 3.03799 19.1624 3.04908C18.9557 3.17417 18.6087 3.34987 18.4997 3.54628C18.5209 3.59736 18.545 3.67038 18.581 3.70872C18.3537 3.76681 18.185 3.81322 17.9497 3.84033C17.4486 3.68848 17.1669 3.42599 16.8923 2.99742L16.8323 2.66105C16.893 2.66344 17.5923 2.24886 17.6909 2.19298Z" fill="#414C5A"/>
    <path d="M17.6909 2.19298C18.0299 2.08913 18.0987 2.06292 18.3782 1.84619L18.3106 2.28138C18.2342 2.57921 18.2928 2.54397 18.0809 2.69488C17.7369 2.69015 17.4032 2.58891 17.1431 2.70916C17.0581 2.80329 16.9699 2.89729 16.8923 2.99742L16.8323 2.66105C16.893 2.66344 17.5923 2.24886 17.6909 2.19298Z" fill="#6A7684"/>
    <path d="M17.5298 0.634766L17.9381 0.757407C17.7064 1.0864 17.2805 1.86226 17.6909 2.19312C17.5923 2.24901 16.893 2.66359 16.8323 2.6612C16.6697 1.56706 16.7611 1.36288 17.5298 0.634766Z" fill="#7E8B99"/>
    <path d="M19.6035 0.537109C21.1616 0.99713 21.5029 1.01955 23.1177 1.21276C23.5152 1.27888 24.0932 1.31257 24.323 1.67571C24.0791 2.12806 23.0383 1.99152 22.5974 1.97281C21.7796 1.84572 20.4709 1.70955 19.9583 1.08032C19.8123 0.879504 19.7259 0.754741 19.6035 0.537109Z" fill="#E0E1E3"/>
    <path d="M20.1675 3.15676C20.1025 3.01763 20.0905 2.99681 20.1124 2.84461C20.4872 2.53862 21.8493 2.74716 22.3362 2.79485C22.8399 2.85619 23.2221 2.87588 23.6372 3.1919L23.2915 3.19431C22.0063 3.27803 20.931 3.33298 19.668 3.66472C19.1935 3.78933 18.4299 3.90519 17.9497 3.84012C18.1849 3.81301 18.3537 3.7666 18.581 3.70852C18.545 3.67018 18.5209 3.59715 18.4997 3.54607C18.6087 3.34967 18.9557 3.17397 19.1624 3.04888C19.2631 2.9764 19.4596 2.78716 19.5599 2.69612L19.7219 2.91741L19.7665 3.26695C19.8632 3.20835 20.0497 3.18084 20.1675 3.15676Z" fill="#232E3C"/>
    <path d="M20.1674 3.15676C20.1024 3.01763 20.0904 2.99681 20.1123 2.84461C20.4872 2.53862 21.8493 2.74716 22.3361 2.79485L22.6074 2.94923L22.5973 3.02749C22.351 3.10204 22.038 3.1045 21.7754 3.11794C21.2215 3.11661 20.7198 3.11124 20.1674 3.15676Z" fill="#C5C9CE"/>
    <path d="M19.56 2.69629L19.722 2.91758L19.7666 3.26712C19.3748 3.53257 19.043 3.6115 18.5811 3.70868C18.5451 3.67035 18.521 3.59732 18.4998 3.54624C18.6088 3.34984 18.9558 3.17413 19.1625 3.04905C19.2632 2.97656 19.4597 2.78733 19.56 2.69629Z" fill="#C5C9CE"/>
    <path d="M22.3362 2.79492C22.8399 2.85626 23.2221 2.87595 23.6372 3.19197L23.2914 3.19438C22.7716 3.17877 22.2938 3.16296 21.7754 3.11801C22.038 3.10457 22.351 3.10211 22.5973 3.02756L22.6075 2.9493L22.3362 2.79492Z" fill="#919CA7"/>
    <path d="M19.9582 1.08057C20.4708 1.7098 21.7796 1.84597 22.5974 1.97305C21.7188 2.00303 20.666 2.02458 19.8062 2.13414L19.7221 2.91783L19.5601 2.69654C19.6969 2.17711 19.853 1.60356 19.9582 1.08057Z" fill="#919CA7"/>
    <path d="M30.3887 1.14007C31.3953 0.890726 33.203 0.326508 34.1245 0.451404C34.7779 0.752125 34.8953 0.946754 35.2868 1.57353C34.9812 2.54131 35.3299 3.28868 34.4894 3.74485C33.6798 4.1842 31.8476 3.64056 30.9444 3.393C30.2132 3.28509 29.2812 3.30374 28.5269 3.2999C28.33 3.12178 28.2152 3.04296 28.1452 2.78255C28.1204 2.70642 27.9922 2.52013 27.9415 2.44205C27.859 2.39651 27.8242 2.27967 27.782 2.18623C27.7834 2.01943 27.881 1.78615 27.9391 1.62196C28.1075 1.33538 28.1645 1.2741 28.4036 1.04176C28.6276 1.20222 28.9559 1.18952 29.247 1.20552C29.5994 1.20116 30.031 1.16239 30.3887 1.14007Z" fill="#343D49"/>
    <path d="M30.3887 1.14007C31.3953 0.890726 33.203 0.326508 34.1245 0.451404L34.1028 0.54061C34.77 1.12596 34.6238 2.21774 34.0433 1.90938C33.7941 1.95226 33.6525 1.95502 33.4824 2.14668C33.3564 2.5288 33.482 2.53276 33.2486 2.65692C32.4943 2.68864 32.0651 2.49516 31.3722 2.31326C30.4679 2.24492 28.9823 2.35307 28.1616 2.15854L28.1452 2.78255C28.1204 2.70642 27.9922 2.52013 27.9415 2.44205C27.859 2.39651 27.8242 2.27967 27.782 2.18623C27.7834 2.01943 27.881 1.78615 27.9391 1.62196C28.1075 1.33538 28.1645 1.2741 28.4036 1.04176C28.6276 1.20222 28.9559 1.18952 29.247 1.20552C29.5994 1.20116 30.031 1.16239 30.3887 1.14007Z" fill="#E0E1E3"/>
    <path d="M32.8773 0.832783C33.3697 0.572454 33.5591 0.451106 34.1028 0.540278C34.77 1.12562 34.6238 2.21741 34.0433 1.90905C33.5737 1.38039 32.7663 1.82103 32.8773 0.832783Z" fill="#F3F3F5"/>
    <path d="M30.3887 1.14007C31.3952 0.890726 33.2029 0.326508 34.1244 0.451404L34.1027 0.54061C33.559 0.451438 33.3696 0.572785 32.8772 0.833115C32.8117 0.880966 32.5212 1.10564 32.47 1.11244L32.4837 1.09881C31.8314 1.08887 30.9678 1.1661 30.3887 1.14007Z" fill="#414C5A"/>
    <path d="M28.4036 1.0415C28.6276 1.20196 28.9559 1.18926 29.247 1.20526C28.6082 1.27005 28.0786 1.30976 28.1616 2.15828L28.1452 2.78229C28.1204 2.70615 27.9922 2.51987 27.9415 2.44179C27.859 2.39625 27.8242 2.27941 27.782 2.18597C27.7834 2.01916 27.881 1.78589 27.9391 1.62169C28.1075 1.33512 28.1645 1.27384 28.4036 1.0415Z" fill="#343D49"/>
    <path d="M28.1617 2.1582C28.9824 2.35273 30.468 2.24458 31.3724 2.31292C31.6011 2.50652 31.753 2.6254 32.0016 2.79264C31.9074 2.85863 31.5262 2.81678 31.3844 2.81025C30.8871 2.67731 28.9555 2.6456 28.5608 2.8933L28.5417 3.00428L28.6914 3.12499C29.3884 3.23198 30.5605 2.99417 30.9445 3.39266C30.2133 3.28475 29.2813 3.3034 28.527 3.29956C28.3301 3.12144 28.2154 3.04262 28.1453 2.78221L28.1617 2.1582Z" fill="#171A1F"/>
    <path d="M28.6912 3.12511L28.5415 3.0044L28.5607 2.89342C28.9553 2.64572 30.8869 2.67742 31.3842 2.81037C31.5793 2.89499 32.0059 3.04753 32.1072 3.20557C31.8069 3.26263 31.0654 3.10977 30.7002 3.10515C30.0681 3.09718 29.3198 3.08056 28.6912 3.12511Z" fill="#C5C9CE"/>
    <path d="M33.0929 3.42174C33.3932 3.3919 33.9143 3.28634 34.1282 3.49576L34.0602 3.66648C33.759 3.68494 33.257 3.71788 32.9839 3.61884L32.9683 3.51284L33.0929 3.42174Z" fill="#C5C9CE"/>
  </g>
  <defs>
    <clipPath id="clip0_2010_11762">
      <rect width="144.844" height="40" fill="white"/>
    </clipPath>
  </defs>
</svg>
