<svg width="50" height="50" viewBox="0 0 50 50" fill="none" xmlns="http://www.w3.org/2000/svg">
<g clip-path="url(#clip0_262_988)">
<path fill-rule="evenodd" clip-rule="evenodd" d="M0 0H50V50H0V0Z" fill="white"/>
<path fill-rule="evenodd" clip-rule="evenodd" d="M3.40454 3.55084H46.6613V46.8071H3.40454V3.55084Z" fill="#CC2229"/>
<path fill-rule="evenodd" clip-rule="evenodd" d="M10.914 31.2169C14.669 31.2169 17.7322 33.8674 17.7322 37.1049C17.7322 40.3484 14.669 42.9929 10.914 42.9929C7.1528 42.9929 4.09064 40.3484 4.09064 37.1049C4.0909 33.8672 7.15306 31.2169 10.914 31.2169ZM11.0206 34.678C9.64196 34.678 8.51955 35.7576 8.51955 37.0798C8.51955 38.4084 9.64196 39.4872 11.0206 39.4872C12.3988 39.4872 13.5215 38.4084 13.5215 37.0798C13.5215 35.7579 12.3988 34.678 11.0206 34.678ZM18.0811 42.8492H22.4099V37.2611C22.4099 32.876 26.5574 29.9257 31.3422 29.6818C31.8594 29.6691 31.9842 30.1314 31.9842 30.5495H36.2388V26.7569C28.6536 25.9027 23.2703 28.6149 18.0811 31.6156V42.8492Z" fill="white"/>
<path fill-rule="evenodd" clip-rule="evenodd" d="M31.9842 31.6159H36.2388V42.8495H31.9842V41.5904C30.9739 42.3704 29.7698 42.931 28.6536 42.8495C25.4472 42.793 23.6141 40.991 23.2706 37.2614C23.3018 33.9868 25.1232 31.5977 28.6536 31.4354C29.8816 31.4408 30.9923 31.9217 31.9842 32.8763V31.6159ZM29.8761 34.9401C28.5781 34.9401 27.5182 35.9693 27.5182 37.2292C27.5182 38.4961 28.5781 39.5246 29.8761 39.5246C31.1736 39.5246 32.2335 38.4961 32.2335 37.2292C32.2335 35.9693 31.1736 34.9401 29.8761 34.9401ZM36.9182 39.2626V42.2887C38.0909 42.9242 39.426 43.2295 40.7731 43.186C43.7413 43.193 45.6751 42.1569 45.7745 39.2626C45.9685 37.0982 44.4962 35.9636 41.6394 35.6822C41.041 35.5203 40.7858 35.2339 40.8039 34.8965C40.9725 34.4913 41.228 34.3043 41.6394 34.2664C42.7126 34.1798 43.9538 34.5471 45.3947 35.4456V32.4265C44.1408 31.7277 42.8934 31.4533 41.6394 31.4167C38.6766 31.5407 36.9864 32.7134 36.5696 34.9271C36.1634 39.3127 41.2216 38.1643 41.6394 39.2624C41.752 40.7036 39.563 40.4724 36.9182 39.2626Z" fill="white"/>
</g>
<defs>
<clipPath id="clip0_262_988">
<rect width="50" height="50" fill="white"/>
</clipPath>
</defs>
</svg>
