<svg width="50" height="50" viewBox="0 0 50 50" fill="none" xmlns="http://www.w3.org/2000/svg">
<g clip-path="url(#clip0_262_887)">
<path fill-rule="evenodd" clip-rule="evenodd" d="M0 0H50V50H0V0Z" fill="white"/>
<path fill-rule="evenodd" clip-rule="evenodd" d="M21.8541 20.2227H24.0288V26.7091H21.8541V23.8737L19.6012 26.9421L17.5037 23.757V26.7091H15.1733V20.2227H17.6591L19.7566 23.5629L21.8541 20.2227ZM37.7394 26.7091H32.4963V20.2227H37.7394V21.7373H34.8653V22.6696H37.701V24.1066H34.8653V25.1554H37.7394V26.7091ZM40.303 26.7091H38.2056V20.2227H40.6527L42.7115 23.8348V20.2227H44.7701V26.7091H42.4005L40.303 23.3686V26.7091ZM28.3013 20.0673C25.7769 20.0673 24.3396 21.5822 24.3396 23.6018C24.3396 25.5439 25.7769 27.0588 28.3013 27.0588C30.8258 27.0588 32.2631 25.5439 32.2631 23.6018C32.2633 21.5822 30.826 20.0673 28.3013 20.0673ZM28.224 25.4664C27.1364 25.4664 26.5146 24.6117 26.5146 23.6018C26.5146 22.5145 27.1361 21.7373 28.224 21.7373C29.3112 21.7373 29.9329 22.5142 29.9329 23.6018C29.9329 24.6117 29.3112 25.4664 28.224 25.4664Z" fill="black"/>
<path fill-rule="evenodd" clip-rule="evenodd" d="M9.73561 23.2135L3.67639 20.106V25.9709C3.67639 26.9812 4.10362 27.9132 4.76378 28.5734C5.42394 29.2336 6.3562 29.6221 7.36603 29.6221C8.37612 29.6221 9.30812 29.2336 9.96854 28.5734C10.6676 27.9132 11.0559 26.981 11.0559 25.9709C11.0562 24.9221 10.5511 23.6796 9.73561 23.2135ZM9.1141 27.7187C8.68687 28.1457 8.06536 28.4178 7.36629 28.4178C6.70613 28.4178 6.08462 28.1457 5.61848 27.7187C5.19126 27.2526 4.91941 26.6316 4.91941 25.9709V22.0483L8.88116 24.068C9.42511 24.4176 9.85207 25.2718 9.85207 25.9709C9.85207 26.6316 9.58023 27.2526 9.1141 27.7187Z" fill="#CC2131"/>
<path fill-rule="evenodd" clip-rule="evenodd" d="M7.13336 25.9709C7.13336 26.9812 7.56059 27.9132 8.22101 28.5734C8.88143 29.2336 9.81343 29.6221 10.8233 29.6221C11.8331 29.6221 12.7654 29.2336 13.4258 28.5734C14.0859 27.9132 14.5132 26.981 14.5132 25.9709V20.106L8.45394 23.2135C7.63814 23.6796 7.13336 24.9221 7.13336 25.9709ZM8.33747 25.9709C8.33747 25.2718 8.7647 24.4174 9.30865 24.068L13.2704 22.0483V25.9711C13.2704 26.6318 12.9985 27.2528 12.5711 27.7189C12.1052 28.1459 11.4837 28.418 10.8233 28.418C10.1242 28.418 9.50268 28.1459 9.07545 27.7189C8.60932 27.2526 8.33747 26.6316 8.33747 25.9709Z" fill="#0080C0"/>
<path fill-rule="evenodd" clip-rule="evenodd" d="M15.2509 27.8744C15.2509 27.7579 15.1731 27.7579 15.0955 27.7579V27.719H15.7946C16.0275 27.719 16.2607 27.8354 16.2607 28.1075C16.2607 28.3016 16.144 28.4572 15.95 28.4956C16.1829 28.5345 16.3383 28.6512 16.3383 28.9231C16.3383 29.2728 16.0664 29.4276 15.7557 29.4276H15.1342V29.3892C15.1728 29.3892 15.2506 29.3892 15.2506 29.2728L15.2509 27.8744ZM15.6006 29.3111C15.8335 29.3111 16.1832 29.2728 16.1832 28.9615C16.1832 28.651 15.9502 28.5734 15.717 28.5734H15.4063V29.3111H15.6006ZM15.4063 28.457H15.717C15.9889 28.457 16.1056 28.3013 16.1056 28.1073C16.1056 27.8352 15.8724 27.7963 15.717 27.7963H15.4063V28.457ZM17.5427 29.2728C17.5427 29.3503 17.5813 29.3892 17.6591 29.3892V29.4276H17.3873V29.2336C17.3097 29.3892 17.193 29.4665 17.0376 29.4665C16.8433 29.4665 16.6879 29.3501 16.6879 29.0396V28.3405C16.6879 28.2624 16.6104 28.224 16.5715 28.224V28.1851C16.6493 28.1851 16.8044 28.1075 16.8433 28.1075V29.0009C16.8433 29.1955 16.8822 29.3506 17.0763 29.3506C17.2703 29.3506 17.387 29.1565 17.387 28.8844V28.3407C17.387 28.2627 17.3484 28.2243 17.2705 28.2243V28.1854C17.387 28.1854 17.5424 28.1078 17.5424 28.1078L17.5427 29.2728ZM17.931 28.3794C17.8921 28.2238 17.8145 28.1848 17.7756 28.1848V28.1459C17.8532 28.1459 17.8921 28.1848 17.9699 28.1848C18.0474 28.1848 18.1253 28.1459 18.2028 28.1459V28.1848C18.0863 28.2238 18.0474 28.2238 18.0474 28.3013C18.0474 28.3402 18.0474 28.3402 18.1642 28.6899L18.3582 29.2336L18.5914 28.4178V28.3013C18.5914 28.2238 18.5525 28.1848 18.4749 28.1848V28.1459C18.5525 28.1459 18.5914 28.1848 18.6692 28.1848C18.747 28.1848 18.7857 28.1459 18.8246 28.1459V28.1848C18.7859 28.1848 18.747 28.2238 18.7081 28.3405L18.3198 29.6222C18.2812 29.7773 18.242 29.9327 18.0869 29.9327C18.048 29.9327 18.0093 29.8937 17.9704 29.8551L17.9317 29.6605H18.0093C18.0093 29.6995 18.0093 29.777 18.0869 29.777C18.1647 29.777 18.2033 29.6605 18.2422 29.583L18.2812 29.4274L17.931 28.3794ZM19.8731 29.2728C19.8731 29.3892 19.912 29.3892 19.9895 29.3892V29.4276H19.601V29.3892C19.6396 29.3892 19.7174 29.3892 19.7174 29.2728V28.3405C19.7174 28.2624 19.6785 28.224 19.601 28.224V28.1851C19.6785 28.1851 19.8339 28.1075 19.8728 28.1075L19.8731 29.2728ZM19.7952 27.6414C19.8342 27.6414 19.8728 27.6803 19.8728 27.7579C19.8728 27.7963 19.8342 27.8744 19.7952 27.8744C19.7177 27.8744 19.6788 27.7963 19.6788 27.7579C19.6788 27.6803 19.7177 27.6414 19.7952 27.6414ZM20.1838 28.1459H20.3392V27.8744C20.3781 27.8744 20.4168 27.8354 20.4557 27.7579H20.4946V28.1459H20.8442V28.224H20.4946V29.1563C20.4946 29.2728 20.5335 29.3503 20.65 29.3503C20.6886 29.3503 20.7664 29.3114 20.8442 29.2728V29.3892C20.7667 29.4276 20.65 29.4668 20.6113 29.4668C20.417 29.4668 20.3395 29.3503 20.3395 29.1563V28.224H20.1841L20.1838 28.1459ZM21.7373 28.224H21.6209V28.1851C21.6595 28.1851 21.7373 28.1851 21.7373 28.03C21.7373 27.7579 21.8149 27.5249 22.087 27.5249H22.2035V27.719C22.1646 27.6806 22.1259 27.6025 22.0481 27.6025C21.9316 27.6025 21.8927 27.7581 21.8927 27.8746V28.1462H22.1646V28.2243H21.8927V29.273C21.8927 29.3895 21.9705 29.3895 22.0481 29.3895V29.4279H21.6598V29.3895C21.6987 29.3895 21.7376 29.3895 21.7376 29.273L21.7373 28.224ZM22.8639 28.1459C23.2136 28.1459 23.4465 28.457 23.4465 28.8066C23.4465 29.1171 23.2522 29.4668 22.9028 29.4668C22.5142 29.4668 22.3202 29.1563 22.3202 28.7677C22.3199 28.457 22.5142 28.1459 22.8639 28.1459ZM22.9025 29.3501C23.1355 29.3501 23.2909 29.1949 23.2909 28.845C23.2909 28.5345 23.1355 28.2238 22.8636 28.2238C22.6307 28.2238 22.4364 28.4178 22.4364 28.7674C22.4367 29.0782 22.6307 29.3501 22.9025 29.3501ZM23.7959 28.3405C23.7959 28.2624 23.757 28.224 23.6794 28.224V28.1851C23.757 28.1851 23.9513 28.1075 23.9513 28.1075V28.3797C23.9899 28.2627 24.1067 28.1462 24.2231 28.1462H24.3396V28.3018H24.2231C24.0677 28.3018 23.9513 28.4959 23.9513 28.6904V29.273C23.9513 29.3895 24.0288 29.3895 24.0677 29.3895V29.4279H23.6792V29.3895C23.7178 29.3895 23.7956 29.3895 23.7956 29.273L23.7959 28.3405ZM25.2332 27.6803C25.2332 27.6022 25.1554 27.6022 25.1165 27.6022V27.5639C25.194 27.5249 25.3497 27.4474 25.3881 27.4474C25.3881 27.4858 25.3497 27.6025 25.3497 27.719V29.2728C25.3497 29.3892 25.4272 29.3892 25.5048 29.3892V29.4276H25.1167V29.3892C25.1554 29.3892 25.2335 29.3892 25.2335 29.2728L25.2332 27.6803ZM26.2819 28.1459C26.6316 28.1459 26.864 28.457 26.864 28.8066C26.864 29.1171 26.67 29.4668 26.3203 29.4668C25.9323 29.4668 25.7377 29.1563 25.7377 28.7677C25.738 28.457 25.9325 28.1459 26.2819 28.1459ZM26.3206 29.3501C26.5535 29.3501 26.7476 29.1949 26.7476 28.845C26.7476 28.5345 26.5535 28.2238 26.2819 28.2238C26.0485 28.2238 25.8934 28.4178 25.8934 28.7674C25.8934 29.0782 26.0485 29.3501 26.3206 29.3501ZM27.6414 28.1459C27.9911 28.1459 28.224 28.457 28.224 28.8066C28.224 29.1171 28.0295 29.4668 27.6414 29.4668C27.2918 29.4668 27.0588 29.1563 27.0588 28.7677C27.0586 28.457 27.2918 28.1459 27.6414 28.1459ZM27.6798 29.3501C27.8744 29.3501 28.0684 29.1949 28.0684 28.845C28.0684 28.5345 27.9128 28.2238 27.6414 28.2238C27.4085 28.2238 27.2139 28.4178 27.2139 28.7674C27.2137 29.0782 27.4082 29.3501 27.6798 29.3501ZM28.5345 27.6803C28.5345 27.6022 28.4956 27.6022 28.4181 27.6022V27.5639C28.4956 27.5249 28.651 27.4474 28.6902 27.4474V28.6901C28.7677 28.6121 28.8842 28.4956 28.9618 28.3797C29.0398 28.3016 29.0398 28.3016 29.0398 28.2627C29.0398 28.2243 29.0009 28.1851 28.9618 28.1851V28.1462C29.0007 28.1462 29.0782 28.1851 29.1563 28.1851C29.1947 28.1851 29.2728 28.1462 29.3114 28.1462L28.8453 28.6904C28.9618 28.8455 29.0782 29.0401 29.195 29.1955C29.273 29.3114 29.3114 29.3895 29.4279 29.3895V29.4279H29.195C29.0398 29.1955 28.8845 28.9233 28.6904 28.7293V29.273C28.6904 29.3895 28.7288 29.3895 28.8069 29.3895V29.4279H28.4183V29.3895C28.4572 29.3895 28.5348 29.3895 28.5348 29.273L28.5345 27.6803ZM30.2823 28.457H30.2434C30.2434 28.3013 30.127 28.224 29.9718 28.224C29.8554 28.224 29.6608 28.2624 29.6608 28.457C29.6608 28.6121 29.7389 28.651 29.9329 28.7291C30.2434 28.8066 30.3599 28.8842 30.3599 29.0782C30.3599 29.3503 30.0883 29.4668 29.8554 29.4668C29.7389 29.4668 29.6224 29.4279 29.5444 29.3503L29.506 29.0782H29.5444C29.5833 29.2338 29.7 29.3503 29.894 29.3503C30.0105 29.3503 30.205 29.2728 30.205 29.1174C30.205 28.9233 30.127 28.9233 29.9329 28.8453C29.7 28.8069 29.506 28.7293 29.506 28.4956C29.506 28.224 29.8165 28.1459 29.9721 28.1459C30.0886 28.1459 30.205 28.1459 30.2826 28.1848L30.2823 28.457ZM30.6709 29.3501C30.6709 29.4276 30.7093 29.4665 30.7485 29.4665C30.826 29.4665 30.8649 29.4276 30.8649 29.3501C30.8649 29.3111 30.826 29.2725 30.7485 29.2725C30.7096 29.2728 30.6709 29.3111 30.6709 29.3501ZM31.9528 27.8744C31.9528 27.7579 31.8748 27.7579 31.8364 27.7579V27.719H32.4965C32.7686 27.719 32.9627 27.8354 32.9627 28.1075C32.9627 28.3016 32.8462 28.4572 32.6522 28.4956C32.9238 28.5345 33.0791 28.6512 33.0791 28.9231C33.0791 29.2728 32.807 29.4276 32.4576 29.4276H31.8364V29.3892C31.8748 29.3892 31.9528 29.3892 31.9528 29.2728V27.8744ZM32.3022 29.3111C32.5738 29.3111 32.9235 29.2728 32.9235 28.9615C32.9235 28.651 32.6519 28.5734 32.419 28.5734H32.108V29.3111H32.3022ZM32.1077 28.457H32.4574C32.6903 28.457 32.807 28.3013 32.807 28.1073C32.807 27.8352 32.613 27.7963 32.419 27.7963H32.108L32.1077 28.457ZM34.2443 29.2728C34.2443 29.3503 34.2827 29.3892 34.3608 29.3892V29.4276H34.1279V29.2336H34.089C34.0501 29.3892 33.9333 29.4665 33.7393 29.4665C33.5453 29.4665 33.3896 29.3501 33.3896 29.0396V28.3405C33.3896 28.2624 33.3507 28.224 33.2732 28.224V28.1851C33.3896 28.1851 33.5453 28.1075 33.5453 28.1075V29.0009C33.5453 29.1955 33.5842 29.3506 33.7782 29.3506C33.9722 29.3506 34.1279 29.1565 34.1279 28.8844V28.3407C34.1279 28.2627 34.0498 28.2243 33.9722 28.2243V28.1854C34.0887 28.1854 34.2443 28.1078 34.2443 28.1078V29.2728ZM34.6713 28.3794C34.5937 28.2238 34.5157 28.1848 34.4773 28.1848V28.1459C34.5548 28.1459 34.6324 28.1848 34.6713 28.1848C34.7489 28.1848 34.8269 28.1459 34.9042 28.1459V28.1848C34.8267 28.2238 34.7878 28.2238 34.7878 28.3013C34.7878 28.3402 34.7878 28.3402 34.9042 28.6899L35.0599 29.2336H35.0983L35.2928 28.4178C35.3312 28.3794 35.3312 28.3402 35.3312 28.3013C35.3312 28.2238 35.2536 28.1848 35.2147 28.1848V28.1459C35.2536 28.1459 35.3312 28.1848 35.3704 28.1848C35.4479 28.1848 35.4868 28.1459 35.5644 28.1459V28.1848C35.4868 28.1848 35.4479 28.2238 35.4093 28.3405L35.0596 29.6222C35.0207 29.7773 34.9431 29.9327 34.7875 29.9327C34.7486 29.9327 34.71 29.8937 34.671 29.8551V29.6605H34.71C34.71 29.6995 34.7483 29.777 34.7875 29.777C34.8651 29.777 34.9432 29.6605 34.9432 29.583L35.0207 29.4274L34.6713 28.3794ZM36.5747 29.2728C36.5747 29.3892 36.6523 29.3892 36.6912 29.3892V29.4276H36.3026V29.3892C36.3416 29.3892 36.4191 29.3892 36.4191 29.2728V28.3405C36.4191 28.2624 36.3802 28.224 36.3026 28.224V28.1851C36.4191 28.1851 36.5747 28.1075 36.5747 28.1075V29.2728ZM36.4967 27.6414C36.5356 27.6414 36.6131 27.6803 36.6131 27.7579C36.6131 27.7963 36.5356 27.8744 36.4967 27.8744C36.4191 27.8744 36.3802 27.7963 36.3802 27.7579C36.3802 27.6803 36.4191 27.6414 36.4967 27.6414ZM36.8852 28.1459H37.0409V27.8744C37.0793 27.8744 37.1184 27.8354 37.196 27.7579V28.1459H37.5457V28.224H37.196V29.1563C37.196 29.2728 37.2349 29.3503 37.3516 29.3503C37.4292 29.3503 37.5073 29.3114 37.5457 29.2728V29.3892C37.4681 29.4276 37.3905 29.4668 37.3127 29.4668C37.1187 29.4668 37.0411 29.3503 37.0411 29.1563V28.224H36.8855L36.8852 28.1459ZM38.4777 28.224H38.3226V28.1851C38.4001 28.1851 38.4777 28.1851 38.4777 28.03C38.4777 27.7579 38.5166 27.5249 38.7887 27.5249H38.9438V27.719H38.9049C38.8665 27.6806 38.8665 27.6025 38.7498 27.6025C38.633 27.6025 38.5941 27.7581 38.5941 27.8746V28.1462H38.8662V28.2243H38.5941V29.273C38.5941 29.3895 38.7106 29.3895 38.7498 29.3895V29.4279H38.3612V29.3895C38.4001 29.3895 38.4777 29.3895 38.4777 29.273V28.224ZM39.604 28.1459C39.915 28.1459 40.1482 28.457 40.1482 28.8066C40.1482 29.1171 39.9536 29.4668 39.604 29.4668C39.2159 29.4668 39.0214 29.1563 39.0214 28.7677C39.0214 28.457 39.2159 28.1459 39.604 28.1459ZM39.604 29.3501C39.8369 29.3501 40.0314 29.1949 40.0314 28.845C40.0314 28.5345 39.8758 28.2238 39.604 28.2238C39.3324 28.2238 39.177 28.4178 39.177 28.7674C39.1767 29.0782 39.3324 29.3501 39.604 29.3501ZM40.4976 28.3405C40.4976 28.2624 40.4587 28.224 40.3811 28.224V28.1851C40.4976 28.1851 40.6527 28.1075 40.6527 28.1075V28.3797C40.7308 28.2627 40.8083 28.1462 40.9248 28.1462H41.0413V28.3018H40.9248C40.7692 28.3018 40.6527 28.4959 40.6527 28.6904V29.273C40.6527 29.3895 40.7308 29.3895 40.7692 29.3895V29.4279H40.3811V29.3895C40.4587 29.3895 40.4976 29.3895 40.4976 29.273V28.3405ZM41.9344 27.6803C41.9344 27.6022 41.896 27.6022 41.8179 27.6022V27.5639C41.9344 27.5249 42.09 27.4474 42.09 27.4474V29.2728C42.09 29.3892 42.1676 29.3892 42.2065 29.3892V29.4276H41.8179V29.3892C41.8568 29.3892 41.9344 29.3892 41.9344 29.2728V27.6803ZM42.7502 29.2728C42.7502 29.3892 42.8282 29.3892 42.8666 29.3892V29.4276H42.4786V29.3892C42.5561 29.3892 42.5951 29.3892 42.5951 29.2728V28.3405C42.5951 28.2624 42.5561 28.224 42.4786 28.224V28.1851C42.595 28.1851 42.7502 28.1075 42.7502 28.1075V29.2728ZM42.6726 27.6414C42.7115 27.6414 42.7891 27.6803 42.7891 27.7579C42.7891 27.7963 42.7115 27.8744 42.6726 27.8744C42.595 27.8744 42.5561 27.7963 42.5561 27.7579C42.5561 27.6803 42.595 27.6414 42.6726 27.6414ZM43.2163 28.224H43.0998V28.1851C43.1779 28.1851 43.2163 28.1851 43.2163 28.03C43.2163 27.7579 43.2944 27.5249 43.566 27.5249H43.6824V27.719C43.644 27.6806 43.6049 27.6025 43.5273 27.6025C43.4108 27.6025 43.3717 27.7581 43.3717 27.8746V28.1462H43.6438V28.2243H43.3717V29.273C43.3717 29.3895 43.4492 29.3895 43.5273 29.3895V29.4279H43.1387V29.3895C43.1777 29.3895 43.2163 29.3895 43.2163 29.273V28.224ZM44.7309 29.3111C44.6144 29.4276 44.498 29.4668 44.3429 29.4668C43.9932 29.4668 43.7986 29.1171 43.7986 28.7677C43.7986 28.4183 43.9932 28.1462 44.3037 28.1462C44.5753 28.1462 44.8087 28.3018 44.8087 28.7677H43.9151C43.9151 29.0398 44.1097 29.3503 44.3812 29.3503C44.5369 29.3503 44.6534 29.2728 44.7309 29.1563V29.3111ZM44.6536 28.651C44.6536 28.418 44.5371 28.224 44.3039 28.224C44.1099 28.224 43.9543 28.457 43.9543 28.651H44.6536ZM45.197 29.2728C45.2172 29.274 45.2362 29.2826 45.2505 29.2969C45.2647 29.3112 45.2733 29.3302 45.2746 29.3503C45.2746 29.4279 45.2362 29.4668 45.197 29.4668C45.1579 29.4668 45.1195 29.4279 45.1195 29.3503C45.1208 29.3302 45.1294 29.3112 45.1436 29.2969C45.1579 29.2826 45.1769 29.274 45.197 29.2728ZM45.8188 28.6121C46.0904 28.6121 46.3233 28.3797 46.3233 28.1075C46.3233 27.8354 46.0904 27.6025 45.8188 27.6025C45.5859 27.6025 45.3527 27.8354 45.3527 28.1075C45.3527 28.3797 45.5856 28.6121 45.8188 28.6121ZM45.4302 28.1073C45.4302 27.8744 45.6243 27.7187 45.8188 27.7187C46.0518 27.7187 46.2458 27.8744 46.2458 28.1073C46.2458 28.3402 46.0518 28.5343 45.8188 28.5343C45.6243 28.5345 45.4302 28.3405 45.4302 28.1073ZM45.7407 28.1459H45.8188L45.9739 28.3794H46.0904L45.9353 28.1459C46.0128 28.1459 46.0518 28.0684 46.0518 27.9908C46.0518 27.8744 46.0128 27.8352 45.8572 27.8352H45.6632V28.3794H45.7407V28.1459ZM45.7407 28.0684V27.9133H45.8572C45.8961 27.9133 45.9737 27.9133 45.9737 27.9908C45.9737 28.0684 45.8961 28.0684 45.8186 28.0684H45.7407Z" fill="black"/>
</g>
<defs>
<clipPath id="clip0_262_887">
<rect width="50" height="50" fill="white"/>
</clipPath>
</defs>
</svg>
