<svg width="50" height="50" viewBox="0 0 50 50" fill="none" xmlns="http://www.w3.org/2000/svg">
<g clip-path="url(#clip0_262_1344)">
<path fill-rule="evenodd" clip-rule="evenodd" d="M0 0H50V50H0V0Z" fill="white"/>
<path fill-rule="evenodd" clip-rule="evenodd" d="M45.1277 16.9429V18.3691H48.235V20.0424H45.1277V21.8676H49.2648V23.5435H42.9846V15.2667H48.8433V16.9427L45.1277 16.9429ZM40.5613 15.2667V23.5435H38.4159V20.0424H34.3143V23.5435H32.1689V15.2667H34.3143V18.3688H38.4159V15.2667H40.5613ZM25.4368 15.0623C28.3747 15.0623 30.7726 17.0135 30.7726 19.4064C30.7726 21.7993 28.3747 23.7505 25.4368 23.7505C22.4984 23.7505 20.1005 21.7993 20.1005 19.4064C20.1005 17.0135 22.4986 15.0623 25.4368 15.0623ZM25.4368 16.6374C27.0113 16.6374 28.2987 17.8819 28.2987 19.4064C28.2987 20.9311 27.0113 22.1731 25.4368 22.1731C23.8615 22.1731 22.5767 20.9311 22.5767 19.4064C22.577 17.8819 23.8617 16.6374 25.4368 16.6374ZM11.6673 15.2667H15.7512C18.1921 15.2667 19.0149 16.5995 19.0149 17.8415C19.0175 19.0835 18.4521 19.8658 17.3162 20.2899L20.2694 23.5435H17.3115C16.2034 22.1552 15.0952 20.7643 13.9873 19.3761H15.33C15.6539 19.3758 15.9644 19.247 16.1935 19.018C16.4225 18.789 16.5514 18.4785 16.5517 18.1546C16.551 17.8307 16.4221 17.5204 16.1931 17.2914C15.9641 17.0624 15.6538 16.9335 15.33 16.9328H13.8104V23.5435H11.6676L11.6673 15.2667ZM6.07137 15.0623C7.40648 15.0623 8.62823 15.4636 9.56491 16.1251V17.5891C8.32292 16.925 7.15954 16.607 6.07137 16.6374C4.49632 16.6374 3.21154 17.8819 3.21154 19.4064C3.21154 20.9311 4.49632 22.1731 6.07137 22.1731C6.58887 22.1731 7.07601 22.0393 7.49493 21.8071V19.4723H9.70861V22.5796C8.75456 23.3067 7.4747 23.7508 6.07137 23.7508C3.1332 23.7508 0.735352 21.7996 0.735352 19.4067C0.735092 17.0135 3.1332 15.0623 6.07137 15.0623Z" fill="#2761AB"/>
<path fill-rule="evenodd" clip-rule="evenodd" d="M19.7978 26.4137C21.494 27.0368 23.2509 27.6808 25.3255 27.6808C27.3981 27.6808 29.1547 27.037 30.8509 26.4137C35.147 24.8358 36.5055 24.8436 40.8265 26.3579C42.5252 26.9512 44.2821 27.5672 46.362 27.5672C46.9754 27.5672 47.5611 27.5114 48.1214 27.4157C47.8773 27.7574 47.6143 28.0851 47.3337 28.3975C47.0105 28.4257 46.6863 28.4399 46.362 28.4401C44.1434 28.4401 42.311 27.7991 40.5414 27.1781C38.9892 26.6355 37.4875 26.1107 35.8463 26.0905H35.8437H35.8261H35.8287C34.1984 26.1133 32.6988 26.6609 31.1515 27.2313C29.3825 27.8798 27.5498 28.5542 25.3258 28.5542C23.0997 28.5542 21.267 27.8798 19.5003 27.2313C17.9504 26.6609 16.4511 26.113 14.8205 26.0905H14.8231H14.8029C13.1622 26.1107 11.6603 26.6357 10.1081 27.1781C8.34111 27.7994 6.50874 28.4401 4.28728 28.4401C3.93417 28.44 3.58126 28.4233 3.22972 28.39C2.94662 28.0758 2.68194 27.7455 2.43701 27.4007C3.0476 27.5111 3.6668 27.5669 4.28728 27.5675C6.36737 27.5675 8.12659 26.9514 9.82277 26.3582C14.1435 24.8436 15.5017 24.836 19.7978 26.4137ZM19.7978 29.604C21.494 30.2276 23.2509 30.8737 25.3255 30.8737C27.3981 30.8737 29.1547 30.2278 30.8509 29.604C35.147 28.0263 36.5055 28.0365 40.8265 29.5513C42.0708 29.985 43.3481 30.432 44.7615 30.6416C44.4156 30.8819 44.063 31.1125 43.7042 31.3331C42.5885 31.0885 41.5536 30.7246 40.5414 30.3715C38.9892 29.8263 37.4875 29.301 35.8463 29.2834H35.8437H35.8261H35.8287C34.1984 29.3036 32.6988 29.8538 31.1515 30.4219C29.3825 31.0735 27.5498 31.7448 25.3258 31.7448C23.0997 31.7448 21.267 31.0735 19.5003 30.4219C17.9504 29.854 16.4511 29.3036 14.8205 29.2834H14.8231H14.8029C13.1622 29.301 11.6603 29.8265 10.1081 30.3715C9.07831 30.7324 8.02568 31.101 6.8872 31.3458C6.52521 31.1243 6.16994 30.8919 5.82186 30.6491C7.26047 30.447 8.55796 29.9926 9.82277 29.5513C14.1435 28.0365 15.5017 28.0263 19.7978 29.604ZM19.7978 32.7974C21.494 33.4205 23.2509 34.0645 25.3255 34.0645C27.3981 34.0645 29.1547 33.4207 30.8509 32.7974C35.147 31.2198 36.5055 31.2273 40.8265 32.7416C40.8643 32.7543 40.8999 32.7671 40.9375 32.7795C40.5427 32.9567 40.1439 33.1249 39.7414 33.284C38.4667 32.8524 37.2048 32.4892 35.8463 32.4739H35.8437H35.8261H35.8287C34.1984 32.4968 32.6988 33.0469 31.1515 33.6148C29.3825 34.2632 27.5498 34.9377 25.3258 34.9377C23.0997 34.9377 21.267 34.2632 19.5003 33.6148C17.9504 33.0469 16.4511 32.4965 14.8205 32.4739H14.8231H14.8029C13.4299 32.4892 12.155 32.8599 10.8679 33.2993C10.4642 33.1406 10.0644 32.9724 9.66869 32.7948L9.82277 32.7416C14.1435 31.2273 15.5017 31.2195 19.7978 32.7974Z" fill="#82C4CE"/>
</g>
<defs>
<clipPath id="clip0_262_1344">
<rect width="50" height="50" fill="white"/>
</clipPath>
</defs>
</svg>
