<svg width="50" height="50" viewBox="0 0 50 50" fill="none" xmlns="http://www.w3.org/2000/svg">
<g clip-path="url(#clip0_262_278)">
<path fill-rule="evenodd" clip-rule="evenodd" d="M0 0H50V50H0V0Z" fill="white"/>
<path fill-rule="evenodd" clip-rule="evenodd" d="M21.8541 20.2227H24.0288V26.7091H21.8541V23.8737L19.6012 26.9421L17.5037 23.757V26.7091H15.1733V20.2227H17.6591L19.7566 23.5629L21.8541 20.2227ZM37.7394 26.7091H32.4963V20.2227H37.7394V21.7373H34.8653V22.6696H37.701V24.1066H34.8653V25.1554H37.7394V26.7091ZM40.303 26.7091H38.2056V20.2227H40.6527L42.7115 23.8348V20.2227H44.7701V26.7091H42.4005L40.303 23.3686V26.7091ZM28.3013 20.0673C25.7769 20.0673 24.3396 21.5822 24.3396 23.6018C24.3396 25.5439 25.7769 27.0588 28.3013 27.0588C30.8258 27.0588 32.2631 25.5439 32.2631 23.6018C32.2633 21.5822 30.826 20.0673 28.3013 20.0673ZM28.224 25.4664C27.1364 25.4664 26.5146 24.6117 26.5146 23.6018C26.5146 22.5145 27.1361 21.7373 28.224 21.7373C29.3112 21.7373 29.9329 22.5142 29.9329 23.6018C29.9329 24.6117 29.3112 25.4664 28.224 25.4664Z" fill="black"/>
<path fill-rule="evenodd" clip-rule="evenodd" d="M9.73561 23.2135L3.67639 20.106V25.9709C3.67639 26.9812 4.10362 27.9132 4.76378 28.5734C5.42394 29.2336 6.3562 29.6221 7.36603 29.6221C8.37612 29.6221 9.30812 29.2336 9.96854 28.5734C10.6676 27.9132 11.0559 26.981 11.0559 25.9709C11.0562 24.9221 10.5511 23.6796 9.73561 23.2135ZM9.1141 27.7187C8.68687 28.1457 8.06536 28.4178 7.36629 28.4178C6.70613 28.4178 6.08462 28.1457 5.61848 27.7187C5.19126 27.2526 4.91941 26.6316 4.91941 25.9709V22.0483L8.88116 24.068C9.42511 24.4176 9.85207 25.2718 9.85207 25.9709C9.85207 26.6316 9.58023 27.2526 9.1141 27.7187Z" fill="#CC2131"/>
<path fill-rule="evenodd" clip-rule="evenodd" d="M7.13342 25.9709C7.13342 26.9812 7.56065 27.9132 8.22107 28.5734C8.88149 29.2336 9.81349 29.6221 10.8233 29.6221C11.8331 29.6221 12.7654 29.2336 13.4258 28.5734C14.086 27.9132 14.5132 26.981 14.5132 25.9709V20.106L8.454 23.2135C7.63821 23.6796 7.13342 24.9221 7.13342 25.9709ZM8.33754 25.9709C8.33754 25.2718 8.76476 24.4174 9.30871 24.068L13.2705 22.0483V25.9711C13.2705 26.6318 12.9986 27.2528 12.5711 27.7189C12.1053 28.1459 11.4837 28.418 10.8233 28.418C10.1242 28.418 9.50274 28.1459 9.07552 27.7189C8.60938 27.2526 8.33754 26.6316 8.33754 25.9709Z" fill="#0080C0"/>
<path fill-rule="evenodd" clip-rule="evenodd" d="M15.2508 27.8744C15.2508 27.7579 15.173 27.7579 15.0955 27.7579V27.719H15.7945C16.0275 27.719 16.2607 27.8354 16.2607 28.1075C16.2607 28.3016 16.1439 28.4572 15.9499 28.4956C16.1828 28.5345 16.3382 28.6512 16.3382 28.9231C16.3382 29.2728 16.0664 29.4276 15.7556 29.4276H15.1341V29.3892C15.1728 29.3892 15.2506 29.3892 15.2506 29.2728L15.2508 27.8744ZM15.6005 29.3111C15.8334 29.3111 16.1831 29.2728 16.1831 28.9615C16.1831 28.651 15.9502 28.5734 15.717 28.5734H15.4062V29.3111H15.6005ZM15.4062 28.457H15.717C15.9888 28.457 16.1055 28.3013 16.1055 28.1073C16.1055 27.8352 15.8723 27.7963 15.717 27.7963H15.4062V28.457ZM17.5426 29.2728C17.5426 29.3503 17.5812 29.3892 17.6591 29.3892V29.4276H17.3872V29.2336C17.3097 29.3892 17.1929 29.4665 17.0376 29.4665C16.8433 29.4665 16.6879 29.3501 16.6879 29.0396V28.3405C16.6879 28.2624 16.6103 28.224 16.5714 28.224V28.1851C16.6492 28.1851 16.8044 28.1075 16.8433 28.1075V29.0009C16.8433 29.1955 16.8822 29.3506 17.0762 29.3506C17.2702 29.3506 17.387 29.1565 17.387 28.8844V28.3407C17.387 28.2627 17.3483 28.2243 17.2705 28.2243V28.1854C17.387 28.1854 17.5423 28.1078 17.5423 28.1078L17.5426 29.2728ZM17.9309 28.3794C17.892 28.2238 17.8144 28.1848 17.7755 28.1848V28.1459C17.8531 28.1459 17.892 28.1848 17.9698 28.1848C18.0474 28.1848 18.1252 28.1459 18.2028 28.1459V28.1848C18.0863 28.2238 18.0474 28.2238 18.0474 28.3013C18.0474 28.3402 18.0474 28.3402 18.1641 28.6899L18.3581 29.2336L18.5913 28.4178V28.3013C18.5913 28.2238 18.5524 28.1848 18.4749 28.1848V28.1459C18.5524 28.1459 18.5913 28.1848 18.6691 28.1848C18.747 28.1848 18.7856 28.1459 18.8245 28.1459V28.1848C18.7859 28.1848 18.747 28.2238 18.7081 28.3405L18.3197 29.6222C18.2811 29.7773 18.2419 29.9327 18.0868 29.9327C18.0479 29.9327 18.0092 29.8937 17.9703 29.8551L17.9317 29.6605H18.0092C18.0092 29.6995 18.0092 29.777 18.0868 29.777C18.1646 29.777 18.2033 29.6605 18.2422 29.583L18.2811 29.4274L17.9309 28.3794ZM19.873 29.2728C19.873 29.3892 19.9119 29.3892 19.9895 29.3892V29.4276H19.6009V29.3892C19.6395 29.3892 19.7174 29.3892 19.7174 29.2728V28.3405C19.7174 28.2624 19.6785 28.224 19.6009 28.224V28.1851C19.6785 28.1851 19.8338 28.1075 19.8727 28.1075L19.873 29.2728ZM19.7952 27.6414C19.8341 27.6414 19.8727 27.6803 19.8727 27.7579C19.8727 27.7963 19.8341 27.8744 19.7952 27.8744C19.7176 27.8744 19.6787 27.7963 19.6787 27.7579C19.6787 27.6803 19.7176 27.6414 19.7952 27.6414ZM20.1838 28.1459H20.3391V27.8744C20.378 27.8744 20.4167 27.8354 20.4556 27.7579H20.4945V28.1459H20.8442V28.224H20.4945V29.1563C20.4945 29.2728 20.5334 29.3503 20.6499 29.3503C20.6885 29.3503 20.7664 29.3114 20.8442 29.2728V29.3892C20.7666 29.4276 20.6499 29.4668 20.6112 29.4668C20.417 29.4668 20.3394 29.3503 20.3394 29.1563V28.224H20.184L20.1838 28.1459ZM21.7373 28.224H21.6208V28.1851C21.6595 28.1851 21.7373 28.1851 21.7373 28.03C21.7373 27.7579 21.8148 27.5249 22.0869 27.5249H22.2034V27.719C22.1645 27.6806 22.1258 27.6025 22.048 27.6025C21.9316 27.6025 21.8927 27.7581 21.8927 27.8746V28.1462H22.1645V28.2243H21.8927V29.273C21.8927 29.3895 21.9705 29.3895 22.048 29.3895V29.4279H21.6597V29.3895C21.6986 29.3895 21.7375 29.3895 21.7375 29.273L21.7373 28.224ZM22.8638 28.1459C23.2135 28.1459 23.4464 28.457 23.4464 28.8066C23.4464 29.1171 23.2521 29.4668 22.9027 29.4668C22.5142 29.4668 22.3201 29.1563 22.3201 28.7677C22.3199 28.457 22.5142 28.1459 22.8638 28.1459ZM22.9025 29.3501C23.1354 29.3501 23.2908 29.1949 23.2908 28.845C23.2908 28.5345 23.1354 28.2238 22.8636 28.2238C22.6306 28.2238 22.4363 28.4178 22.4363 28.7674C22.4366 29.0782 22.6306 29.3501 22.9025 29.3501ZM23.7958 28.3405C23.7958 28.2624 23.7569 28.224 23.6794 28.224V28.1851C23.7569 28.1851 23.9512 28.1075 23.9512 28.1075V28.3797C23.9899 28.2627 24.1066 28.1462 24.2231 28.1462H24.3395V28.3018H24.2231C24.0677 28.3018 23.9512 28.4959 23.9512 28.6904V29.273C23.9512 29.3895 24.0288 29.3895 24.0677 29.3895V29.4279H23.6791V29.3895C23.7178 29.3895 23.7956 29.3895 23.7956 29.273L23.7958 28.3405ZM25.2331 27.6803C25.2331 27.6022 25.1553 27.6022 25.1164 27.6022V27.5639C25.194 27.5249 25.3496 27.4474 25.388 27.4474C25.388 27.4858 25.3496 27.6025 25.3496 27.719V29.2728C25.3496 29.3892 25.4272 29.3892 25.5047 29.3892V29.4276H25.1167V29.3892C25.1553 29.3892 25.2334 29.3892 25.2334 29.2728L25.2331 27.6803ZM26.2819 28.1459C26.6315 28.1459 26.864 28.457 26.864 28.8066C26.864 29.1171 26.6699 29.4668 26.3203 29.4668C25.9322 29.4668 25.7377 29.1563 25.7377 28.7677C25.7379 28.457 25.9325 28.1459 26.2819 28.1459ZM26.3205 29.3501C26.5535 29.3501 26.7475 29.1949 26.7475 28.845C26.7475 28.5345 26.5535 28.2238 26.2819 28.2238C26.0484 28.2238 25.8933 28.4178 25.8933 28.7674C25.8933 29.0782 26.0484 29.3501 26.3205 29.3501ZM27.6414 28.1459C27.991 28.1459 28.224 28.457 28.224 28.8066C28.224 29.1171 28.0294 29.4668 27.6414 29.4668C27.2917 29.4668 27.0588 29.1563 27.0588 28.7677C27.0585 28.457 27.2917 28.1459 27.6414 28.1459ZM27.6798 29.3501C27.8743 29.3501 28.0683 29.1949 28.0683 28.845C28.0683 28.5345 27.9127 28.2238 27.6414 28.2238C27.4084 28.2238 27.2139 28.4178 27.2139 28.7674C27.2136 29.0782 27.4082 29.3501 27.6798 29.3501ZM28.5345 27.6803C28.5345 27.6022 28.4956 27.6022 28.418 27.6022V27.5639C28.4956 27.5249 28.6509 27.4474 28.6901 27.4474V28.6901C28.7677 28.6121 28.8841 28.4956 28.9617 28.3797C29.0398 28.3016 29.0398 28.3016 29.0398 28.2627C29.0398 28.2243 29.0009 28.1851 28.9617 28.1851V28.1462C29.0006 28.1462 29.0782 28.1851 29.1562 28.1851C29.1946 28.1851 29.2727 28.1462 29.3114 28.1462L28.8452 28.6904C28.9617 28.8455 29.0782 29.0401 29.1949 29.1955C29.273 29.3114 29.3114 29.3895 29.4278 29.3895V29.4279H29.1949C29.0398 29.1955 28.8844 28.9233 28.6904 28.7293V29.273C28.6904 29.3895 28.7288 29.3895 28.8068 29.3895V29.4279H28.4183V29.3895C28.4572 29.3895 28.5347 29.3895 28.5347 29.273L28.5345 27.6803ZM30.2823 28.457H30.2434C30.2434 28.3013 30.1269 28.224 29.9718 28.224C29.8553 28.224 29.6608 28.2624 29.6608 28.457C29.6608 28.6121 29.7388 28.651 29.9329 28.7291C30.2434 28.8066 30.3598 28.8842 30.3598 29.0782C30.3598 29.3503 30.0882 29.4668 29.8553 29.4668C29.7388 29.4668 29.6224 29.4279 29.5443 29.3503L29.5059 29.0782H29.5443C29.5832 29.2338 29.6999 29.3503 29.894 29.3503C30.0104 29.3503 30.205 29.2728 30.205 29.1174C30.205 28.9233 30.1269 28.9233 29.9329 28.8453C29.6999 28.8069 29.5059 28.7293 29.5059 28.4956C29.5059 28.224 29.8164 28.1459 29.972 28.1459C30.0885 28.1459 30.205 28.1459 30.2825 28.1848L30.2823 28.457ZM30.6708 29.3501C30.6708 29.4276 30.7092 29.4665 30.7484 29.4665C30.826 29.4665 30.8649 29.4276 30.8649 29.3501C30.8649 29.3111 30.826 29.2725 30.7484 29.2725C30.7095 29.2728 30.6708 29.3111 30.6708 29.3501ZM31.9528 27.8744C31.9528 27.7579 31.8747 27.7579 31.8363 27.7579V27.719H32.4965C32.7686 27.719 32.9626 27.8354 32.9626 28.1075C32.9626 28.3016 32.8461 28.4572 32.6521 28.4956C32.9237 28.5345 33.0791 28.6512 33.0791 28.9231C33.0791 29.2728 32.807 29.4276 32.4576 29.4276H31.8363V29.3892C31.8747 29.3892 31.9528 29.3892 31.9528 29.2728V27.8744ZM32.3022 29.3111C32.5738 29.3111 32.9234 29.2728 32.9234 28.9615C32.9234 28.651 32.6518 28.5734 32.4189 28.5734H32.1079V29.3111H32.3022ZM32.1076 28.457H32.4573C32.6902 28.457 32.807 28.3013 32.807 28.1073C32.807 27.8352 32.6129 27.7963 32.4189 27.7963H32.1079L32.1076 28.457ZM34.2443 29.2728C34.2443 29.3503 34.2827 29.3892 34.3607 29.3892V29.4276H34.1278V29.2336H34.0889C34.05 29.3892 33.9333 29.4665 33.7392 29.4665C33.5452 29.4665 33.3896 29.3501 33.3896 29.0396V28.3405C33.3896 28.2624 33.3507 28.224 33.2731 28.224V28.1851C33.3896 28.1851 33.5452 28.1075 33.5452 28.1075V29.0009C33.5452 29.1955 33.5841 29.3506 33.7781 29.3506C33.9722 29.3506 34.1278 29.1565 34.1278 28.8844V28.3407C34.1278 28.2627 34.0497 28.2243 33.9722 28.2243V28.1854C34.0886 28.1854 34.2443 28.1078 34.2443 28.1078V29.2728ZM34.6712 28.3794C34.5937 28.2238 34.5156 28.1848 34.4772 28.1848V28.1459C34.5548 28.1459 34.6323 28.1848 34.6712 28.1848C34.7488 28.1848 34.8269 28.1459 34.9042 28.1459V28.1848C34.8266 28.2238 34.7877 28.2238 34.7877 28.3013C34.7877 28.3402 34.7877 28.3402 34.9042 28.6899L35.0598 29.2336H35.0982L35.2928 28.4178C35.3311 28.3794 35.3311 28.3402 35.3311 28.3013C35.3311 28.2238 35.2536 28.1848 35.2147 28.1848V28.1459C35.2536 28.1459 35.3311 28.1848 35.3703 28.1848C35.4479 28.1848 35.4868 28.1459 35.5643 28.1459V28.1848C35.4868 28.1848 35.4479 28.2238 35.4092 28.3405L35.0596 29.6222C35.0206 29.7773 34.9431 29.9327 34.7875 29.9327C34.7485 29.9327 34.7099 29.8937 34.671 29.8551V29.6605H34.7099C34.7099 29.6995 34.7483 29.777 34.7875 29.777C34.865 29.777 34.9431 29.6605 34.9431 29.583L35.0206 29.4274L34.6712 28.3794ZM36.5747 29.2728C36.5747 29.3892 36.6522 29.3892 36.6912 29.3892V29.4276H36.3026V29.3892C36.3415 29.3892 36.419 29.3892 36.419 29.2728V28.3405C36.419 28.2624 36.3801 28.224 36.3026 28.224V28.1851C36.419 28.1851 36.5747 28.1075 36.5747 28.1075V29.2728ZM36.4966 27.6414C36.5355 27.6414 36.6131 27.6803 36.6131 27.7579C36.6131 27.7963 36.5355 27.8744 36.4966 27.8744C36.419 27.8744 36.3801 27.7963 36.3801 27.7579C36.3801 27.6803 36.419 27.6414 36.4966 27.6414ZM36.8852 28.1459H37.0408V27.8744C37.0792 27.8744 37.1184 27.8354 37.1959 27.7579V28.1459H37.5456V28.224H37.1959V29.1563C37.1959 29.2728 37.2348 29.3503 37.3516 29.3503C37.4291 29.3503 37.5072 29.3114 37.5456 29.2728V29.3892C37.468 29.4276 37.3905 29.4668 37.3127 29.4668C37.1186 29.4668 37.0411 29.3503 37.0411 29.1563V28.224H36.8854L36.8852 28.1459ZM38.4776 28.224H38.3225V28.1851C38.4001 28.1851 38.4776 28.1851 38.4776 28.03C38.4776 27.7579 38.5165 27.5249 38.7886 27.5249H38.9437V27.719H38.9048C38.8664 27.6806 38.8664 27.6025 38.7497 27.6025C38.633 27.6025 38.5941 27.7581 38.5941 27.8746V28.1462H38.8662V28.2243H38.5941V29.273C38.5941 29.3895 38.7105 29.3895 38.7497 29.3895V29.4279H38.3611V29.3895C38.4 29.3895 38.4776 29.3895 38.4776 29.273V28.224ZM39.6039 28.1459C39.9149 28.1459 40.1481 28.457 40.1481 28.8066C40.1481 29.1171 39.9536 29.4668 39.6039 29.4668C39.2158 29.4668 39.0213 29.1563 39.0213 28.7677C39.0213 28.457 39.2158 28.1459 39.6039 28.1459ZM39.6039 29.3501C39.8368 29.3501 40.0314 29.1949 40.0314 28.845C40.0314 28.5345 39.8757 28.2238 39.6039 28.2238C39.3323 28.2238 39.1769 28.4178 39.1769 28.7674C39.1767 29.0782 39.3323 29.3501 39.6039 29.3501ZM40.4975 28.3405C40.4975 28.2624 40.4586 28.224 40.381 28.224V28.1851C40.4975 28.1851 40.6526 28.1075 40.6526 28.1075V28.3797C40.7307 28.2627 40.8083 28.1462 40.9247 28.1462H41.0412V28.3018H40.9247C40.7691 28.3018 40.6526 28.4959 40.6526 28.6904V29.273C40.6526 29.3895 40.7307 29.3895 40.7691 29.3895V29.4279H40.381V29.3895C40.4586 29.3895 40.4975 29.3895 40.4975 29.273V28.3405ZM41.9343 27.6803C41.9343 27.6022 41.8959 27.6022 41.8178 27.6022V27.5639C41.9343 27.5249 42.0899 27.4474 42.0899 27.4474V29.2728C42.0899 29.3892 42.1675 29.3892 42.2064 29.3892V29.4276H41.8178V29.3892C41.8567 29.3892 41.9343 29.3892 41.9343 29.2728V27.6803ZM42.7501 29.2728C42.7501 29.3892 42.8282 29.3892 42.8666 29.3892V29.4276H42.4785V29.3892C42.5561 29.3892 42.595 29.3892 42.595 29.2728V28.3405C42.595 28.2624 42.5561 28.224 42.4785 28.224V28.1851C42.595 28.1851 42.7501 28.1075 42.7501 28.1075V29.2728ZM42.6725 27.6414C42.7115 27.6414 42.789 27.6803 42.789 27.7579C42.789 27.7963 42.7115 27.8744 42.6725 27.8744C42.595 27.8744 42.5561 27.7963 42.5561 27.7579C42.5561 27.6803 42.595 27.6414 42.6725 27.6414ZM43.2162 28.224H43.0998V28.1851C43.1779 28.1851 43.2162 28.1851 43.2162 28.03C43.2162 27.7579 43.2943 27.5249 43.5659 27.5249H43.6824V27.719C43.644 27.6806 43.6048 27.6025 43.5273 27.6025C43.4108 27.6025 43.3716 27.7581 43.3716 27.8746V28.1462H43.6437V28.2243H43.3716V29.273C43.3716 29.3895 43.4492 29.3895 43.5273 29.3895V29.4279H43.1387V29.3895C43.1776 29.3895 43.2162 29.3895 43.2162 29.273V28.224ZM44.7308 29.3111C44.6144 29.4276 44.4979 29.4668 44.3428 29.4668C43.9931 29.4668 43.7986 29.1171 43.7986 28.7677C43.7986 28.4183 43.9931 28.1462 44.3036 28.1462C44.5752 28.1462 44.8087 28.3018 44.8087 28.7677H43.9151C43.9151 29.0398 44.1096 29.3503 44.3812 29.3503C44.5368 29.3503 44.6533 29.2728 44.7308 29.1563V29.3111ZM44.6536 28.651C44.6536 28.418 44.5371 28.224 44.3039 28.224C44.1099 28.224 43.9542 28.457 43.9542 28.651H44.6536ZM45.197 29.2728C45.2171 29.274 45.2361 29.2826 45.2504 29.2969C45.2647 29.3112 45.2733 29.3302 45.2745 29.3503C45.2745 29.4279 45.2362 29.4668 45.197 29.4668C45.1578 29.4668 45.1194 29.4279 45.1194 29.3503C45.1207 29.3302 45.1293 29.3112 45.1436 29.2969C45.1578 29.2826 45.1768 29.274 45.197 29.2728ZM45.8188 28.6121C46.0903 28.6121 46.3233 28.3797 46.3233 28.1075C46.3233 27.8354 46.0903 27.6025 45.8188 27.6025C45.5858 27.6025 45.3526 27.8354 45.3526 28.1075C45.3526 28.3797 45.5856 28.6121 45.8188 28.6121ZM45.4302 28.1073C45.4302 27.8744 45.6242 27.7187 45.8188 27.7187C46.0517 27.7187 46.2457 27.8744 46.2457 28.1073C46.2457 28.3402 46.0517 28.5343 45.8188 28.5343C45.6242 28.5345 45.4302 28.3405 45.4302 28.1073ZM45.7407 28.1459H45.8188L45.9739 28.3794H46.0903L45.9352 28.1459C46.0128 28.1459 46.0517 28.0684 46.0517 27.9908C46.0517 27.8744 46.0128 27.8352 45.8571 27.8352H45.6631V28.3794H45.7407V28.1459ZM45.7407 28.0684V27.9133H45.8571C45.8961 27.9133 45.9736 27.9133 45.9736 27.9908C45.9736 28.0684 45.8961 28.0684 45.8185 28.0684H45.7407Z" fill="black"/>
</g>
<defs>
<clipPath id="clip0_262_278">
<rect width="50" height="50" fill="white"/>
</clipPath>
</defs>
</svg>
