<svg width="50" height="50" viewBox="0 0 50 50" fill="none" xmlns="http://www.w3.org/2000/svg">
<g clip-path="url(#clip0_262_1332)">
<path fill-rule="evenodd" clip-rule="evenodd" d="M0 0H50V50H0V0Z" fill="white"/>
<path fill-rule="evenodd" clip-rule="evenodd" d="M49.1139 28.9714C49.0667 28.9228 49.01 28.8845 48.9473 28.8586C48.8847 28.8328 48.8175 28.8201 48.7497 28.8212C48.6078 28.8212 48.4872 28.8712 48.3876 28.9714C48.3389 29.0183 48.3004 29.0747 48.2744 29.1371C48.2484 29.1996 48.2356 29.2667 48.2366 29.3343C48.2366 29.4772 48.2862 29.5991 48.386 29.6992C48.4859 29.8004 48.6076 29.8507 48.7497 29.8507C48.8919 29.8507 49.0138 29.8004 49.1139 29.6992C49.2143 29.5983 49.2649 29.4767 49.2649 29.3343C49.2649 29.1924 49.2143 29.0712 49.1139 28.9714ZM49.0628 29.6499C49.0224 29.6921 48.9737 29.7254 48.9199 29.7478C48.866 29.7703 48.8081 29.7814 48.7497 29.7804C48.6265 29.7804 48.5222 29.7368 48.4361 29.6499C48.3946 29.6087 48.3619 29.5595 48.3399 29.5053C48.3179 29.4511 48.307 29.393 48.308 29.3345C48.308 29.2121 48.351 29.1075 48.4371 29.0212C48.5233 28.9343 48.6275 28.8907 48.7497 28.8907C48.8719 28.8907 48.9767 28.9343 49.0628 29.0212C49.1489 29.1075 49.192 29.2121 49.192 29.3345C49.192 29.4577 49.1489 29.563 49.0628 29.6499Z" fill="black"/>
<path fill-rule="evenodd" clip-rule="evenodd" d="M48.9785 29.6087C48.9753 29.5992 48.9736 29.5893 48.9733 29.5794C48.9728 29.5641 48.9723 29.5503 48.9723 29.5373V29.4958C48.971 29.4642 48.9602 29.4336 48.9414 29.4082C48.9299 29.3927 48.9154 29.3798 48.8986 29.3703C48.8818 29.3607 48.8633 29.3548 48.8441 29.3529C48.8729 29.3495 48.9006 29.3403 48.9256 29.3257C48.9627 29.3018 48.9813 29.2647 48.9813 29.2141C48.9813 29.1433 48.952 29.0953 48.8937 29.0712C48.8607 29.0575 48.8096 29.0507 48.7391 29.0507H48.5414V29.6157H48.6413V29.3931H48.7199C48.7725 29.3931 48.8096 29.3991 48.8304 29.4113C48.8659 29.432 48.8836 29.4753 48.8836 29.5407V29.5856L48.8861 29.6037C48.8867 29.6077 48.8876 29.6116 48.8887 29.6154H48.9819L48.9785 29.6087ZM48.826 29.3106C48.7954 29.3204 48.7634 29.3247 48.7313 29.3233H48.6415V29.1187H48.7261C48.7814 29.1187 48.8213 29.1254 48.8462 29.1397C48.8716 29.1537 48.8838 29.1812 48.8838 29.2222C48.8838 29.2657 48.8646 29.2953 48.826 29.3106ZM24.1528 23.7108H21.4948V19.9363H18.6508V29.9308H21.4948V26.1564H24.1528V29.9308H26.9968V19.9363H24.1528V23.7108ZM33.8814 29.9308H39.3303V27.5916H36.7257V26.1564H39.1181V23.8172H36.7257V22.3819H39.3303V19.9363H33.8814V29.9308ZM30.4789 19.9363H27.6347V29.9308H33.3232V27.5916H30.4789V19.9363ZM13.1752 19.8596C10.3361 19.8596 8.02439 21.9832 8.03476 25C8.04514 28.0967 10.3364 30.1404 13.1752 30.1404C16.014 30.1404 18.3258 28.0168 18.3156 25C18.305 21.9033 16.014 19.8596 13.1752 19.8596ZM13.1752 27.4622C11.9088 27.4622 10.8757 26.3955 10.8821 25C10.8891 23.4452 11.9088 22.5378 13.1752 22.5378C14.4416 22.5378 15.461 23.4452 15.4683 25C15.4753 26.5551 14.4413 27.4622 13.1752 27.4622Z" fill="black"/>
<path fill-rule="evenodd" clip-rule="evenodd" d="M9.42718 20.0427H5.9186L3.57938 23.1262V20.0427H0.735107V29.9309H3.57938V26.4752L6.21094 29.9309H9.85233L5.81225 24.7741L9.42718 20.0427ZM45.2048 25.9702C45.5239 25.7842 47.0387 24.8006 46.8265 22.7539C46.6138 20.7073 45.0188 20.0427 43.7696 20.0427H39.8888V29.9309H42.733V26.7678L44.8331 29.9309H48.0229L45.2048 25.9702ZM43.3706 24.1627H42.7328V22.382H43.4238C43.8757 22.382 44.2212 22.7007 44.2212 23.2325C44.2214 23.764 44.0354 24.1627 43.3706 24.1627Z" fill="black"/>
</g>
<defs>
<clipPath id="clip0_262_1332">
<rect width="50" height="50" fill="white"/>
</clipPath>
</defs>
</svg>
