<svg width="50" height="50" viewBox="0 0 50 50" fill="none" xmlns="http://www.w3.org/2000/svg">
<g clip-path="url(#clip0_262_1818)">
<path fill-rule="evenodd" clip-rule="evenodd" d="M0 0H50V50H0V0Z" fill="white"/>
<path fill-rule="evenodd" clip-rule="evenodd" d="M4.76867 21.9607C4.84 22.0382 4.85401 22.1547 4.81147 22.245C4.78319 22.3228 4.6841 22.3871 4.59876 22.4131C4.53996 22.4264 4.47867 22.4238 4.42119 22.4056C4.36371 22.3874 4.3121 22.3543 4.27166 22.3096C4.20085 22.2325 4.17283 22.1031 4.22886 22.0125C4.28593 21.922 4.37127 21.8572 4.47062 21.8447C4.5845 21.8442 4.69837 21.8701 4.76867 21.9607ZM39.082 25.2086L39.1951 25.4285L39.4939 24.8208L41.257 20.9472C41.5797 20.9669 41.8661 20.9555 42.1644 20.9555L41.2835 22.9593L39.2241 27.5224L39.2099 27.5356L38.386 25.7385L35.1908 18.5896C35.4896 18.5896 35.7872 18.5766 36.0855 18.5766L39.082 25.2086Z" fill="#00ACEC"/>
<path fill-rule="evenodd" clip-rule="evenodd" d="M8.93017 23.46L4.93911 21.0686L0.749618 20.6679L0.735352 20.6935L3.9311 23.7959L5.57878 28.5924L5.62132 28.644L7.24021 27.0669H7.28301C7.82281 27.5584 8.34809 28.1141 8.90215 28.6056C9.0871 28.1016 9.22925 27.5839 9.42769 27.1055C9.6269 27.1709 9.83935 27.2093 10.0668 27.2479C11.3732 27.4036 12.5521 26.9636 13.3472 26.0073C14.0148 25.1925 14.1998 23.9259 13.7168 22.9692C13.2766 21.9996 12.1973 21.2367 11.0748 21.1073C9.76801 20.9265 8.57531 21.4307 7.82229 22.3231C8.06379 22.4779 8.30503 22.646 8.56105 22.7498C9.22873 21.9996 10.3218 21.6634 11.3444 21.9737C12.2398 22.2196 12.9067 22.9308 13.0914 23.7456C13.2763 24.702 12.8219 25.607 11.9552 26.137C11.2735 26.5637 10.2085 26.6153 9.46971 26.2661C9.29903 26.2013 9.14313 26.0853 8.98672 26.021L8.56079 27.2617C8.54652 27.3001 8.51799 27.2617 8.50398 27.2485L2.7659 21.6896L2.65254 21.5348L4.6268 21.7156L9.96671 24.9087H10.0093L8.93017 23.46ZM49.2648 20.9135C49.2511 20.8487 49.1634 20.9327 49.1209 20.907L44.328 20.8909L44.2834 20.8826L44.2798 21.7021H46.3389L46.343 27.0638L46.3962 27.0669H47.2346L47.2203 21.715L47.2213 21.6504H49.2646L49.2648 20.9135ZM43.6837 21.9345L43.6974 20.907C43.4137 20.907 43.1122 20.899 42.8274 20.907L42.8316 25.9808L42.8274 27.064C43.1122 27.0479 43.4399 27.0879 43.7114 27.0671L43.6837 21.9345ZM26.2658 21.8442L26.2375 21.0035H25.4V24.5715C25.4 25.1793 25.2718 25.7868 24.69 26.1359C24.263 26.3943 23.6387 26.4329 23.1842 26.2262C22.5876 25.9805 22.3461 25.4246 22.3461 24.8561L22.2895 21.094L22.275 21.0165C21.991 21.0165 21.737 21.0199 21.4533 21.0282L21.4517 24.6491L21.5225 25.476C21.6361 26.084 22.1194 26.614 22.7152 26.924C23.3829 27.2861 24.4197 27.2604 25.0731 26.8856C25.8679 26.4586 26.2513 25.696 26.2798 24.8947L26.2658 21.8442ZM20.1786 22.4385C19.9794 22.1545 19.7241 21.8569 19.4256 21.6502C18.4598 20.9132 17.1393 21.0557 15.8607 21.0684V27.1704L15.875 27.1963L17.0822 27.1704C18.4028 27.2347 19.6528 26.7048 20.2639 25.6187C20.8177 24.7012 20.8177 23.3308 20.1786 22.4385ZM19.6105 24.9723C19.2982 25.7479 18.4176 26.3943 17.4661 26.4202H16.7276L16.6993 21.8183C17.5512 21.7537 18.4176 21.8183 18.9999 22.3998C19.7241 23.0465 20.0222 24.0934 19.6105 24.9723ZM35.0858 21.5467L34.6456 20.5773L31.6493 27.0793H31.621C31.0242 26.2651 30.399 25.4636 29.8312 24.6618C30.1155 24.5974 30.399 24.5199 30.6265 24.3518C31.3653 23.8348 31.5206 22.9428 31.2797 22.1545C31.1235 21.6629 30.6408 21.1848 30.087 21.0559C29.2343 20.9392 28.2829 21.0167 27.4022 21.0167L27.4305 26.9766L27.4269 27.1286L28.3109 27.1312L28.3145 24.6963L28.8222 24.7139L30.6405 27.119H32.5582L33.297 25.5546L34.4897 25.5419C34.5322 25.5281 34.5322 25.593 34.5605 25.5419L35.9239 25.5546C36.1656 26.0718 36.3778 26.6013 36.6341 27.1055L37.5005 27.0928V27.0796L35.0858 21.5467ZM28.3236 23.8883C28.3412 23.185 28.306 22.4743 28.3023 21.7799C29.0546 21.8569 30.1484 21.5208 30.4045 22.3485C30.5746 22.7749 30.5043 23.3176 30.177 23.6538C29.723 24.1067 28.9347 23.8366 28.3236 23.8883ZM33.6565 24.7531C33.9408 24.0418 34.3102 23.357 34.6228 22.6455L35.5459 24.7398C34.9068 24.7531 34.3242 24.7531 33.6565 24.7531Z" fill="#00ACEC"/>
<path fill-rule="evenodd" clip-rule="evenodd" d="M6.72876 26.5242C6.50179 26.7952 6.20375 27.0541 5.93346 27.3125C5.63541 26.5501 5.37965 25.7608 5.12415 24.9725L6.72876 26.5242Z" fill="white"/>
<path fill-rule="evenodd" clip-rule="evenodd" d="M36.9055 31.3459H36.6424L36.6282 29.216C36.2873 29.8883 35.975 30.6538 35.6484 31.3518C35.5566 31.3614 35.4853 31.3588 35.3966 31.3588C35.0557 30.6476 34.7714 29.9236 34.4163 29.238V31.3552L34.132 31.3588C34.1284 30.5057 34.1357 29.7329 34.1357 28.9021H34.5592L35.5102 31.0224H35.539L36.4469 28.928L36.465 28.8865L36.8941 28.8925L36.9055 31.3459ZM29.6624 31.372H29.3534L29.2398 31.2424L27.8482 29.238V31.3614C27.7561 31.3679 27.6809 31.3588 27.5924 31.365C27.5888 30.5959 27.5924 29.7433 27.5924 28.928H27.9338C28.445 29.6136 28.956 30.2984 29.3965 30.9967V28.9125C29.4811 28.9125 29.5661 28.9184 29.6554 28.9156L29.6624 31.372ZM32.5876 28.9252C32.5876 29.72 32.5917 30.5316 32.5917 31.3591H32.2934C32.2976 30.5378 32.2976 29.707 32.2934 28.9252H32.5876ZM20.1218 28.9444C20.1255 29.0123 20.1146 29.1257 20.1218 29.1804H18.8544L18.851 29.998L18.8544 30.0113H20.0435C20.0435 30.0725 20.0507 30.1692 20.0474 30.2336L18.83 30.231V31.1744C19.2523 31.1744 19.7387 31.1809 20.1683 31.1744L20.1755 31.3972L18.5172 31.4037V28.9441C19.0744 28.948 19.5893 28.9444 20.1218 28.9444ZM16.1593 31.1998L16.2304 31.2034H17.5048V31.4203C16.951 31.4299 16.4361 31.4172 15.875 31.4203V28.9672H16.1593V31.1998ZM47.6356 29.4323C47.3231 28.6956 46.3929 28.8284 45.6401 28.8248L45.6336 31.281L45.6401 31.2971C46.2476 31.2779 47.0535 31.4491 47.4792 30.9191C47.8058 30.5184 47.8201 29.8979 47.6356 29.4323ZM47.2478 30.79C46.9363 31.1648 46.3962 31.0322 45.9275 31.061V29.0577C46.3962 29.0831 46.964 28.9669 47.2623 29.342C47.5612 29.7433 47.5469 30.4019 47.2478 30.79ZM43.5273 28.838H43.2435C42.8316 29.6263 42.5048 30.4662 42.1219 31.2942H42.434C42.5333 31.0774 42.6184 30.8546 42.7312 30.6478H44.0246L44.2866 31.2234C44.3296 31.3617 44.3084 31.2909 44.6316 31.3041C44.2765 30.4764 43.8967 29.652 43.5273 28.838ZM42.8459 30.405L43.3572 29.0964L43.925 30.4019L42.8459 30.405ZM41.2688 30.3244C41.1847 30.1692 40.9998 30.066 40.8431 30.0017C40.9567 29.9495 41.0849 29.872 41.1551 29.7682C41.2833 29.5747 41.2407 29.2904 41.0994 29.1096L40.9139 28.954C40.5168 28.7732 39.7923 28.8832 39.508 28.8637V31.3067C40.0369 31.2748 40.9852 31.5139 41.2833 30.88C41.3684 30.7124 41.3544 30.4927 41.2688 30.3244ZM39.8237 29.0772C40.193 29.1288 40.772 28.9348 40.9139 29.3488C40.9422 29.4779 40.8996 29.6071 40.8431 29.7231C40.6019 29.9687 40.1788 29.9044 39.8237 29.9044V29.0772ZM40.9712 30.8416C40.7432 31.1907 40.218 31.0483 39.82 31.074V30.156C40.1189 30.1692 40.772 30.0273 40.9712 30.4017C41.0563 30.5316 41.028 30.7124 40.9712 30.8416ZM23.2465 30.4566C23.1754 30.2764 22.9765 30.1723 22.8203 30.0948L23.0045 29.9915C23.1894 29.8364 23.232 29.5908 23.1609 29.3584C22.9197 28.7376 21.9363 28.9864 21.4852 28.9444L21.4707 28.9576V31.4011C21.7088 31.349 22.721 31.5557 23.1184 31.1687C23.3033 30.9871 23.3601 30.6896 23.2465 30.4566ZM21.7978 29.1739C21.9892 29.1739 22.4792 29.0964 22.7352 29.2515L22.8631 29.4196C22.9056 29.536 22.8771 29.6785 22.8203 29.7817C22.6073 30.0787 22.1599 29.9783 21.7978 30.0017V29.1739ZM22.9482 30.8898C22.7352 31.2779 22.1954 31.1295 21.7908 31.1684L21.7835 31.1487V30.2434C22.1529 30.2572 22.6782 30.1148 22.9344 30.4639C23.0047 30.5799 23.019 30.7479 22.9482 30.8898ZM26.1937 28.9195C26.1974 28.9874 26.1867 29.1008 26.1937 29.1555H24.9263L24.923 29.9726L24.9263 29.9864H26.1157C26.1157 30.0476 26.1227 30.1438 26.1198 30.2092L24.9017 30.205V31.1495C25.324 31.1495 25.8109 31.156 26.2399 31.1495L26.2469 31.3718L24.5894 31.3783V28.9192C25.1466 28.9226 25.6609 28.9195 26.1937 28.9195Z" fill="#00ACEC"/>
</g>
<defs>
<clipPath id="clip0_262_1818">
<rect width="50" height="50" fill="white"/>
</clipPath>
</defs>
</svg>
