<svg width="50" height="50" viewBox="0 0 50 50" fill="none" xmlns="http://www.w3.org/2000/svg">
<g clip-path="url(#clip0_262_874)">
<path fill-rule="evenodd" clip-rule="evenodd" d="M0 0H50V50H0V0Z" fill="white"/>
<path fill-rule="evenodd" clip-rule="evenodd" d="M35.8477 36.9426V28.3H37.4847L37.9864 29.8193H40.3687L37.0572 19.7828H35.8479V13.0572L47.7944 25.0036L35.8477 36.9426ZM35.8477 26.5966H36.9166L35.8477 23.3593V26.5966ZM35.8479 13.0572L35.8477 19.7825H34.6384L31.8063 28.3444V24.3326H32.2932V22.4374H31.8063V9.02359L35.8479 13.0572ZM35.8477 23.3593L34.7782 26.5966H35.8477V23.3593ZM35.8477 28.3H34.2104L33.724 29.8193H31.8063V40.9839L35.8477 36.9426V28.3ZM31.8063 9.02359V22.4374H31.7253C30.9881 22.4374 30.1988 22.806 29.8229 23.5658V22.6291H27.5517V29.8193H29.8229V26.4046C29.8229 25.2986 30.708 24.3842 31.8063 24.3326V28.3444L31.3199 29.8193H31.8063V40.9839L25 47.7905L24.3362 47.1267V29.8191H25.4718V24.3326H26.7992V22.6291H25.4718V19.7828H24.3362V2.8658L24.9925 2.20953L31.8063 9.02359ZM21.121 22.6291H19.9854V7.22416L24.3362 2.8658V19.7828L23.2006 19.7825V22.6291H21.8805V24.3326H23.2006V29.8193L24.3362 29.8191V47.1267L19.9854 42.7688V29.8193H21.121V24.9077H19.9854V24.3398H21.121V22.6291ZM19.9854 22.6291H18.8497V24.3398H19.9854V24.9077H18.8497V29.8193H19.9854V42.7688L14.2776 37.0606V29.8193H15.4869L18.8054 19.7828H16.4161L14.2776 26.2425V12.9319L19.9854 7.22416V22.6291ZM14.2776 12.9319V26.2425L12.1612 19.7828H9.7499L13.0756 29.8193H14.2776V37.0606L2.2059 25.0039L14.2776 12.9319Z" fill="#6FA291"/>
</g>
<defs>
<clipPath id="clip0_262_874">
<rect width="50" height="50" fill="white"/>
</clipPath>
</defs>
</svg>
