<svg width="50" height="50" viewBox="0 0 50 50" fill="none" xmlns="http://www.w3.org/2000/svg">
<path d="M9.60156 15.0016L13.0409 26.5204M13.0409 26.5204L9.60156 32.3786H40.3952L36.8788 26.5204H13.0409ZM36.9061 26.5204L40.3455 15.0016M36.8788 32.4935V44.1406H13.0409V32.5174" stroke="#1B365D" stroke-width="1.71875" stroke-miterlimit="10" stroke-linecap="round" stroke-linejoin="round"/>
<path d="M24.9791 22.8414C29.6705 22.8414 33.4737 19.0398 33.4737 14.3504C33.4737 9.66093 29.6705 5.85938 24.9791 5.85938C20.2876 5.85938 16.4844 9.66093 16.4844 14.3504C16.4844 19.0398 20.2876 22.8414 24.9791 22.8414Z" stroke="#1B365D" stroke-width="1.71875" stroke-miterlimit="10" stroke-linecap="round" stroke-linejoin="round"/>
<path d="M33.3265 37.9021H30.7384M33.3265 40.5821H30.7384M21.8672 14.1946L24.2531 16.5781L28.3973 12.4357" stroke="#F9691B" stroke-width="1.71875" stroke-miterlimit="10" stroke-linecap="round" stroke-linejoin="round"/>
</svg>
