<svg width="18" height="18" viewBox="0 0 18 18" fill="none" xmlns="http://www.w3.org/2000/svg">
<path d="M3.59526 11.6052C3.68348 11.8278 3.70312 12.0716 3.65166 12.3054L3.01266 14.2794C2.99207 14.3796 2.99739 14.4833 3.02812 14.5807C3.05886 14.6782 3.11398 14.7662 3.18826 14.8364C3.26254 14.9066 3.35352 14.9567 3.45258 14.9818C3.55163 15.007 3.65547 15.0065 3.75426 14.9802L5.80206 14.3814C6.02268 14.3377 6.25117 14.3568 6.46145 14.4366C7.74268 15.035 9.19407 15.1616 10.5595 14.7941C11.925 14.4266 13.1168 13.5886 13.9247 12.4281C14.7325 11.2675 15.1045 9.8589 14.975 8.45078C14.8455 7.04267 14.2229 5.72554 13.2169 4.73178C12.2109 3.73801 10.8863 3.13148 9.47668 3.0192C8.06709 2.90691 6.66314 3.29609 5.51252 4.11806C4.36191 4.94003 3.53858 6.14198 3.18779 7.51184C2.83701 8.88169 2.98132 10.3314 3.59526 11.6052Z" stroke="#A60000" stroke-width="1.2" stroke-linecap="round" stroke-linejoin="round"/>
</svg>
