<svg width="50" height="50" viewBox="0 0 50 50" fill="none" xmlns="http://www.w3.org/2000/svg">
<path d="M28.1151 44.1407L26.8924 37.381L28.3603 35.5641M21.6406 35.5641L23.1085 37.381L21.8859 44.1407" stroke="#F9691B" stroke-width="1.71875" stroke-miterlimit="10" stroke-linejoin="round"/>
<path d="M25.0117 24.0855H28.1863C29.7692 24.0855 31.0525 22.8022 31.0525 21.2192" stroke="#F9691B" stroke-width="1.71875" stroke-miterlimit="10" stroke-linecap="round" stroke-linejoin="round"/>
<path d="M36.3365 21.2192V17.1698C36.3365 10.9232 31.2618 5.85938 25.0018 5.85938C18.7552 5.85938 13.6914 10.9232 13.6914 17.1698V21.2192" stroke="#F9691B" stroke-width="1.71875" stroke-miterlimit="10" stroke-linejoin="round"/>
<path d="M32.9063 18.0416V17.1895C32.9063 12.8305 29.3726 9.29688 25.0137 9.29688C20.6547 9.29688 17.1211 12.8305 17.1211 17.1895L17.1212 18.0415M27.8109 29.2239V27.6313M22.192 27.6313V29.2239" stroke="#1B365D" stroke-width="1.71875" stroke-miterlimit="10" stroke-linejoin="round"/>
<path d="M18.9732 19.904V22.1842C18.9732 25.5205 21.6777 28.225 25.014 28.225C28.3502 28.225 31.0548 25.5205 31.0548 22.1842V19.904M16.8691 24.3968H18.9732V18.0415H16.8691C15.1141 18.0415 13.6914 19.4642 13.6914 21.2192C13.6914 22.9742 15.1141 24.3968 16.8691 24.3968Z" stroke="#1B365D" stroke-width="1.71875" stroke-miterlimit="10" stroke-linecap="round" stroke-linejoin="round"/>
<path d="M33.1588 24.3968H31.0547V18.0415H33.1588C34.9138 18.0415 36.3365 19.4642 36.3365 21.2192C36.3365 22.9742 34.9138 24.3968 33.1588 24.3968Z" stroke="#1B365D" stroke-width="1.71875" stroke-miterlimit="10" stroke-linecap="round" stroke-linejoin="round"/>
<path d="M31.6252 30.6549L34.7142 31.1383C37.4752 31.5705 39.5102 33.9487 39.5102 36.7433V44.1406H10.4922V36.7433C10.4922 33.9488 12.5273 31.5705 15.2882 31.1383L18.3773 30.6549" stroke="#1B365D" stroke-width="1.71875" stroke-miterlimit="10" stroke-linejoin="round"/>
<path d="M25.0028 32.9628L28.7716 35.8807L31.6267 30.6549L27.8947 29.2239L25.0028 32.9628ZM25.0028 32.9628L21.234 35.8807L18.3789 30.6549L22.1109 29.2239L25.0028 32.9628ZM31.0557 19.3035C31.0557 18.0831 30.7533 16.9336 30.2201 15.9243C28.8994 17.2752 27.0555 18.1142 25.0149 18.1142C22.9744 18.1142 21.1305 17.2752 19.8098 15.9243C19.2766 16.9336 18.9741 18.0831 18.9741 19.3035" stroke="#1B365D" stroke-width="1.71875" stroke-miterlimit="10" stroke-linecap="round" stroke-linejoin="round"/>
</svg>
