<svg width="50" height="50" viewBox="0 0 50 50" fill="none" xmlns="http://www.w3.org/2000/svg">
<path d="M10.6152 32.8162H19.4838" stroke="#1B365D" stroke-width="1.71875" stroke-miterlimit="10" stroke-linecap="round" stroke-linejoin="round"/>
<path d="M10.6152 37.4423H30.7435" stroke="#1B365D" stroke-width="1.71875" stroke-miterlimit="10" stroke-linecap="round" stroke-linejoin="round" stroke-dasharray="1.02 4.69"/>
<path d="M28.7762 31.4884C30.0571 31.4884 31.0955 30.4501 31.0955 29.1692C31.0955 27.8883 30.0571 26.85 28.7762 26.85C27.4954 26.85 26.457 27.8883 26.457 29.1692C26.457 30.4501 27.4954 31.4884 28.7762 31.4884Z" stroke="#F9691B" stroke-width="1.71875" stroke-miterlimit="10" stroke-linecap="round" stroke-linejoin="round"/>
<path d="M37.787 13.9882L29.5703 22.2049M41.3866 17.5886L35.8216 23.1536" stroke="#F9691B" stroke-width="1.71875" stroke-miterlimit="10"/>
<path d="M15.8223 22.2113L29.5181 8.51548C30.2904 7.74321 31.5425 7.74321 32.3148 8.51548L43.5611 19.7618C44.3334 20.5341 44.3334 21.7862 43.5611 22.5584L36.1019 30.0176" stroke="#1B365D" stroke-width="1.71875" stroke-miterlimit="10" stroke-linecap="round" stroke-linejoin="round"/>
<path d="M34.1254 42.0636H7.83688C6.74477 42.0636 5.85938 41.1782 5.85938 40.0861V24.1814C5.85938 23.0892 6.74477 22.2039 7.83688 22.2039H34.1254C35.2175 22.2039 36.1029 23.0892 36.1029 24.1814V40.086C36.1029 41.1782 35.2175 42.0636 34.1254 42.0636Z" stroke="#1B365D" stroke-width="1.71875" stroke-miterlimit="10" stroke-linecap="round" stroke-linejoin="round"/>
</svg>
