<svg width="30" height="30" viewBox="0 0 30 30" fill="none" xmlns="http://www.w3.org/2000/svg">
<path d="M21.25 17.5V2.5M11.25 22.65L12.5 17.5H5.21246C4.82435 17.5 4.44157 17.4096 4.09443 17.2361C3.74729 17.0625 3.44533 16.8105 3.21246 16.5C2.9796 16.1895 2.82222 15.8291 2.75279 15.4472C2.68336 15.0654 2.70379 14.6726 2.81246 14.3L5.72496 4.3C5.87642 3.78071 6.19222 3.32456 6.62496 3C7.0577 2.67544 7.58404 2.5 8.12496 2.5H25C25.663 2.5 26.2989 2.76339 26.7677 3.23223C27.2366 3.70107 27.5 4.33696 27.5 5V15C27.5 15.663 27.2366 16.2989 26.7677 16.7678C26.2989 17.2366 25.663 17.5 25 17.5H21.55C21.0849 17.5002 20.629 17.6302 20.2338 17.8753C19.8385 18.1205 19.5194 18.471 19.3125 18.8875L15 27.5C14.4105 27.4927 13.8303 27.3523 13.3027 27.0893C12.7751 26.8262 12.3138 26.4474 11.9532 25.981C11.5926 25.5146 11.3421 24.9728 11.2203 24.396C11.0985 23.8192 11.1087 23.2223 11.25 22.65Z" stroke="#6B7280" stroke-width="1.5" stroke-linecap="round" stroke-linejoin="round"/>
</svg>
