<svg width="50" height="50" viewBox="0 0 50 50" fill="none" xmlns="http://www.w3.org/2000/svg">
<path d="M32.0981 28.7487H6.73906C6.2532 28.7487 5.85938 28.3549 5.85938 27.869V13.7249C5.85938 13.239 6.2532 12.8452 6.73906 12.8452H31.2184C31.7042 12.8452 32.098 13.239 32.098 13.7249L32.0981 28.7487Z" stroke="#1B365D" stroke-width="1.71875" stroke-miterlimit="10" stroke-linecap="round" stroke-linejoin="round"/>
<path d="M14.093 34.4811H10.2963C9.62781 34.4811 9.08594 33.9392 9.08594 33.2708V28.7488H32.0984V34.483" stroke="#1B365D" stroke-width="1.71875" stroke-miterlimit="10" stroke-linecap="round" stroke-linejoin="round"/>
<path d="M16.4828 37.1547C17.8109 37.1547 18.8875 36.0781 18.8875 34.75C18.8875 33.422 17.8109 32.3453 16.4828 32.3453C15.1547 32.3453 14.0781 33.422 14.0781 34.75C14.0781 36.0781 15.1547 37.1547 16.4828 37.1547Z" stroke="#1B365D" stroke-width="1.71875" stroke-miterlimit="10" stroke-linecap="round" stroke-linejoin="round"/>
<path d="M38.1605 37.1547C39.4886 37.1547 40.5652 36.0781 40.5652 34.75C40.5652 33.422 39.4886 32.3453 38.1605 32.3453C36.8325 32.3453 35.7559 33.422 35.7559 34.75C35.7559 36.0781 36.8325 37.1547 38.1605 37.1547Z" stroke="#1B365D" stroke-width="1.71875" stroke-miterlimit="10" stroke-linecap="round" stroke-linejoin="round"/>
<path d="M40.552 34.4829H43.0515C43.6481 34.4829 44.132 33.9996 44.1327 33.403L44.1414 25.1928H37.2594C37.0792 25.1928 36.9065 25.1212 36.7791 24.9939C36.6517 24.8665 36.5801 24.6937 36.5801 24.5136V21.2976C36.5801 21.2246 36.5944 21.1523 36.6224 21.0848C36.6503 21.0174 36.6912 20.9561 36.7429 20.9045C36.7945 20.8529 36.8558 20.8119 36.9232 20.784C36.9907 20.7561 37.0629 20.7417 37.1359 20.7417H42.0873" stroke="#1B365D" stroke-width="1.71875" stroke-miterlimit="10" stroke-linecap="round" stroke-linejoin="round"/>
<path d="M10.7188 17.5921V24.1138M16.184 17.5694V24.0911M21.6491 17.4326V23.9543M27.1144 17.5238V24.0456" stroke="#F9691B" stroke-width="1.71875" stroke-miterlimit="10" stroke-linecap="round" stroke-linejoin="round"/>
<path d="M32.0985 15.941H39.1411C39.3591 15.941 39.5726 16.0035 39.7563 16.121C39.9399 16.2385 40.0861 16.4062 40.1774 16.6042L44.141 25.1928M35.7716 34.4829H18.873" stroke="#1B365D" stroke-width="1.71875" stroke-miterlimit="10" stroke-linecap="round" stroke-linejoin="round"/>
</svg>
