<svg width="22" height="22" viewBox="0 0 22 22" fill="none" xmlns="http://www.w3.org/2000/svg">
<path d="M1.83331 8.70833C1.83333 7.68826 2.14277 6.6922 2.72077 5.85169C3.29876 5.01118 4.11812 4.36577 5.07062 4.0007C6.02312 3.63562 7.06396 3.56807 8.05566 3.80695C9.04736 4.04584 9.94327 4.57992 10.6251 5.33866C10.6731 5.39001 10.7311 5.43094 10.7956 5.45893C10.8601 5.48692 10.9297 5.50136 11 5.50136C11.0703 5.50136 11.1398 5.48692 11.2043 5.45893C11.2688 5.43094 11.3269 5.39001 11.3749 5.33866C12.0545 4.57499 12.9507 4.03642 13.944 3.79463C14.9373 3.55285 15.9807 3.61931 16.9353 3.98519C17.8899 4.35106 18.7104 4.99899 19.2877 5.84274C19.8649 6.68648 20.1715 7.68603 20.1666 8.70833C20.1666 10.8075 18.7916 12.375 17.4166 13.75L12.3823 18.6202C12.2115 18.8164 12.0009 18.974 11.7645 19.0825C11.5281 19.191 11.2714 19.248 11.0112 19.2497C10.7511 19.2513 10.4937 19.1976 10.2559 19.0921C10.0182 18.9866 9.80559 18.8317 9.63231 18.6377L4.58331 13.75C3.20831 12.375 1.83331 10.8167 1.83331 8.70833Z" fill="#E30000"/>
</svg>
