<svg width="14" height="14" viewBox="0 0 14 14" fill="none" xmlns="http://www.w3.org/2000/svg">
<path d="M11.6667 5.83333C11.6667 8.74592 8.43562 11.7793 7.35062 12.7161C7.24955 12.7921 7.12651 12.8332 7.00004 12.8332C6.87358 12.8332 6.75054 12.7921 6.64946 12.7161C5.56446 11.7793 2.33337 8.74592 2.33337 5.83333C2.33337 4.59566 2.82504 3.40867 3.70021 2.5335C4.57538 1.65833 5.76236 1.16667 7.00004 1.16667C8.23772 1.16667 9.4247 1.65833 10.2999 2.5335C11.175 3.40867 11.6667 4.59566 11.6667 5.83333Z" stroke="#1B365D" stroke-width="0.777778" stroke-linecap="round" stroke-linejoin="round"/>
<path d="M7.00004 7.58333C7.96654 7.58333 8.75004 6.79983 8.75004 5.83333C8.75004 4.86684 7.96654 4.08333 7.00004 4.08333C6.03354 4.08333 5.25004 4.86684 5.25004 5.83333C5.25004 6.79983 6.03354 7.58333 7.00004 7.58333Z" stroke="#1B365D" stroke-width="0.777778" stroke-linecap="round" stroke-linejoin="round"/>
</svg>
