<svg width="50" height="50" viewBox="0 0 50 50" fill="none" xmlns="http://www.w3.org/2000/svg">
<g clip-path="url(#clip0_337_9980)">
<path d="M40.2486 8.48031L37.8837 10.8452C34.3521 7.62359 29.8116 5.85938 24.9996 5.85938C20.7643 5.85938 16.7397 7.22695 13.4277 9.75102M18.6459 14.7342C20.4915 13.5895 22.6681 12.9279 24.9996 12.9279C28.0098 12.9279 30.7624 14.0298 32.8767 15.8521L30.0826 18.6462" stroke="#1B365D" stroke-width="1.71875" stroke-miterlimit="10" stroke-linecap="round" stroke-linejoin="round"/>
<path d="M14.7343 31.3538C13.5895 29.5081 12.928 27.3315 12.928 25C12.928 21.9898 14.0299 19.2372 15.8522 17.1229L18.6463 19.9171V9.75104H8.48031L10.8452 12.1159C7.62359 15.6475 5.85938 20.188 5.85938 25C5.85938 29.2353 7.22695 33.2599 9.75102 36.5719" stroke="#F9691B" stroke-width="1.71875" stroke-miterlimit="22.9256" stroke-linecap="round" stroke-linejoin="round"/>
<path d="M31.3527 35.2658C29.5071 36.4105 27.3305 37.0721 24.999 37.0721C21.9887 37.0721 19.2362 35.9702 17.1219 34.1479L19.916 31.3538H9.75V41.5198L12.1148 39.1549C15.6465 42.3764 20.187 44.1406 24.999 44.1406C29.2343 44.1406 33.2589 42.7731 36.5709 40.249" stroke="#1B365D" stroke-width="1.71875" stroke-miterlimit="10" stroke-linejoin="round"/>
<path d="M35.2655 18.6462C36.4103 20.4919 37.0719 22.6685 37.0719 25C37.0719 28.0101 35.9699 30.7628 34.1477 32.8771L31.3535 30.0829V40.249H41.5195L39.1547 37.8841C42.3762 34.3525 44.1404 29.812 44.1404 25C44.1404 20.7647 42.7729 16.7401 40.2488 13.4281" stroke="#F9691B" stroke-width="1.71875" stroke-miterlimit="22.9256" stroke-linecap="round" stroke-linejoin="round"/>
<path d="M30.082 18.6462H40.248V8.48029" stroke="#1B365D" stroke-width="1.71875" stroke-miterlimit="10" stroke-linecap="round" stroke-linejoin="round"/>
</g>
<defs>
<clipPath id="clip0_337_9980">
<rect width="40" height="40" fill="white" transform="translate(5 5)"/>
</clipPath>
</defs>
</svg>
