<svg width="50" height="50" viewBox="0 0 50 50" fill="none" xmlns="http://www.w3.org/2000/svg">
<g clip-path="url(#clip0_337_9306)">
<path d="M9.7657 39.0816V16.9284C9.7657 15.2131 11.1675 13.8041 12.8874 13.8162H34.8038M34.8038 13.8162C33.0849 13.8162 31.6916 15.2096 31.6916 16.9284V41.0284C31.6916 42.7473 30.2981 44.1406 28.5793 44.1406C26.8604 44.1406 25.467 42.7472 25.467 41.0284V39.4723H5.85938V41.0284C5.85938 42.7472 7.25281 44.1406 8.97172 44.1406H28.5792M34.8038 13.8162C36.5227 13.8162 37.9161 15.2095 37.9161 16.9284V28.7348C37.9161 30.4536 39.3095 31.847 41.0284 31.847C42.7472 31.847 44.1406 30.4537 44.1406 28.7348V5.85938L41.2109 7.42188L38.2812 5.85938L35.3516 7.42188L32.4219 5.85938L29.4922 7.42188L26.5625 5.85938L23.6328 7.42188L20.7031 5.85938V13.4255" stroke="#1B365D" stroke-width="1.71875" stroke-miterlimit="22.9256" stroke-linecap="round" stroke-linejoin="round"/>
<path d="M41.0283 31.847H32.082" stroke="#1B365D" stroke-width="1.71875" stroke-miterlimit="2.6131" stroke-linecap="round" stroke-linejoin="round"/>
<path d="M23.1203 30.6603C26.3093 29.3393 27.8237 25.6833 26.5028 22.4942C25.1818 19.3052 21.5258 17.7908 18.3367 19.1118C15.1477 20.4327 13.6333 24.0888 14.9543 27.2778C16.2752 30.4668 19.9313 31.9812 23.1203 30.6603Z" stroke="#1B365D" stroke-width="1.71875" stroke-miterlimit="2.6131" stroke-linecap="round" stroke-linejoin="round"/>
<path d="M18.4998 25.0262L19.9384 26.4648L22.6505 23.7526M24.2559 34.652H17.1992" stroke="#F9691B" stroke-width="1.71875" stroke-miterlimit="2.6131" stroke-linecap="round" stroke-linejoin="round"/>
</g>
<defs>
<clipPath id="clip0_337_9306">
<rect width="40" height="40" fill="white" transform="translate(5 5)"/>
</clipPath>
</defs>
</svg>
