<svg width="50" height="50" viewBox="0 0 50 50" fill="none" xmlns="http://www.w3.org/2000/svg">
<path d="M32.4473 31.1949V44.1406L24.9991 40.9729L17.5508 44.1406V31.1949" stroke="#1B365D" stroke-width="1.71875" stroke-miterlimit="10" stroke-linejoin="round"/>
<path d="M10.5859 20.3148C10.5859 18.5207 13.2574 17.269 13.9015 15.7084C14.5697 14.0893 13.5829 11.3238 14.7979 10.1029C16.0144 8.88055 18.7836 9.85531 20.3987 9.18234C21.958 8.53258 23.2053 5.85938 24.999 5.85938C26.7927 5.85938 28.0399 8.53258 29.5993 9.18227C31.2144 9.85523 33.9836 8.88047 35.2001 10.1028C36.4151 11.3237 35.4283 14.0892 36.0965 15.7084C36.7405 17.2689 39.412 18.5207 39.412 20.3148C39.412 22.1088 36.7405 23.3606 36.0965 24.9212C35.4283 26.5403 36.4151 29.3059 35.2001 30.5267C33.9836 31.7491 31.2144 30.7743 29.5993 31.4473C28.04 32.097 26.7927 34.7702 24.9991 34.7702C23.2054 34.7702 21.9581 32.097 20.3988 31.4473C18.7837 30.7743 16.0145 31.7491 14.798 30.5267C13.583 29.3059 14.5698 26.5403 13.9016 24.9212C13.2575 23.3606 10.5859 22.1089 10.5859 20.3148Z" stroke="#1B365D" stroke-width="1.71875" stroke-miterlimit="10" stroke-linejoin="round"/>
<path d="M24.9992 27.606C29.0654 27.606 32.3617 24.2991 32.3617 20.2198C32.3617 16.1405 29.0654 12.8336 24.9992 12.8336C20.933 12.8336 17.6367 16.1405 17.6367 20.2198C17.6367 24.2991 20.933 27.606 24.9992 27.606Z" stroke="#F9691B" stroke-width="1.71875" stroke-miterlimit="10" stroke-linecap="round" stroke-linejoin="round"/>
<path d="M22.7578 20.3383L24.2352 21.8157L27.2369 18.814" stroke="#F9691B" stroke-width="1.71875" stroke-miterlimit="10" stroke-linecap="round" stroke-linejoin="round"/>
</svg>
