<svg width="50" height="50" viewBox="0 0 50 50" fill="none" xmlns="http://www.w3.org/2000/svg">
<g clip-path="url(#clip0_337_9296)">
<path d="M27.403 34.6157C29.0466 35.4716 30.1919 37.1716 30.2425 39.1317C30.3009 41.3998 28.9186 43.3513 26.9457 44.1406V40.8726L24.9991 39.9878L23.0526 40.8726V44.1406C21.1199 43.3675 19.754 41.479 19.754 39.2702C19.754 37.2402 20.908 35.481 22.5951 34.6092V29.0329C20.9516 28.177 19.8062 26.477 19.7557 24.5169C19.6973 22.2488 21.0796 20.2973 23.0525 19.5081V22.776L24.9991 23.6608L26.9457 22.776V19.5081C28.8783 20.2812 30.2443 22.1697 30.2443 24.3784C30.2443 26.4084 29.0902 28.1677 27.4031 29.0395L27.403 34.6157Z" stroke="#F9691B" stroke-width="1.71875" stroke-miterlimit="10" stroke-linejoin="round"/>
<path d="M7.42188 24.8175C6.55891 24.8175 5.85938 25.517 5.85938 26.38V32.9919C5.85938 33.8548 6.55891 34.5544 7.42188 34.5544H10.252V24.8175H7.42188ZM12.9083 24.0363H10.252V35.3356H12.9083C13.7712 35.3356 14.4708 34.6361 14.4708 33.7731V25.5988C14.4708 24.7359 13.7712 24.0363 12.9083 24.0363ZM42.5781 24.8175H39.7309V34.5544H42.5781C43.4411 34.5544 44.1406 33.8548 44.1406 32.9919V26.38C44.1406 25.5171 43.4411 24.8175 42.5781 24.8175ZM35.5121 25.5988V33.7731C35.5121 34.6361 36.2116 35.3356 37.0746 35.3356H39.7309V24.0363H37.0746C36.2116 24.0363 35.5121 24.7359 35.5121 25.5988Z" stroke="#1B365D" stroke-width="1.71875" stroke-miterlimit="10" stroke-linecap="round" stroke-linejoin="round"/>
<path d="M10.2539 24.0363C10.2539 15.8959 16.853 9.29688 24.9933 9.29688C33.1336 9.29688 39.7327 15.8959 39.7327 24.0363" stroke="#1B365D" stroke-width="1.71875" stroke-miterlimit="10" stroke-linejoin="round"/>
<path d="M6.81641 24.94V24.0363C6.81641 13.9974 14.9545 5.85938 24.9933 5.85938C35.0321 5.85938 43.1702 13.9974 43.1702 24.0363V24.9734M14.5735 13.62L12.1428 11.1893M35.4181 13.6079L37.8488 11.1772" stroke="#1B365D" stroke-width="1.71875" stroke-miterlimit="10" stroke-linejoin="round"/>
</g>
<defs>
<clipPath id="clip0_337_9296">
<rect width="40" height="40" fill="white" transform="translate(5 5)"/>
</clipPath>
</defs>
</svg>
