<svg width="50" height="50" viewBox="0 0 50 50" fill="none" xmlns="http://www.w3.org/2000/svg">
<g clip-path="url(#clip0_337_408)">
<path d="M40.2505 8.48031L37.8857 10.8452C34.3541 7.62359 29.8135 5.85938 25.0016 5.85938C20.7662 5.85938 16.7416 7.22695 13.4297 9.75102M18.6478 14.7342C20.4934 13.5895 22.6701 12.9279 25.0016 12.9279C28.0117 12.9279 30.7644 14.0298 32.8787 15.8521L30.0845 18.6462" stroke="#1B365D" stroke-width="1.71875" stroke-miterlimit="10" stroke-linecap="round" stroke-linejoin="round"/>
<path d="M14.7343 31.3538C13.5895 29.5081 12.928 27.3315 12.928 25C12.928 21.9898 14.0299 19.2372 15.8522 17.1229L18.6463 19.9171V9.75104H8.48031L10.8452 12.1159C7.62359 15.6475 5.85938 20.188 5.85938 25C5.85938 29.2353 7.22695 33.2599 9.75102 36.5719" stroke="#F9691B" stroke-width="1.71875" stroke-miterlimit="22.9256" stroke-linecap="round" stroke-linejoin="round"/>
<path d="M31.3527 35.2658C29.5071 36.4105 27.3305 37.0721 24.999 37.0721C21.9887 37.0721 19.2362 35.9702 17.1219 34.1479L19.916 31.3538H9.75V41.5198L12.1148 39.1549C15.6465 42.3764 20.187 44.1406 24.999 44.1406C29.2343 44.1406 33.2589 42.7731 36.5709 40.249" stroke="#1B365D" stroke-width="1.71875" stroke-miterlimit="10" stroke-linejoin="round"/>
<path d="M35.2675 18.6462C36.4123 20.4919 37.0738 22.6685 37.0738 25C37.0738 28.0101 35.9719 30.7628 34.1496 32.8771L31.3555 30.0829V40.249H41.5215L39.1566 37.8841C42.3781 34.3525 44.1423 29.812 44.1423 25C44.1423 20.7647 42.7748 16.7401 40.2507 13.4281" stroke="#F9691B" stroke-width="1.71875" stroke-miterlimit="22.9256" stroke-linecap="round" stroke-linejoin="round"/>
<path d="M30.082 18.6462H40.248V8.48029" stroke="#1B365D" stroke-width="1.71875" stroke-miterlimit="10" stroke-linecap="round" stroke-linejoin="round"/>
</g>
<defs>
<clipPath id="clip0_337_408">
<rect width="40" height="40" fill="white" transform="translate(5 5)"/>
</clipPath>
</defs>
</svg>
