<svg width="50" height="50" viewBox="0 0 50 50" fill="none" xmlns="http://www.w3.org/2000/svg">
<g clip-path="url(#clip0_337_2947)">
<path d="M18.9954 23.4108L18.6412 23.7649C17.6738 24.7323 17.9632 25.8236 16.9958 26.791C16.0284 27.7584 14.9372 27.469 13.9697 28.4364L7.33696 35.0692C5.31838 37.0877 5.37517 40.4481 7.46352 42.5365C9.5518 44.6247 12.9121 44.6817 14.9308 42.663L21.5635 36.0302C22.531 35.0628 22.2415 33.9715 23.2089 33.0042C24.1763 32.0367 25.2676 32.3262 26.235 31.3588L26.5956 30.9982" stroke="#1B365D" stroke-width="1.71874" stroke-miterlimit="2.6131" stroke-linecap="round" stroke-linejoin="round"/>
<path d="M15.9767 31.3935L10.293 37.0772M18.6054 34.0221L12.9216 39.7059M25.9331 21.4447L40.1032 7.27459L43.5734 5.85944L44.1394 6.42545L42.7242 9.89567L28.5564 24.0636" stroke="#1B365D" stroke-width="1.71874" stroke-miterlimit="22.9256" stroke-linecap="round" stroke-linejoin="round"/>
<path fill-rule="evenodd" clip-rule="evenodd" d="M14.896 18.8443C13.0901 19.5091 11.0127 19.3977 9.21544 18.3618C6.83232 16.9882 5.6128 14.3758 5.901 11.8098L11.2287 14.8806L13.9131 13.3333L13.9132 10.239L8.58536 7.16836C10.6672 5.63618 13.5432 5.38431 15.9264 6.7579C18.8013 8.41492 19.9831 11.8748 18.8668 14.8811L35.1103 31.097C36.9161 30.4323 38.7006 30.3748 40.7908 31.5795C42.8809 32.7842 44.3934 35.5655 44.1053 38.1314L38.7775 35.0607L36.0931 36.6079V39.7022L41.4209 42.773C39.339 44.3051 36.7088 44.6987 34.0798 43.1835C31.4507 41.6682 30.0232 38.0666 31.1394 35.0603L14.896 18.8443Z" stroke="#F9691B" stroke-width="1.71874" stroke-miterlimit="2.6131" stroke-linecap="round" stroke-linejoin="round"/>
</g>
<defs>
<clipPath id="clip0_337_2947">
<rect width="40" height="40" fill="white" transform="translate(5 5)"/>
</clipPath>
</defs>
</svg>
