<svg width="50" height="50" viewBox="0 0 50 50" fill="none" xmlns="http://www.w3.org/2000/svg">
<path d="M28.7462 17.3664C28.3295 18.8948 26.9255 20.0275 25.2696 20.0275H22.4967L17.9937 23.7027V20.0275H13.7587C11.7773 20.0275 10.1562 18.4064 10.1562 16.4251V12.4777C10.1562 10.4963 11.7773 8.87531 13.7587 8.87531H22.348" stroke="#F9691B" stroke-width="1.71875" stroke-miterlimit="2.6131" stroke-linecap="round" stroke-linejoin="round"/>
<path d="M29.3125 11.4355H29.313M32.8281 11.4355H32.8287M36.3449 11.4355H36.3455" stroke="#F9691B" stroke-width="1.71875" stroke-miterlimit="22.9256" stroke-linecap="round" stroke-linejoin="round"/>
<path d="M17.5381 32.317C18.3601 30.3325 17.4178 28.0574 15.4333 27.2354C13.4488 26.4134 11.1737 27.3557 10.3517 29.3402C9.52965 31.3247 10.472 33.5998 12.4565 34.4218C14.441 35.2438 16.7161 34.3015 17.5381 32.317Z" stroke="#1B365D" stroke-width="1.71875" stroke-miterlimit="2.6131" stroke-linecap="round" stroke-linejoin="round"/>
<path d="M35.3763 29.6249C36.1074 27.6051 35.0628 25.3751 33.0431 24.6439C31.0234 23.9128 28.7934 24.9573 28.0622 26.9771C27.331 28.9968 28.3756 31.2268 30.3953 31.958C32.415 32.6892 34.6451 31.6446 35.3763 29.6249Z" stroke="#1B365D" stroke-width="1.71875" stroke-miterlimit="2.6131" stroke-linecap="round" stroke-linejoin="round"/>
<path d="M38.6348 40.2344V39.3948C38.6348 35.4334 35.523 32.192 31.7198 32.192C27.9165 32.192 24.8047 35.4332 24.8047 39.3948V40.2344M21.213 40.625H42.5781V44.1406H20.8614M20.8614 44.1406H7.03125V41.9215C7.03125 37.9599 10.143 34.7187 13.9463 34.7187C17.7496 34.7187 20.8614 37.9601 20.8614 41.9215V44.1406ZM35.1314 17.0116H39.3663C41.3477 17.0116 42.9688 15.3905 42.9688 13.4092V9.4618C42.9688 7.48047 41.3477 5.85938 39.3663 5.85938H26.2929C24.3127 5.85938 22.6905 7.48164 22.6905 9.4618V13.4091C22.6905 15.3899 24.3116 17.0116 26.2929 17.0116H30.6284L35.1314 20.6868V17.0116Z" stroke="#1B365D" stroke-width="1.71875" stroke-miterlimit="2.6131" stroke-linecap="round" stroke-linejoin="round"/>
</svg>
