<svg width="50" height="50" viewBox="0 0 50 50" fill="none" xmlns="http://www.w3.org/2000/svg">
<path d="M34.4195 21.875V44.1406H12.1048C10.1748 44.1406 8.59375 42.5607 8.59375 40.6297M8.59375 40.6297V14.7825C8.59375 12.8515 10.1737 11.2715 12.1047 11.2715H27.0887M8.59375 40.6297C8.59375 38.6986 10.1737 37.1187 12.1047 37.1187H34.0281" stroke="#1B365D" stroke-width="1.71875" stroke-miterlimit="2.6131" stroke-linecap="round" stroke-linejoin="round"/>
<path d="M12.1055 40.6297H34.0288M12.1055 11.6432V36.7469" stroke="#1B365D" stroke-width="1.71875" stroke-miterlimit="22.9256" stroke-linecap="round" stroke-linejoin="round"/>
<path fill-rule="evenodd" clip-rule="evenodd" d="M16.9219 28.5407H29.6V32.9233H16.9219V28.5407ZM30.9249 5.85938L27.4316 9.35273C27.4316 14.6987 28.3255 19.8518 34.4184 21.4844C40.511 19.8518 41.4051 14.6988 41.4051 9.35273L37.9116 5.85938H30.9249Z" stroke="#F9691B" stroke-width="1.71875" stroke-miterlimit="2.6131" stroke-linecap="round" stroke-linejoin="round"/>
<path d="M37.0547 11.5234L33.5391 15.0391L31.7812 13.2812" stroke="#F9691B" stroke-width="1.71875" stroke-miterlimit="2.6131" stroke-linecap="round" stroke-linejoin="round"/>
</svg>
